<?xml version="1.0" standalone="no"?>
<!DOCTYPE svg PUBLIC "-//W3C//DTD SVG 1.1//EN" "http://www.w3.org/Graphics/SVG/1.1/DTD/svg11.dtd" >
<svg xmlns="http://www.w3.org/2000/svg" xmlns:xlink="http://www.w3.org/1999/xlink" version="1.1">
<metadata>
Created by FontForge 20161116 at Thu Jan  6 09:10:05 2011
 By Jimmy Wärting
COPYRIGHT c 2010 Hyundai Motor Group. All rights reserved. Font designed by TypoDesign lab.inc.
</metadata>
<defs>
<font id="HDharmonyM" horiz-adv-x="872" >
  <font-face 
    font-family="HDharmony M"
    font-weight="400"
    font-stretch="normal"
    units-per-em="1000"
    panose-1="2 2 6 3 2 1 1 2 1 1"
    ascent="858"
    descent="-142"
    x-height="554"
    cap-height="743"
    bbox="-38 -142 900 858"
    underline-thickness="25"
    underline-position="-154"
    unicode-range="U+0020-FFE6"
  />
<missing-glyph horiz-adv-x="1000" 
d="M100 -42v800h800v-800h-800zM150 8h700v700h-700v-700z" />
    <glyph glyph-name=".notdef" horiz-adv-x="1000" 
d="M100 -42v800h800v-800h-800zM150 8h700v700h-700v-700z" />
    <glyph glyph-name="glyph1" horiz-adv-x="0" 
 />
    <glyph glyph-name="glyph2" horiz-adv-x="1000" 
 />
    <glyph glyph-name="glyph3" horiz-adv-x="0" 
d="M0 -1z" />
    <glyph glyph-name="glyph3" horiz-adv-x="0" 
d="M0 -1z" />
    <glyph glyph-name="space" unicode=" " horiz-adv-x="297" 
 />
    <glyph glyph-name="exclam" unicode="!" horiz-adv-x="296" 
d="M208 773v-267q0 -92 -12 -272h-97q-11 190 -11 272v267h120zM85 132h126v-126h-126v126z" />
    <glyph glyph-name="quotedbl" unicode="&#x22;" horiz-adv-x="390" 
d="M59 814h104v-217h-104v217zM227 814h104v-217h-104v217z" />
    <glyph glyph-name="numbersign" unicode="#" horiz-adv-x="683" 
d="M251 743h95l-39 -188h130l39 188h95l-39 -188h93v-93h-112l-25 -117h97v-93h-116l-39 -188h-95l39 188h-130l-39 -188h-95l39 188h-91v93h110l25 117h-95v93h114zM288 462l-25 -117h130l25 117h-130z" />
    <glyph glyph-name="dollar" unicode="$" horiz-adv-x="591" 
d="M245 798h91v-88q77 0 154 -12v-91q-82 11 -154 11v-185l75 -21q61 -17 96 -54.5t35 -89.5q0 -81 -71 -128q-50 -34 -135 -43v-88h-91v84q-94 2 -178 16v92q76 -13 178 -15v181q-196 48 -196 172q0 77 66 122q48 33 130 44v93zM336 347v-160q43 5 68 20q39 23 39 61
q0 56 -99 77zM245 458v155q-94 -15 -94 -72q0 -32 26 -53q17 -14 68 -30z" />
    <glyph glyph-name="percent" unicode="%" horiz-adv-x="880" 
d="M216 750q75 0 129.5 -53.5t54.5 -127.5q0 -75 -54.5 -128.5t-129.5 -53.5t-129 54t-54 128t54 127.5t129 53.5zM683 750l-379 -693h-108l379 693h108zM664 420q75 0 129 -53.5t54 -127.5q0 -75 -54 -129t-129 -54q-77 0 -131 54t-54 129t54 128t131 53zM664 145
q40 0 65.5 27t25.5 67q0 38 -26 65t-65 27q-41 0 -67 -26.5t-26 -65.5q0 -40 26 -67t67 -27zM216 475q40 0 67 27t27 67t-27 67t-67 27q-41 0 -67 -27t-26 -67t26 -67t67 -27z" />
    <glyph glyph-name="ampersand" unicode="&#x26;" horiz-adv-x="669" 
d="M276 485q105 42 105 99q0 44 -22 68t-63 24q-36 0 -62 -24t-20 -64q6 -42 62 -103zM341 420q-3 -1 -6 -3l122 -141q28 52 35 112h99q-18 -111 -69 -187l118 -137h-119l-60 68l-1 -1q-92 -79 -212 -79q-90 0 -152 53q-63 55 -63 140q0 112 158 196q-81 84 -81 153
q0 75 50 118.5t137 43.5q86 0 135.5 -46.5t49.5 -120.5q0 -106 -141 -169zM249 374l-32 -18q-84 -49 -84 -108q0 -43 30.5 -71.5t81.5 -31.5q80 -10 150 53q2 2 5 4z" />
    <glyph glyph-name="quotesingle" unicode="'" horiz-adv-x="228" 
d="M60 814h108v-217h-108v217z" />
    <glyph glyph-name="parenleft" unicode="(" horiz-adv-x="345" 
d="M54 389q0 286 180 454l75 -69q-147 -133 -147 -385t147 -385l-75 -69q-180 168 -180 454z" />
    <glyph glyph-name="parenright" unicode=")" horiz-adv-x="345" 
d="M291 389q0 -286 -180 -454l-75 69q147 133 147 385t-147 385l75 69q180 -168 180 -454z" />
    <glyph glyph-name="asterisk" unicode="*" horiz-adv-x="557" 
d="M52 417l33 97l148 -53l-11 167h107l-7 -167l153 54l30 -98l-159 -45l114 -142l-88 -59l-92 150l-103 -150l-81 59l112 142z" />
    <glyph glyph-name="plus" unicode="+" horiz-adv-x="576" 
d="M53 453h180v191h109v-191h181v-98h-181v-196h-109v196h-180v98z" />
    <glyph glyph-name="comma" unicode="," horiz-adv-x="314" 
d="M88 -73q71 30 73 99h-70v140h142v-114q0 -137 -113 -175z" />
    <glyph glyph-name="hyphen" unicode="-" horiz-adv-x="500" 
d="M60 455h380v-102h-380v102z" />
    <glyph glyph-name="period" unicode="." horiz-adv-x="314" 
d="M91 24v142h142v-142h-142z" />
    <glyph glyph-name="slash" unicode="/" horiz-adv-x="428" 
d="M19 13l283 802h107l-283 -802h-107z" />
    <glyph glyph-name="zero" unicode="0" horiz-adv-x="564" 
d="M282 147q69 0 105.5 68.5t36.5 187.5t-39 188t-103 69q-65 0 -103.5 -69t-38.5 -188t36.5 -187.5t105.5 -68.5zM32 403q0 146 67.5 250.5t182.5 104.5t182.5 -104.5t67.5 -250.5t-65 -250t-185 -104t-185 104t-65 250z" />
    <glyph glyph-name="one" unicode="1" horiz-adv-x="564" 
d="M279 64v578l-166 -62v96l183 75h91v-687h-108z" />
    <glyph glyph-name="two" unicode="2" horiz-adv-x="564" 
d="M249 659q-74 1 -170 -50v102q100 51 198 47q91 -4 142.5 -58t51.5 -137q0 -127 -100 -241l-142 -160h263v-98h-426v59l184 210q51 57 82.5 111.5t31.5 105.5q0 48 -27 78t-88 31z" />
    <glyph glyph-name="three" unicode="3" horiz-adv-x="564" 
d="M228 661q-51 0 -133 -20v96q74 20 130 21q114 2 182.5 -44.5t68.5 -136.5q0 -105 -98 -159q121 -56 121 -165q0 -96 -70.5 -150t-195.5 -54q-65 0 -152 21v96q84 -21 146 -21q83 0 122 31.5t39 83.5q0 46 -45.5 77.5t-134.5 31.5h-45v97h45q161 1 161 105q0 89 -141 90z
" />
    <glyph glyph-name="four" unicode="4" horiz-adv-x="564" 
d="M333 64v154h-305v69l320 471h89v-444h82v-96h-82v-154h-104zM333 576l-177 -262h177v262z" />
    <glyph glyph-name="five" unicode="5" horiz-adv-x="564" 
d="M206 478q140 9 217 -45q80 -56 80 -158q0 -98 -68.5 -162t-194.5 -64q-94 0 -162 22v95q81 -20 154 -20q79 0 121.5 34.5t42.5 88.5q0 56 -45.5 86t-132.5 33q-48 2 -120 -9v364h365v-97h-257v-168z" />
    <glyph glyph-name="six" unicode="6" horiz-adv-x="564" 
d="M293 148q46 0 79 33.5t33 86.5q0 51 -30.5 82.5t-86.5 31.5q-69 0 -121 -29q-5 -96 31 -150.5t95 -54.5zM303 477q90 0 149 -55t59 -147q0 -100 -62.5 -163t-157.5 -63q-105 0 -169 86.5t-64 220.5q0 176 77 282q78 109 208 119q69 5 134 -11v-97q-66 12 -124 8
q-65 -4 -116 -59t-61 -147q59 29 127 26z" />
    <glyph glyph-name="seven" unicode="7" horiz-adv-x="564" 
d="M70 645v98h433v-77l-252 -602h-113l243 581h-311z" />
    <glyph glyph-name="eight" unicode="8" horiz-adv-x="564" 
d="M283 668q-49 0 -77 -26q-29 -24 -29 -72q0 -73 106 -112q106 37 106 112q0 46 -29 71q-30 27 -77 27zM282 49q-110 0 -172 57.5t-62 138.5q0 106 117 170q-96 66 -96 157q0 78 57.5 132t156.5 54q100 0 157 -54.5t57 -131.5q0 -93 -97 -157q116 -63 116 -170
q0 -84 -61 -140t-173 -56zM282 139q62 0 94 30.5t32 78.5q0 43 -31 73q-41 39 -94 45q-56 -8 -94 -44q-33 -30 -33 -74q0 -46 33 -77.5t93 -31.5z" />
    <glyph glyph-name="nine" unicode="9" horiz-adv-x="564" 
d="M270 660q-52 0 -82 -38t-30 -90q0 -56 29 -86t88 -30q60 0 118 29q5 96 -26.5 155.5t-96.5 59.5zM258 320q-93 0 -150.5 55.5t-57.5 149.5q0 105 61.5 169t160.5 64q110 0 170 -81.5t60 -225.5q0 -166 -41 -247q-72 -143 -243 -155q-75 -3 -141 20v98q65 -22 138 -20
q71 3 120 57.5t53 146.5q-71 -31 -130 -31z" />
    <glyph glyph-name="colon" unicode=":" horiz-adv-x="314" 
d="M86 149v142h142v-142h-142zM86 516v142h142v-142h-142z" />
    <glyph glyph-name="semicolon" unicode=";" horiz-adv-x="314" 
d="M86 516v142h142v-142h-142zM83 52q71 30 73 99h-70v140h142v-114q0 -137 -113 -175z" />
    <glyph glyph-name="less" unicode="&#x3c;" horiz-adv-x="501" 
d="M465 56l-83 -63l-328 396l328 411l82 -63l-276 -348z" />
    <glyph glyph-name="equal" unicode="=" horiz-adv-x="530" 
d="M56 469v95h418v-95h-418zM56 246v95h418v-95h-418z" />
    <glyph glyph-name="greater" unicode="&#x3e;" horiz-adv-x="501" 
d="M36 56l277 333l-276 348l82 63l328 -411l-328 -396z" />
    <glyph glyph-name="question" unicode="?" horiz-adv-x="466" 
d="M429 576q0 -30 -10.5 -57.5t-26.5 -49.5t-35 -39t-36 -33q-46 -37 -62 -66t-16 -85v-38h-109v59q0 37 10 68.5t29 53.5q18 23 38.5 41.5t38.5 34.5q31 25 45.5 52.5t14.5 54.5q0 91 -115 91q-80 0 -158 -50v101q76 44 161 44q123 0 177 -54t54 -128zM125 133h126v-127
h-126v127z" />
    <glyph glyph-name="at" unicode="@" 
d="M641 173q95 32 121 180q9 59 -6.5 119t-61.5 106q-48 45 -113 72.5t-142 27.5q-64 0 -124 -29.5t-107 -77.5t-71 -112t-27 -135q-2 -73 18.5 -140.5t66.5 -112.5q44 -48 107.5 -72t136.5 -26q154 -2 295 52v-91q-133 -54 -297 -51q-87 1 -170 27.5t-144 91.5
q-64 69 -88 150t-24 172q1 87 34.5 170.5t92.5 142.5q62 63 139.5 97t161.5 34q107 0 187.5 -34.5t135.5 -92.5q56 -62 81 -135.5t13 -157.5q-30 -219 -217 -252q-91 -16 -125 53q-46 -57 -126 -67q-73 -7 -126 44q-42 44 -48 118q-2 83 32 149q72 139 193 139q90 0 130 -74
l16 65h93l-92 -315q-10 -52 55 -35zM387 170q44 0 84 47q52 61 52 134q0 85 -68 91q-41 3 -81 -33q-60 -56 -60 -146q0 -93 73 -93z" />
    <glyph glyph-name="A" unicode="A" horiz-adv-x="684" 
d="M392 756l273 -692h-104l-79 199h-280l-79 -199h-104l273 692h100zM342 620l-102 -259h204z" />
    <glyph glyph-name="B" unicode="B" horiz-adv-x="610" 
d="M83 743h173q78 0 131 -11q51 -10 94 -50q25 -26 38 -58.5t13 -71.5q0 -88 -77 -132q106 -40 106 -158q0 -40 -16.5 -76t-44.5 -63q-27 -27 -72 -43t-172 -16h-173v679zM191 362v-200h122q48 0 71 7.5t34 17.5q35 29 35 75t-35 75q-11 10 -34 17.5t-71 7.5h-122zM268 459
q54 0 89 6q67 21 67 87q0 67 -67 88q-35 5 -89 5h-77v-186h77z" />
    <glyph glyph-name="C" unicode="C" horiz-adv-x="615" 
d="M49 412q0 153 91.5 245t253.5 99q84 4 169 -12v-97q-86 15 -156 12q-121 -5 -180 -68q-69 -70 -69 -183v-11q0 -120 68 -182.5t183 -66.5q80 -3 157 9v-97q-78 -13 -170 -9q-166 7 -256.5 95.5t-90.5 248.5v17z" />
    <glyph glyph-name="D" unicode="D" horiz-adv-x="688" 
d="M639 406q0 -59 -14.5 -111t-43.5 -94q-32 -42 -76.5 -73t-102.5 -47q-34 -10 -73 -13.5t-88 -3.5h-158v679h160q48 0 87 -4t73 -14q58 -17 103 -47t76 -71q29 -41 43 -91.5t14 -109.5zM531 406q0 90 -38 145t-113 78q-28 9 -63 12.5t-74 3.5h-52v-483h52q39 0 74 2.5
t63 12.5q75 23 113 80.5t38 148.5z" />
    <glyph glyph-name="E" unicode="E" horiz-adv-x="574" 
d="M191 162h334v-98h-442v679h435v-98h-327v-186h296v-97h-296v-200z" />
    <glyph glyph-name="F" unicode="F" horiz-adv-x="532" 
d="M191 64h-108v679h418v-98h-310v-186h273v-97h-273v-298z" />
    <glyph glyph-name="G" unicode="G" horiz-adv-x="692" 
d="M406 145q27 0 56 3t39 6v182h-149v98h257v-353q-101 -32 -201 -32q-173 0 -266 95t-93 243q0 169 95 265.5t273 103.5q74 3 154 -7v-97q-69 10 -153 7q-129 -5 -195 -71.5t-66 -191.5q0 -117 63 -184t186 -67z" />
    <glyph glyph-name="H" unicode="H" horiz-adv-x="695" 
d="M191 459h313v284h108v-679h-108v298h-313v-298h-108v679h108v-284z" />
    <glyph glyph-name="I" unicode="I" horiz-adv-x="274" 
d="M83 64v679h108v-679h-108z" />
    <glyph glyph-name="J" unicode="J" horiz-adv-x="405" 
d="M202 743h108v-494q0 -100 -56 -149.5t-133 -50.5q-55 -1 -105 5v96q50 -7 98 -4q32 3 60 26t28 70v501z" />
    <glyph glyph-name="K" unicode="K" horiz-adv-x="630" 
d="M83 64v679h108v-305l272 305h132l-298 -337l318 -342h-132l-292 305v-305h-108z" />
    <glyph glyph-name="L" unicode="L" horiz-adv-x="564" 
d="M191 743v-581h348v-98h-456v679h108z" />
    <glyph glyph-name="M" unicode="M" horiz-adv-x="849" 
d="M461 64h-73l-203 512v-512h-102v679h132l210 -513l209 513h132v-679h-103v512z" />
    <glyph glyph-name="N" unicode="N" horiz-adv-x="724" 
d="M171 743l362 -491v491h108v-679h-89l-361 489v-489h-108v679h88z" />
    <glyph glyph-name="O" unicode="O" horiz-adv-x="759" 
d="M156 403q0 -118 63 -183.5t160 -65.5t159.5 65.5t62.5 183.5t-62.5 183.5t-159.5 65.5t-160 -65.5t-63 -183.5zM49 403q0 151 92 248.5t238 97.5t238.5 -97.5t92.5 -248.5t-92.5 -248.5t-238.5 -97.5t-238 97.5t-92 248.5z" />
    <glyph glyph-name="P" unicode="P" horiz-adv-x="612" 
d="M83 743h208q103 0 160 -25q37 -16 65 -45q53 -59 53 -145t-53 -145q-28 -29 -65 -45q-55 -24 -160 -24h-100v-250h-108v679zM191 412h127q69 0 107 34q35 32 35 82q0 51 -35 83q-38 34 -107 34h-127v-233z" />
    <glyph glyph-name="Q" unicode="Q" horiz-adv-x="777" 
d="M621 158q38 -3 71 -3h65v-91h-89q-80 3 -138 25q-67 -32 -151 -32q-146 0 -238 97.5t-92 248.5t92 248.5t238 97.5t238.5 -97.5t92.5 -248.5q0 -148 -89 -245zM156 403q0 -118 63 -183.5t160 -65.5t159.5 65.5t62.5 183.5t-62.5 183.5t-159.5 65.5t-160 -65.5t-63 -183.5
z" />
    <glyph glyph-name="R" unicode="R" horiz-adv-x="601" 
d="M191 445h112q67 0 98 30t31 71t-31 70t-98 29h-112v-200zM258 348h-67v-284h-108v679h207q126 0 187 -56q63 -58 63 -142q0 -89 -65 -143q-42 -35 -107 -47l213 -291h-123z" />
    <glyph glyph-name="S" unicode="S" horiz-adv-x="582" 
d="M403 416q68 -24 97 -67.5t26 -101.5q-5 -90 -72.5 -143.5t-196.5 -54.5q-120 -1 -199 22v98q92 -24 200 -23q81 1 120.5 29t39.5 70q0 62 -67 86l-168 58q-55 19 -91 59.5t-36 102.5q0 84 57 142t178 64q82 4 179 -17v-98q-90 23 -175 17q-70 -5 -100 -30t-30 -72
q0 -59 69 -83z" />
    <glyph glyph-name="T" unicode="T" horiz-adv-x="582" 
d="M345 64h-108v581h-219v98h546v-98h-219v-581z" />
    <glyph glyph-name="U" unicode="U" horiz-adv-x="699" 
d="M191 327q0 -84 41 -132q39 -46 119 -46q79 0 119 46q42 48 42 132v416h108v-416q0 -129 -70 -204q-66 -72 -199 -72t-199 72q-69 75 -69 204v416h108v-416z" />
    <glyph glyph-name="V" unicode="V" horiz-adv-x="644" 
d="M20 743h109l193 -511l193 511h109l-256 -679h-91z" />
    <glyph glyph-name="W" unicode="W" horiz-adv-x="903" 
d="M256 227l141 516h109l136 -516l135 516h106l-184 -679h-106l-142 528l-144 -528h-104l-183 679h106z" />
    <glyph glyph-name="X" unicode="X" horiz-adv-x="659" 
d="M330 325l-185 -261h-127l253 349l-239 330h127l170 -242l172 242h126l-239 -330l253 -349h-127z" />
    <glyph glyph-name="Y" unicode="Y" horiz-adv-x="641" 
d="M266 360l-247 383h120l182 -288l179 288h122l-247 -384v-295h-109v296z" />
    <glyph glyph-name="Z" unicode="Z" horiz-adv-x="616" 
d="M564 743v-92l-363 -489h368v-98h-517v66l387 515h-378v98h503z" />
    <glyph glyph-name="bracketleft" unicode="[" horiz-adv-x="387" 
d="M100 843h240v-86h-142v-736h142v-86h-240v908z" />
    <glyph glyph-name="backslash" unicode="\" 
d="M26 376v93h90l-66 274h95l59 -274h115l68 274h98l65 -274h115l62 274h95l-66 -274h90v-93h-113l-75 -312h-96l-73 312h-106l-76 -312h-94l-75 312h-112zM405 469h62l-30 130zM644 376h-72l37 -155zM296 376h-72l34 -155z" />
    <glyph glyph-name="bracketright" unicode="]" horiz-adv-x="387" 
d="M287 842v-908h-240v86h142v736h-142v86h240z" />
    <glyph glyph-name="asciicircum" unicode="^" horiz-adv-x="543" 
d="M151 448h-109l192 367h84l193 -367h-110l-125 247z" />
    <glyph glyph-name="underscore" unicode="_" horiz-adv-x="488" 
d="M0 21h488v-91h-488v91z" />
    <glyph glyph-name="grave" unicode="`" horiz-adv-x="381" 
d="M211 814l70 -196h-91l-92 196h113z" />
    <glyph glyph-name="a" unicode="a" horiz-adv-x="543" 
d="M362 275q-34 9 -62.5 12t-57.5 2q-39 -2 -60 -17q-27 -20 -28 -56q0 -36 20 -53t53 -17q79 0 135 58v71zM370 109q-70 -58 -157 -58q-78 0 -122.5 47.5t-44.5 117.5q0 73 55 121q51 44 131 44q74 0 130 -18v20q0 83 -116 88q-71 3 -142 -13v94q74 17 151 15
q92 -2 153 -50q62 -50 62 -150v-303h-100v45z" />
    <glyph glyph-name="b" unicode="b" horiz-adv-x="581" 
d="M300 469h-1q-57 0 -113 -56v-200q50 -63 116 -64h1h-3h2q61 1 93 45t32 115t-32.5 115.5t-94.5 44.5zM319 51q-75 0 -141 58v-45h-100v692h108v-237q54 48 133 48q94 0 155 -67t61 -191t-61 -191t-155 -67z" />
    <glyph glyph-name="c" unicode="c" horiz-adv-x="496" 
d="M155 310q0 -69 36 -110q45 -50 132 -50q70 0 127 14v-95q-71 -21 -140 -17q-126 7 -195 76t-69 182t69 181.5t195 75.5q66 4 137 -17v-95q-57 14 -124 14q-87 0 -132 -50q-36 -40 -36 -109z" />
    <glyph glyph-name="d" unicode="d" horiz-adv-x="581" 
d="M281 469q-62 0 -94.5 -44.5t-32.5 -115.5t32 -115t93 -45h2h-2h-1h1q66 1 116 64v200q-56 56 -113 56h-1zM262 51q-94 0 -155 67t-61 191t61 191t155 67q79 0 133 -48v237h108v-692h-100v45q-66 -58 -141 -58z" />
    <glyph glyph-name="e" unicode="e" horiz-adv-x="534" 
d="M155 348h225q-3 57 -30.5 90.5t-82.5 33.5q-52 0 -80.5 -33.5t-31.5 -90.5zM154 258q7 -51 42.5 -80.5t96.5 -31.5q75 -4 170 18v-93q-85 -24 -170 -21q-114 1 -180.5 67t-66.5 192q0 119 63.5 188.5t157.5 69.5q97 0 159 -70.5t62 -187.5v-51h-334z" />
    <glyph glyph-name="f" unicode="f" horiz-adv-x="344" 
d="M328 554v-94h-121v-396h-104v396h-87v94h87v7q0 65 13.5 102t38.5 62q27 24 61.5 35.5t72.5 11.5q21 0 53 -6v-90q-25 4 -40 4q-24 0 -41 -5.5t-29 -17.5q-11 -12 -18 -32t-7 -63v-8h121z" />
    <glyph glyph-name="g" unicode="g" horiz-adv-x="580" 
d="M282 160q66 0 112 70v183q-55 57 -112 57q-58 0 -92.5 -46.5t-34.5 -110.5t35.5 -108.5t91.5 -44.5zM394 89v27q-56 -53 -132 -53q-94 0 -151 65q-65 71 -65 186q0 109 65 187q57 66 151 66q87 0 141 -54v41h99v-421q0 -142 -64 -200q-66 -60 -184 -63q-78 -3 -152 11v93
q71 -16 146 -11q78 5 112 36.5t34 89.5z" />
    <glyph glyph-name="h" unicode="h" horiz-adv-x="591" 
d="M78 756h108v-253q58 64 140 64q74 0 130.5 -47.5t56.5 -155.5v-300h-108v299q0 106 -102 106q-68 0 -117 -88v-317h-108v692z" />
    <glyph glyph-name="i" unicode="i" horiz-adv-x="264" 
d="M78 64v490h108v-490h-108zM75 642v114h114v-114h-114z" />
    <glyph glyph-name="j" unicode="j" horiz-adv-x="273" 
d="M86 36v518h108v-500q0 -100 -45.5 -141.5t-112.5 -41.5q-34 0 -74 12v93q61 -17 99 0q25 11 25 60zM83 642v114h114v-114h-114z" />
    <glyph glyph-name="k" unicode="k" horiz-adv-x="534" 
d="M385 554h130l-228 -241l228 -249h-131l-198 216v-216h-108v692h108v-409z" />
    <glyph glyph-name="l" unicode="l" horiz-adv-x="264" 
d="M78 64v692h108v-692h-108z" />
    <glyph glyph-name="m" unicode="m" horiz-adv-x="867" 
d="M381 338q0 131 -99 131t-99 -131v-274h-105v282q0 104 49 162.5t153 58.5q97 0 152 -60l2 -2q0 1 2 2q54 60 151 60q103 0 152.5 -58.5t49.5 -162.5v-282h-105v274q0 131 -99 131t-99 -131v-274h-105v274z" />
    <glyph glyph-name="n" unicode="n" horiz-adv-x="591" 
d="M77 362q0 102 58 153t161 51q102 0 160 -53.5t58 -149.5v-299h-108v295q0 109 -110 109q-111 0 -111 -109v-295h-108v298z" />
    <glyph glyph-name="o" unicode="o" horiz-adv-x="608" 
d="M562 309q0 -113 -75.5 -185.5t-182.5 -72.5q-104 0 -181 72t-77 186q0 115 75.5 186.5t182.5 71.5t182.5 -72.5t75.5 -185.5zM153 309q0 -72 42 -116.5t109 -44.5t109 44.5t42 116.5t-42 116.5t-109 44.5t-109 -44.5t-42 -116.5z" />
    <glyph glyph-name="p" unicode="p" horiz-adv-x="581" 
d="M300 149q62 0 94.5 44.5t32.5 115.5t-32 115q-32 45 -93 45h-2h2h1h-1q-66 0 -116 -64v-200q56 -56 113 -56h1zM319 567q94 0 155 -67t61 -191t-61 -191t-155 -67q-79 0 -133 48v-229h-108v684h100v-45q66 58 141 58z" />
    <glyph glyph-name="q" unicode="q" horiz-adv-x="582" 
d="M282 149h1q57 0 113 56v200q-50 63 -116 64h-1h3h-2q-61 -1 -93 -45q-33 -44 -33 -115t33 -115.5t95 -44.5zM263 567q75 0 141 -58v45h100v-684h-108v229q-54 -48 -133 -48q-94 0 -155.5 67t-61.5 191t61.5 191t155.5 67z" />
    <glyph glyph-name="r" unicode="r" horiz-adv-x="382" 
d="M78 554h100v-62q55 75 144 75q20 0 40 -4v-97l-40 3q-83 0 -136 -83v-322h-108v490z" />
    <glyph glyph-name="s" unicode="s" horiz-adv-x="488" 
d="M152 423q-2 -21 17 -36.5t87 -31.5l79 -19q48 -13 78 -48.5t29 -80.5q0 -69 -55 -113q-55 -47 -172 -47q-89 0 -159 15v89q79 -15 159 -15q58 0 91 17q30 16 30 49q0 42 -58 55l-71 16q-159 35 -161 143q-1 60 48 105.5t160 49.5q80 3 148 -16v-88q-85 17 -157 13
q-88 -5 -93 -57z" />
    <glyph glyph-name="t" unicode="t" horiz-adv-x="378" 
d="M216 216q0 -41 16 -54q19 -16 52 -16h75v-95h-92q-77 -1 -118 39q-39 38 -39 113v257h-92v94h92v123l106 35v-158h120v-94h-120v-244z" />
    <glyph glyph-name="u" unicode="u" horiz-adv-x="591" 
d="M77 250v304h108v-301q0 -109 111 -109q110 0 110 109v301h108v-305q0 -96 -59 -149.5t-161 -53.5q-103 0 -160 51t-57 153z" />
    <glyph glyph-name="v" unicode="v" horiz-adv-x="541" 
d="M320 64h-102l-198 490h108l142 -363l144 363h107z" />
    <glyph glyph-name="w" unicode="w" horiz-adv-x="751" 
d="M371 416l-93 -352h-99l-159 490h107l100 -356l97 356h95l103 -356l103 356h106l-164 -490h-101z" />
    <glyph glyph-name="x" unicode="x" horiz-adv-x="520" 
d="M260 395l113 159h125l-172 -243l180 -247h-125l-121 166l-120 -166h-125l181 249l-174 241h125z" />
    <glyph glyph-name="y" unicode="y" horiz-adv-x="520" 
d="M15 554h110l128 -341l142 341h109l-287 -684h-108l90 215z" />
    <glyph glyph-name="z" unicode="z" horiz-adv-x="459" 
d="M292 463h-246v91h376v-85l-241 -314h258v-91h-404v58z" />
    <glyph glyph-name="braceleft" unicode="{" horiz-adv-x="424" 
d="M197 388q65 -30 66 -133v-139q0 -92 92 -92h22v-98h-42q-170 0 -170 196v91q0 107 -62 107h-25v136h25q62 0 62 107v91q0 196 170 196h42v-98h-22q-92 0 -92 -92v-139q-1 -103 -66 -133z" />
    <glyph glyph-name="bar" unicode="|" horiz-adv-x="253" 
d="M176 -142h-99v1000h99v-1000z" />
    <glyph glyph-name="braceright" unicode="}" horiz-adv-x="424" 
d="M227 388q-65 30 -66 133v139q0 92 -92 92h-22v98h42q170 0 170 -196v-91q0 -107 62 -107h25v-136h-25q-62 0 -62 -107v-91q0 -196 -170 -196h-42v98h22q92 0 92 92v139q1 103 66 133z" />
    <glyph glyph-name="asciitilde" unicode="~" horiz-adv-x="588" 
d="M464 435h98q-14 -83 -51 -126q-46 -53 -111 -53q-49 0 -92 32l-61 53q-31 26 -49 28q-59 7 -69 -83h-95q4 84 48 131q50 54 119 47q45 -5 84 -34l58 -51q27 -25 43 -27q59 -6 78 83z" />
    <glyph glyph-name="uni007F" horiz-adv-x="527" 
d="M128 691v-575h271v575h-271zM476 766v-725h-425v725h425z" />
    <glyph glyph-name="exclamdown" unicode="&#xa1;" 
d="M373 743h126v-132h-126v132zM497 41h-121l12 504h97z" />
    <glyph glyph-name="currency" unicode="&#xa4;" 
d="M663 418q0 102 -69 162t-158 60t-158 -60t-69 -162t69 -162t158 -60t158 60t69 162zM749 418q0 -111 -69 -192l119 -120l-51 -53l-122 122q-81 -61 -190 -61q-108 0 -188 60l-122 -121l-51 53l119 118q-71 82 -71 194q0 111 69 192l-118 121l51 53l122 -123q81 61 189 61
q109 0 190 -61l123 123l51 -53l-120 -121q69 -81 69 -192z" />
    <glyph glyph-name="section" unicode="&#xa7;" 
d="M396 474q-28 1 -48 -17q-24 -20 -24 -51q0 -40 61 -88q61 -56 118 -56q63 0 63 52q0 42 -55 99q-67 60 -115 61zM442 815q67 0 108 -43t41 -115h-62q-10 50 -34 67.5t-58 17.5q-33 0 -53.5 -20t-16.5 -49t40 -65q21 -23 78 -70q71 -55 100 -86q49 -57 56 -106
q8 -59 -19 -97q-32 -44 -88 -42q10 -10 33 -34q51 -52 50 -100q-3 -67 -54.5 -99t-125.5 -32q-61 0 -107 37t-52 118h77q7 -42 31.5 -60t54.5 -18q89 0 89 61q0 43 -112 116q-68 47 -106 80q-54 47 -64 104.5t22 97.5q48 60 110 55l-8 8q-26 22 -57 58t-31 82q-1 55 40 94.5
t109 39.5h9z" />
    <glyph glyph-name="dieresis" unicode="&#xa8;" 
d="M201 672v142h142v-142h-142zM529 672v142h142v-142h-142z" />
    <glyph glyph-name="ordfeminine" unicode="&#xaa;" 
d="M168 162h536v-98h-536v98zM538 447q-34 9 -62.5 12t-57.5 2q-39 -2 -60 -17q-27 -20 -28 -56q0 -36 20 -53t53 -17q79 0 135 58v71zM546 281q-70 -58 -157 -58q-78 0 -122.5 47.5t-44.5 117.5q0 73 55 121q51 44 131 44q74 0 130 -18v20q0 83 -116 88q-71 3 -142 -13v94
q74 17 151 15q92 -2 153 -50q62 -50 62 -150v-303h-100v45z" />
    <glyph glyph-name="uni00AD" unicode="&#xad;" 
d="M235 356v98h469v-98h-469z" />
    <glyph glyph-name="registered" unicode="&#xae;" 
d="M270 677h167q58 0 95 -13.5t59 -35.5t35 -51.5t13 -60.5t-13 -60t-35 -50q-22 -22 -59 -35q-14 -5 -28 -8l161 -221q8 7 16 15q48 48 76.5 112t28.5 136q0 71 -28.5 135t-76.5 111q-47 49 -110 78t-135 29t-135 -29t-111 -78q-47 -47 -74.5 -111t-27.5 -135
q0 -72 27.5 -136t74.5 -112q48 -49 111 -77t135 -28t135 28q44 20 81 50h-83l-164 228h-44v-228h-91v547zM361 439h87q52 0 76 23t24 55t-24 54.5t-76 22.5h-87v-155zM853 405q0 -85 -33.5 -160.5t-91.5 -133.5q-54 -55 -130.5 -87.5t-161.5 -32.5t-161 32.5t-134 87.5
q-55 58 -87.5 133.5t-32.5 160.5t32.5 161t87.5 131q58 57 134 90.5t161 33.5t161.5 -33.5t131.5 -90.5q57 -55 90.5 -131t33.5 -161z" />
    <glyph glyph-name="degree" unicode="&#xb0;" 
d="M353 696q0 -48 -32.5 -83t-85.5 -35t-85.5 35t-32.5 83t32.5 83t85.5 35t85.5 -35t32.5 -83zM288 696q0 21 -14 37t-39 16t-39 -16t-14 -37t14 -37t39 -16t39 16t14 37z" />
    <glyph glyph-name="plusminus" unicode="&#xb1;" 
d="M201 229h470v-94h-470v94zM201 563h180v191h109v-191h181v-98h-181v-189h-109v189h-180v98z" />
    <glyph glyph-name="uni00B2" unicode="&#xb2;" 
d="M203 740q-51 -4 -116 -37v78q71 33 134 33q58 -1 93.5 -37.5t35.5 -93.5q0 -85 -85 -180l-60 -71h158v-74h-280v46l116 136q35 44 52.5 76.5t17.5 58.5q0 33 -18 50t-48 15z" />
    <glyph glyph-name="uni00B3" unicode="&#xb3;" 
d="M186 738q-37 0 -90 -16v75q48 13 90 15q74 3 119 -27t45 -95q-3 -72 -54 -100q69 -24 69 -100q0 -71 -48.5 -107t-125.5 -36q-54 0 -104 14v70q58 -10 99 -10q55 0 77 19.5t22 48.5t-27.5 45t-79.5 16h-37v71h22q108 0 108 65q-6 52 -85 52z" />
    <glyph glyph-name="acute" unicode="&#xb4;" 
d="M405 540h-70l103 274h134z" />
    <glyph glyph-name="paragraph" unicode="&#xb6;" 
d="M627 815v-872h-50v821h-90v-821h-50v510q-107 0 -157.5 51.5t-50.5 129.5q0 76 52.5 128.5t124.5 52.5h221z" />
    <glyph glyph-name="periodcentered" unicode="&#xb7;" 
d="M365 334v142h142v-142h-142z" />
    <glyph glyph-name="cedilla" unicode="&#xb8;" 
d="M411 124h66l-17 -62q87 -15 87 -82q0 -47 -37.5 -74t-100.5 -27q-21 0 -38.5 3t-29.5 8v61q13 -4 27.5 -6.5t33.5 -3.5q73 0 73 37q0 17 -23.5 26.5t-74.5 9.5z" />
    <glyph glyph-name="uni00B9" unicode="&#xb9;" 
d="M181 358v372l-106 -39v73l119 50h67v-456h-80z" />
    <glyph glyph-name="ordmasculine" unicode="&#xba;" 
d="M436 743q110 0 186 -75q71 -71 71 -183t-71 -184q-76 -74 -186 -74q-108 0 -184 74q-73 72 -73 184t73 183q76 75 184 75zM288 485q0 -70 43 -114q44 -45 105 -46q63 1 107 46q43 44 43 114t-43 114q-44 45 -107 46q-61 -1 -105 -46q-43 -44 -43 -114zM168 162h536v-98
h-536v98z" />
    <glyph glyph-name="onequarter" unicode="&#xbc;" 
d="M445 -124v96h-177v44l188 270h57v-250h51v-64h-51v-96h-68zM786 328h-700v61h700v-61zM445 172l-91 -136h91v136zM416 445v322l-98 -36v61l109 45h57v-392h-68z" />
    <glyph glyph-name="onehalf" unicode="&#xbd;" 
d="M786 328h-700v61h700v-61zM421 192q-39 0 -99 -31v67q77 36 121 31q49 -6 76 -34q29 -27 29 -78q0 -70 -69 -151l-51 -57h132v-64h-238v41l96 112q32 37 46.5 64t14.5 47q0 53 -58 53zM416 445v322l-98 -36v61l109 45h57v-392h-68z" />
    <glyph glyph-name="threequarters" unicode="&#xbe;" 
d="M786 328h-700v61h700v-61zM512 639q52 -23 52 -85q0 -60 -42 -92q-38 -27 -102 -28q-43 -1 -87 15v64q49 -16 84 -15q45 1 61.5 16.5t16.5 39.5t-20 36.5t-67 12.5h-31v64h19q88 0 88 50q0 42 -63 44q-36 1 -84 -19v61q51 24 90 23q28 -1 51.5 -8.5t38.5 -19.5
q17 -15 26 -33.5t9 -41.5q0 -59 -40 -84zM445 -124v96h-177v44l188 270h57v-250h51v-64h-51v-96h-68zM445 172l-91 -136h91v136z" />
    <glyph glyph-name="questiondown" unicode="&#xbf;" 
d="M499 757v-132h-126v132h126zM195 209q0 31 10.5 56.5t26.5 45.5t35 35.5t36 29.5q46 35 62 61t16 78v44h109v-69q0 -35 -10 -64.5t-29 -51.5q-18 -21 -38.5 -37.5t-38.5 -30.5q-31 -23 -45.5 -47t-14.5 -46q0 -80 105 -80q31 0 63.5 9t91.5 30v-93q-36 -18 -76 -27.5
t-82 -9.5q-106 0 -163.5 48t-57.5 119z" />
    <glyph glyph-name="AE" unicode="&#xc6;" 
d="M779 64h-242l-60 169h-258l-54 -169h-97l227 719h475v-88h-347l73 -218h256v-89h-223l85 -236h165v-88zM447 322l-99 326l-99 -326h198z" />
    <glyph glyph-name="Eth" unicode="&#xd0;" 
d="M739 406q0 -59 -14.5 -111t-43.5 -94q-32 -42 -76.5 -73t-102.5 -47q-34 -10 -73 -13.5t-88 -3.5h-158v291h-113v98h113v290h160q48 0 87 -4t73 -14q58 -17 103 -47t76 -71q29 -41 43 -91.5t14 -109.5zM633 406q0 90 -39 145t-114 78q-28 9 -63 12.5t-74 3.5h-52v-192
h105v-98h-105v-193h52q39 0 74 2.5t63 12.5q75 23 114 80.5t39 148.5z" />
    <glyph glyph-name="multiply" unicode="&#xd7;" 
d="M594 175l-158 158l-157 -157l-69 69l157 157l-157 157l69 70l157 -158l158 158l69 -69l-158 -158l158 -158z" />
    <glyph glyph-name="Oslash" unicode="&#xd8;" 
d="M647 403q0 64 -17 110q-8 20 -18 39l-308 -352q22 -19 50 -30q39 -16 82 -16q45 0 83 16t67 47q27 31 44 76.5t17 109.5zM571 605q-24 20 -52 33q-39 16 -83 16t-82.5 -16.5t-66.5 -47.5q-29 -32 -45 -77.5t-16 -109.5t17 -109q8 -23 18 -41zM755 403q0 -76 -22.5 -137.5
t-62.5 -108.5q-42 -47 -101 -73.5t-133 -26.5t-133 27q-37 16 -66 40l-95 -108l-48 46l96 109q-33 42 -51 95q-21 61 -21 137q0 77 22 138.5t63 108.5t100.5 73.5t132.5 26.5q75 0 134 -26q37 -17 68 -42l105 119l47 -47l-106 -120q32 -41 50 -92q21 -62 21 -139z" />
    <glyph glyph-name="Thorn" unicode="&#xde;" 
d="M440 469h-1q-57 0 -113 -56v-200q50 -63 116 -64q61 1 93 45t32 115t-32.5 115.5t-94.5 44.5zM318 109v-121h-100v778h108v-247q54 48 133 48q94 0 155 -67t61 -191t-61 -191t-155 -67q-75 0 -141 58z" />
    <glyph glyph-name="germandbls" unicode="&#xdf;" 
d="M697 237q-1 -78 -59.5 -129.5t-174.5 -51.5h-60v87h21q164 0 164 108q0 124 -165 124h-20v86h13q75 -1 112 27t37 91q0 42 -32 65.5t-95 23.5q-112 0 -112 -116v-506h-108v516q0 194 217 194h15q97 0 157.5 -48t60.5 -129q0 -108 -111 -154q140 -44 140 -188z" />
    <glyph glyph-name="ae" unicode="&#xe6;" 
d="M398 271q-42 19 -107 19q-39 0 -67.5 -19.5t-28.5 -55.5t16 -54q20 -20 67 -20q70 0 120 56v74zM454 126q-86 -75 -189 -75q-33 0 -68.5 11t-56.5 32q-20 21 -31 53t-11 69t12 68t34 51q23 21 62.5 32.5t75.5 11.5q57 0 116 -24v26q0 97 -103 97q-81 0 -161 -32v89
q84 35 169 35q81 0 134 -48q11 -10 19 -21q56 66 141 66q90 0 145 -70.5t55 -187.5v-49h-301q7 -48 38 -80q39 -39 92 -38q76 0 147 38v-93q-66 -36 -147 -36q-105 0 -167 69q-3 3 -5 6zM497 346h201q-6 54 -26 86q-29 44 -75 44q-48 0 -74 -44q-20 -32 -26 -86z" />
    <glyph glyph-name="eth" unicode="&#xf0;" 
d="M434 150q67 0 95.5 55.5t28.5 148.5q-29 14 -59 21t-60 7q-58 0 -87 -28t-29 -85q0 -53 30 -86t81 -33zM424 479q60 0 128 -32q-15 87 -51 137l-95 -50l-29 59l73 39q-33 19 -76 23q-58 5 -124 -10v98q65 16 134 11q97 -7 164 -70l97 52l29 -60l-82 -43q76 -110 76 -277
q0 -142 -64 -223.5t-168 -81.5q-94 0 -157 58.5t-63 166.5q0 94 61.5 148.5t146.5 54.5z" />
    <glyph glyph-name="divide" unicode="&#xf7;" 
d="M708 353h-542l-1 97h543v-97zM510 185q0 -30 -22 -52t-52 -22t-52 22t-22 52t22 52t52 22t52 -22t22 -52zM510 619q0 -30 -22 -52t-52 -22t-52 22t-22 52t22 52t52 22t52 -22t22 -52z" />
    <glyph glyph-name="oslash" unicode="&#xf8;" 
d="M436 567q97 0 168 -59l90 89l43 -44l-91 -89q47 -64 47 -155q0 -112 -71 -184q-76 -74 -186 -74q-89 0 -157 51l-78 -77l-43 43l77 76q-56 67 -56 165q0 112 73 183q76 75 184 75zM288 309q0 -52 24 -89l218 215q-40 33 -94 34q-61 -1 -105 -46q-43 -44 -43 -114z
M354 175q36 -25 82 -26q63 1 107 46q43 44 43 114q0 44 -17 78z" />
    <glyph glyph-name="thorn" unicode="&#xfe;" 
d="M440 469h-1q-57 0 -113 -56v-200q50 -63 116 -64q61 1 93 45t32 115t-32.5 115.5t-94.5 44.5zM318 109v-121h-100v778h108v-247q54 48 133 48q94 0 155 -67t61 -191t-61 -191t-155 -67q-75 0 -141 58z" />
    <glyph glyph-name="dcroat" unicode="&#x111;" 
d="M433 469q-62 0 -94 -44.5t-32 -115.5t32 -115t92 -45q66 1 115 64v200q-55 56 -112 56h-1zM414 51q-94 0 -155 67t-61 191t61 191t155 67q79 0 132 -48v105h-139v68h139v91h108v-91h110v-68h-110v-560h-92v55q-66 -68 -148 -68z" />
    <glyph glyph-name="Hbar" unicode="&#x126;" 
d="M93 653h80v90h108v-90h312v90h109v-90h90v-88h-90v-501h-109v298h-312v-298h-108v501h-80v88zM593 565h-312v-106h312v106z" />
    <glyph glyph-name="hbar" unicode="&#x127;" 
d="M218 766h107v-74h152v-68h-152v-121q58 64 140 64q74 0 130 -47.5t56 -155.5v-300h-107v299q0 105 -109 106q-67 0 -110 -85v-320h-107v560h-98v68h98v74z" />
    <glyph glyph-name="dotlessi" unicode="&#x131;" 
d="M382 64v490h107v-490h-107zM379 636v110h114v-110h-114z" />
    <glyph glyph-name="IJ" unicode="&#x132;" 
d="M191 64v679h108v-679h-108zM573 743h108v-488q0 -113 -49 -155t-140 -48q-53 -3 -105 4v96q50 -7 98 -3q32 3 60 22t28 68v504z" />
    <glyph glyph-name="ij" unicode="&#x133;" 
d="M262 64v490h107v-490h-107zM259 636v110h114v-110h-114zM503 636v110h115v-110h-115zM506 35v519h109v-537q-1 -80 -42 -119q-42 -40 -130 -40q-22 0 -40.5 3.5t-40.5 10.5v93q34 -8 46.5 -9.5t24.5 -1.5q40 0 58 15q15 14 15 66z" />
    <glyph glyph-name="kgreenlandic" unicode="&#x138;" 
d="M425 450q80 77 133 96q38 14 105 2v-70q-53 2 -79 -16q-34 -24 -60 -50l-97 -99l228 -249h-131l-199 216v-216h-107v490h107v-207z" />
    <glyph glyph-name="Ldot" unicode="&#x13f;" 
d="M316 743v-581h348v-98h-456v679h108zM654 434q0 -30 -21.5 -51.5t-51.5 -21.5t-51.5 21.5t-21.5 51.5t21.5 51.5t51.5 21.5t51.5 -21.5t21.5 -51.5z" />
    <glyph glyph-name="ldot" unicode="&#x140;" 
d="M382 64v702h107v-702h-107zM754 434q0 -30 -21.5 -51.5t-51.5 -21.5t-51.5 21.5t-21.5 51.5t21.5 51.5t51.5 21.5t51.5 -21.5t21.5 -51.5z" />
    <glyph glyph-name="Lslash" unicode="&#x141;" 
d="M316 743v-288l137 44l18 -65l-155 -50v-222h348v-98h-456v286l-96 -31l-18 64l114 37v323h108z" />
    <glyph glyph-name="lslash" unicode="&#x142;" 
d="M382 64v310l-110 -35l-18 64l128 41v322h107v-287l124 40l18 -65l-142 -45v-345h-107z" />
    <glyph glyph-name="napostrophe" unicode="&#x149;" 
d="M39 671q0 16 -10.5 23t-27.5 7v83q9 1 16 1q52 0 82 -23t30 -66q0 -25 -10 -50t-27 -48h-86q13 19 23 38.5t10 34.5zM218 362q0 102 57.5 153t160.5 51q102 0 159.5 -53.5t57.5 -149.5v-299h-108v295q0 109 -109 109q-110 0 -110 -109v-295h-108v298z" />
    <glyph glyph-name="Eng" unicode="&#x14a;" 
d="M743 252q0 -122 -68.5 -196.5t-161.5 -78.5v87q47 5 86.5 53.5t39.5 123.5q0 82 -40.5 135.5t-110.5 53.5q-66 0 -102 -54t-36 -122v-190h-95v650h95v-279q20 48 69.5 72t84.5 24q107 0 173 -78t66 -201z" />
    <glyph glyph-name="eng" unicode="&#x14b;" 
d="M653 33q-2 -61 -36 -102q-37 -44 -97 -44h-72v95h16q81 0 81 86v291q0 109 -109 109q-110 0 -110 -109v-295h-108v298q0 102 57.5 153t160.5 51q102 0 159.5 -53.5t57.5 -149.5v-330z" />
    <glyph glyph-name="OE" unicode="&#x152;" 
d="M532 162h308v-98h-509q-124 0 -200 95t-76 244t76 244.5t200 95.5h490v-98h-288l2 -2q35 -47 54 -105q12 -36 16 -79h191v-97h-190q-3 -51 -17 -93q-20 -58 -55 -105zM157 403q0 -114 51 -178t123 -64t123.5 64t51.5 178t-51.5 178t-123.5 64t-123 -64t-51 -178z" />
    <glyph glyph-name="oe" unicode="&#x153;" 
d="M278 567q95 0 156 -75l8 -10q5 8 12 16q56 69 143 69q90 0 145 -70.5t55 -187.5v-49h-301q7 -48 38 -80q39 -39 92 -38q76 0 147 38v-93q-66 -36 -147 -36q-105 0 -167 69q-8 9 -15 18q-5 -6 -10 -13q-61 -74 -156 -74q-90 0 -151 74q-58 72 -58 184t58 183q61 75 151 75
zM167 309q0 -70 33 -114q36 -45 81 -46q44 1 80 46q36 44 36 114t-36 114q-36 45 -81 46q-44 -1 -80 -46q-33 -44 -33 -114zM497 346h201q-6 54 -26 86q-29 44 -75 44q-48 0 -74 -44q-20 -32 -26 -86z" />
    <glyph glyph-name="Tbar" unicode="&#x166;" 
d="M490 64h-107v340h-165v78h165v163h-220v98h546v-98h-219v-163h164v-78h-164v-340z" />
    <glyph glyph-name="tbar" unicode="&#x167;" 
d="M436 223q0 -29 4 -40q3 -11 11 -19t21 -12.5t32 -4.5h76v-95h-92q-38 0 -68.5 10t-50.5 29q-20 18 -29 45q-10 26 -10 68v120h-110v68h110v72h-91v90h91v159h106v-159h135v-90h-135v-72h141v-68h-141v-101z" />
    <glyph glyph-name="caron" unicode="&#x2c7;" 
d="M436 614l-237 130l50 70l187 -106l182 107l48 -68z" />
    <glyph glyph-name="uni02D0" unicode="&#x2d0;" 
d="M436 487l-84 152h163zM352 181l84 150l79 -150h-163z" />
    <glyph glyph-name="breve" unicode="&#x2d8;" 
d="M436 756q52 0 74 58h105q-41 -138 -179 -138t-179 138h105q22 -58 74 -58z" />
    <glyph glyph-name="dotaccent" unicode="&#x2d9;" 
d="M515 734q0 -34 -23.5 -57.5t-55.5 -23.5t-55.5 23.5t-23.5 57.5t23.5 57.5t55.5 23.5t55.5 -23.5t23.5 -57.5z" />
    <glyph glyph-name="ring" unicode="&#x2da;" 
d="M554 718q0 -49 -34 -83.5t-84 -34.5q-49 0 -83.5 34.5t-34.5 83.5q0 50 34.5 84t83.5 34q50 0 84 -34t34 -84zM490 718q0 23 -16 39.5t-38 16.5t-38 -16.5t-16 -39.5q0 -22 16 -39t38 -17t38 17t16 39z" />
    <glyph glyph-name="ogonek" unicode="&#x2db;" 
d="M476 -10q0 -20 15.5 -32t35.5 -13q21 -1 42.5 7.5t35.5 21.5l26 -23q-20 -30 -62 -50.5t-83 -19.5q-46 1 -74.5 27.5t-26.5 62.5q2 22 14 45t25 34h84q-13 -13 -22.5 -29t-9.5 -31z" />
    <glyph glyph-name="hungarumlaut" unicode="&#x2dd;" 
d="M305 540h-71l103 274h135zM511 540h-71l103 274h135z" />
    <glyph glyph-name="Alpha" unicode="&#x391;" 
d="M486 756l273 -692h-104l-79 199h-280l-79 -199h-104l273 692h100zM436 620l-102 -259h204z" />
    <glyph glyph-name="Beta" unicode="&#x392;" 
d="M218 743h173q78 0 131 -11q51 -10 94 -50q25 -26 38 -58.5t13 -71.5q0 -88 -77 -132q104 -40 104 -158q0 -40 -15.5 -76t-43.5 -63q-27 -27 -72 -43t-172 -16h-173v679zM326 362v-200h122q48 0 71 7.5t34 17.5q35 29 35 75t-35 75q-11 10 -34 17.5t-71 7.5h-122zM403 459
q54 0 89 6q67 21 67 87q0 67 -67 88q-35 5 -89 5h-77v-186h77z" />
    <glyph glyph-name="Gamma" unicode="&#x393;" 
d="M218 64v679h436v-98h-328v-581h-108z" />
    <glyph glyph-name="uni0394" unicode="&#x394;" 
d="M437 620l-159 -458h315zM154 64v98l235 594h99l232 -590v-102h-566z" />
    <glyph glyph-name="Epsilon" unicode="&#x395;" 
d="M327 162h334v-98h-442v679h423v-98h-315v-186h280v-97h-280v-200z" />
    <glyph glyph-name="Zeta" unicode="&#x396;" 
d="M689 743v-92l-363 -489h368v-98h-517v66l387 515h-378v98h503z" />
    <glyph glyph-name="Eta" unicode="&#x397;" 
d="M281 459h312v284h109v-679h-109v298h-312v-298h-108v679h108v-284z" />
    <glyph glyph-name="Theta" unicode="&#x398;" 
d="M290 454h293v-100h-293v100zM647 403q0 64 -17 109.5t-44 77.5q-29 31 -67.5 47.5t-82.5 16.5t-82.5 -16.5t-66.5 -47.5q-29 -32 -45 -77.5t-16 -109.5t16.5 -109.5t44.5 -76.5t67 -47t82 -16q45 0 83 16t67 47q27 31 44 76.5t17 109.5zM755 403q0 -76 -22.5 -137.5
t-62.5 -108.5q-42 -47 -101 -73.5t-133 -26.5t-133.5 26.5t-100.5 73.5q-42 47 -63 108.5t-21 137.5q0 77 22 138.5t63 108.5t100.5 73.5t132.5 26.5q75 0 134 -26.5t101 -73.5q41 -47 62.5 -108.5t21.5 -138.5z" />
    <glyph glyph-name="Iota" unicode="&#x399;" 
d="M383 64v679h108v-679h-108z" />
    <glyph glyph-name="Kappa" unicode="&#x39a;" 
d="M219 64v679h108v-310l275 310h129l-300 -336l320 -343h-130l-294 304v-304h-108z" />
    <glyph glyph-name="Lambda" unicode="&#x39b;" 
d="M134 64l257 679h90l257 -679h-109l-193 528l-195 -528h-107z" />
    <glyph glyph-name="Mu" unicode="&#x39c;" 
d="M472 64h-73l-203 512v-512h-102v679h132l210 -513l209 513h132v-679h-103v512z" />
    <glyph glyph-name="Nu" unicode="&#x39d;" 
d="M254 743l362 -491v491h108v-679h-89l-361 489v-489h-108v679h88z" />
    <glyph glyph-name="Xi" unicode="&#x39e;" 
d="M218 452h436v-97h-436v97zM178 162h516v-98h-516v98zM178 743h516v-98h-516v98z" />
    <glyph glyph-name="Omicron" unicode="&#x39f;" 
d="M647 403q0 64 -17 109.5t-44 77.5q-29 31 -67.5 47.5t-82.5 16.5t-82.5 -16.5t-66.5 -47.5q-29 -32 -45 -77.5t-16 -109.5t16.5 -109.5t44.5 -76.5t67 -47t82 -16q45 0 83 16t67 47q27 31 44 76.5t17 109.5zM755 403q0 -76 -22.5 -137.5t-62.5 -108.5q-42 -47 -101 -73.5
t-133 -26.5t-133.5 26.5t-100.5 73.5q-42 47 -63 108.5t-21 137.5q0 77 22 138.5t63 108.5t100.5 73.5t132.5 26.5q75 0 134 -26.5t101 -73.5q41 -47 62.5 -108.5t21.5 -138.5z" />
    <glyph glyph-name="Pi" unicode="&#x3a0;" 
d="M710 64h-108v581h-315v-581h-108v679h531v-679z" />
    <glyph glyph-name="Rho" unicode="&#x3a1;" 
d="M218 743h208q108 0 160 -25q37 -15 65 -45q53 -53 53 -145t-53 -145q-28 -30 -65 -45q-52 -24 -160 -24h-100v-250h-108v679zM326 412h127q69 0 107 34q35 32 35 82q0 51 -35 83q-38 34 -107 34h-127v-233z" />
    <glyph glyph-name="Sigma" unicode="&#x3a3;" 
d="M508 404l-201 -242h356v-98h-510v77l226 263l-203 261v78h484v-98h-326z" />
    <glyph glyph-name="Tau" unicode="&#x3a4;" 
d="M490 64h-107v581h-220v98h546v-98h-219v-581z" />
    <glyph glyph-name="Upsilon" unicode="&#x3a5;" 
d="M381 360l-247 383h119l183 -290l180 290h121l-247 -384v-295h-109v296z" />
    <glyph glyph-name="Phi" unicode="&#x3a6;" 
d="M383 14v113q-107 13 -178 79q-90 81 -90 199t90 200q71 65 178 78v100h108v-100q107 -13 179 -78q89 -82 89 -200t-89 -199q-72 -66 -179 -79v-113h-108zM383 227v356q-55 -11 -97 -45q-63 -51 -63 -133t63 -132q42 -35 97 -46zM491 583v-356q55 11 98 46q62 50 62 132
t-62 133q-43 34 -98 45z" />
    <glyph glyph-name="Chi" unicode="&#x3a7;" 
d="M435 330l-185 -266h-125l243 346l-228 333h121l175 -255l174 255h121l-230 -335l241 -344h-124z" />
    <glyph glyph-name="Psi" unicode="&#x3a8;" 
d="M383 743h108v-326q60 19 99 84q51 83 51 242h108q0 -205 -80 -313q-71 -96 -178 -114v-252h-108v252q-107 18 -178 114q-80 108 -80 313h108q0 -159 51 -242q39 -65 99 -84v326z" />
    <glyph glyph-name="uni03A9" unicode="&#x3a9;" 
d="M117 162h167q-166 104 -166 275q0 135 90 224t228 89t228 -89t90 -224q0 -171 -166 -275h167v-98h-262v120q153 110 153 253q0 103 -59.5 160t-150.5 57t-150.5 -57t-59.5 -160q0 -143 153 -253v-120h-262v98z" />
    <glyph glyph-name="alpha" unicode="&#x3b1;" 
d="M503 315q-11 50 -38.5 102.5t-73.5 52.5q-47 0 -78 -49t-31 -119q0 -66 30.5 -110t73.5 -44q40 0 72.5 46t44.5 121zM174 312q0 112 55.5 183.5t149.5 71.5q110 0 158 -154l39 129h101l-99 -250q7 -60 32 -100q30 -47 91 -28v-95q-82 -22 -125 25q-36 40 -44 99
q-51 -142 -165 -142q-82 0 -137.5 67.5t-55.5 179.5v14z" />
    <glyph glyph-name="beta" unicode="&#x3b2;" 
d="M634 567q0 -101 -92 -144q64 -20 96.5 -60t32.5 -106q0 -89 -55.5 -146t-154.5 -57q-73 0 -134 50v-226h-106v637q0 154 86 203q25 14 55 21.5t63 7.5q90 0 149.5 -48t59.5 -132zM392 458h31q59 0 79 37q18 33 18 72q0 45 -29 70t-65 25q-96 -2 -96 -122v-355
q24 -24 51 -34t58 -10q57 0 88 31t30 82q0 120 -135 120h-30v84z" />
    <glyph glyph-name="gamma" unicode="&#x3b3;" 
d="M474 64h-125l32 205l10 61q0 59 -24.5 100t-61.5 41q-43 0 -79 -22l14 99q44 19 87 19q114 0 139 -153q25 81 88 120q50 33 113 33q54 0 107 -27l-20 -94q-41 25 -83 25q-105 0 -154 -144q-5 -20 -9 -44z" />
    <glyph glyph-name="delta" unicode="&#x3b4;" 
d="M556 270q0 35 -19 66t-69 85q-85 -41 -116.5 -73.5t-31.5 -83.5q0 -48 33.5 -83t81.5 -35q121 0 121 124v0zM410 629q0 -13 12.5 -28t33.5 -32q20 -17 45.5 -37t51.5 -43q70 -67 96.5 -117t26.5 -102q0 -50 -18 -88t-50 -68t-77 -46.5t-100 -16.5q-110 0 -170 62t-60 149
q0 65 45 122.5t141 102.5v2q-93 69 -93 146q0 50 37 84t117 34q108 0 216 -42v-99q-102 48 -205 48q-28 0 -38.5 -9.5t-10.5 -21.5v0z" />
    <glyph glyph-name="epsilon" unicode="&#x3b5;" 
d="M549 274h-105q-98 0 -98 -64q0 -27 23.5 -44.5t72.5 -17.5q48 0 96 11t87 30v-99q-97 -40 -195 -40q-52 0 -90.5 10.5t-63.5 30.5q-26 19 -38 48t-12 60q0 45 24 78.5t63 45.5q-32 9 -51.5 37.5t-19.5 67.5q0 31 14 57t41 44q26 18 64 29t84 11q39 0 82 -6.5t82 -16.5
v-96q-46 11 -84 16t-67 5q-47 0 -71.5 -14.5t-24.5 -39.5q0 -31 22 -41.5t66 -10.5h99v-91z" />
    <glyph glyph-name="zeta" unicode="&#x3b6;" 
d="M615 679q-53 -33 -100.5 -73.5t-83.5 -85.5q-37 -45 -58.5 -95t-21.5 -97q0 -31 10.5 -52t28.5 -33q16 -13 38.5 -20.5t47.5 -14.5q27 -7 53 -15t47 -21q22 -14 34.5 -35.5t12.5 -54.5q0 -32 -15 -73.5t-42 -84.5h-119q33 47 46 79t13 51t-11 29.5t-30 16.5q-19 7 -42 13
t-51 14q-62 16 -98.5 63t-36.5 125q0 53 17.5 102.5t50.5 94.5q31 44 77 83q45 37 93 67q-82 -16 -191 -22v96q64 0 161 4.5t170 16.5v-78z" />
    <glyph glyph-name="eta" unicode="&#x3b7;" 
d="M545 359q0 109 -109 109q-110 0 -110 -109v-295h-108v298q0 102 57.5 153t160.5 51q102 0 159.5 -53.5t57.5 -149.5v-299h-1l1 -190h-108v485z" />
    <glyph glyph-name="theta" unicode="&#x3b8;" 
d="M302 355q6 -85 34 -135q36 -65 101 -65q64 0 101 65q28 50 34 135h-270zM572 453q-6 83 -34 134q-37 64 -101 64q-65 0 -101 -64q-28 -51 -34 -134h270zM192 403q0 146 65 246t180 100t180 -100t65 -246t-65 -246t-180 -100t-180 100t-65 246z" />
    <glyph glyph-name="iota" unicode="&#x3b9;" 
d="M436 227q0 -52 15 -66q18 -15 58 -15q12 0 24.5 1.5t46.5 9.5v-93q-22 -7 -40.5 -10.5t-40.5 -3.5q-88 0 -130 40q-41 39 -42 119v345h109v-327z" />
    <glyph glyph-name="kappa" unicode="&#x3ba;" 
d="M425 450q80 77 133 96q38 14 105 2v-70q-53 2 -79 -16q-34 -24 -60 -50l-97 -99l228 -249h-131l-199 216v-216h-107v490h107v-207z" />
    <glyph glyph-name="lambda" unicode="&#x3bb;" 
d="M338 753q39 0 68 -12.5t52 -38.5q23 -27 42.5 -67t40.5 -96l186 -475h-117l-114 306l-143 -306h-119l201 430q-29 86 -47.5 114t-35.5 39q-17 10 -41 10q-11 0 -23.5 -2t-23.5 -6v92q16 6 34.5 9t39.5 3z" />
    <glyph glyph-name="uni03BC" unicode="&#x3bc;" 
d="M219 554h107v-295q0 -109 110 -109q108 0 108 109v295h108v-299q0 -96 -58 -149.5t-160 -53.5q-63 0 -108 19v-198h-107v681z" />
    <glyph glyph-name="nu" unicode="&#x3bd;" 
d="M457 64h-73l-168 490h105l115 -375q138 169 138 375h93q0 -240 -210 -490z" />
    <glyph glyph-name="xi" unicode="&#x3be;" 
d="M601 382h-18q-51 0 -94.5 -8t-74.5 -23q-31 -14 -48.5 -35t-17.5 -50q0 -22 12 -35.5t30 -20.5q18 -8 45.5 -14t54.5 -11q28 -5 55.5 -12.5t49.5 -20.5q21 -14 34.5 -35.5t13.5 -54.5q0 -76 -62 -152h-120q23 33 41.5 69.5t18.5 61.5q0 20 -12 31t-31 18q-19 6 -43 10.5
t-52 9.5q-74 14 -114 45t-40 94q0 114 149 168q-53 10 -80 34t-27 62q0 52 44.5 90.5t135.5 68.5v2q-120 -17 -182 -21v86q54 0 153.5 2t208.5 8v-78q-54 -12 -99 -27t-76 -31q-31 -17 -48 -37t-17 -44q0 -19 7.5 -31.5t25.5 -21.5q17 -8 46 -11t71 -3h60v-83z" />
    <glyph glyph-name="omicron" unicode="&#x3bf;" 
d="M436 567q110 0 186 -75q71 -71 71 -183t-71 -184q-76 -74 -186 -74q-108 0 -184 74q-73 72 -73 184t73 183q76 75 184 75zM288 309q0 -70 43 -114q44 -45 105 -46q63 1 107 46q43 44 43 114t-43 114q-44 45 -107 46q-61 -1 -105 -46q-43 -44 -43 -114z" />
    <glyph glyph-name="pi" unicode="&#x3c0;" 
d="M337 456v-392h-107v392h-110v98h633v-98h-110v-284q0 -19 9 -23t28 -4q16 0 40 3v-92q-18 -3 -37.5 -5t-31.5 -2q-115 0 -115 123v284h-199z" />
    <glyph glyph-name="rho" unicode="&#x3c1;" 
d="M440 149q62 0 94.5 44.5t32.5 115.5t-32 115t-93 45h-2h2h1h-1q-66 -1 -116 -64v-200q56 -56 113 -56h1zM459 567q94 0 155 -67t61 -191t-61 -191t-155 -67q-79 0 -133 48v-229h-108v684h100v-45q66 58 141 58z" />
    <glyph glyph-name="sigma" unicode="&#x3c3;" 
d="M436 567q43 0 81 -11q51 36 150 36h82v-92h-57q-37 0 -72 -6l2 -2q71 -71 71 -183t-71 -184q-76 -74 -186 -74q-108 0 -184 74q-73 72 -73 184t73 183q76 75 184 75zM288 309q0 -70 43 -114q44 -45 105 -46q63 1 107 46q43 44 43 114t-43 114q-44 45 -107 46
q-61 -1 -105 -46q-43 -44 -43 -114z" />
    <glyph glyph-name="tau" unicode="&#x3c4;" 
d="M218 554h436v-98h-165v-276q0 -19 9 -23t28 -4q16 0 40 3v-92q-18 -3 -37.5 -5t-31.5 -2q-115 0 -115 123v276h-164v98z" />
    <glyph glyph-name="upsilon" unicode="&#x3c5;" 
d="M253 430q0 34 -30 34q-12 0 -25 -5v90q27 9 64 9q96 0 96 -107l-7 -166q0 -59 24.5 -99t78.5 -40q58 0 88 49t30 127q0 116 -53 232h107q54 -117 54 -235q0 -126 -61.5 -197t-165.5 -71q-98 0 -154 54.5t-56 170.5z" />
    <glyph glyph-name="phi" unicode="&#x3c6;" 
d="M490 743v-180q79 -14 138 -70q77 -74 77 -184t-77 -184q-59 -56 -138 -70v-159h-108v160q-78 14 -135 69q-78 74 -78 184t78 184q58 56 136 69v181h107zM490 462v-306q38 12 64 42q42 49 42 111t-42 111q-26 30 -64 42zM382 157l1 304q-38 -11 -63 -41q-42 -49 -42 -111
t42 -111q25 -29 62 -41z" />
    <glyph glyph-name="chi" unicode="&#x3c7;" 
d="M436 393l116 161h122l-174 -243l182 -247h-122l-125 168l-122 -168h-122l183 249l-176 241h122z" />
    <glyph glyph-name="psi" unicode="&#x3c8;" 
d="M383 743h108v-574q149 48 150 386h108q-1 -448 -258 -488v-186h-108v186q-259 40 -258 488h108q-1 -339 150 -386v574z" />
    <glyph glyph-name="omega" unicode="&#x3c9;" 
d="M436 158q-32 -102 -150 -102q-90 0 -140 65q-46 60 -46 175q0 133 72 265h113q-75 -130 -75 -260q0 -82 27.5 -114t58.5 -32q86 0 85 161v105h110v-105q-1 -161 85 -161q31 0 58.5 32t27.5 114q0 130 -75 260h113q72 -132 72 -265q0 -115 -46 -175q-50 -65 -140 -65
q-118 0 -150 102z" />
    <glyph glyph-name="uni0401" unicode="&#x401;" 
d="M301 815h79v-72h-79v72zM502 815h79v-72h-79v72zM327 110h334v-98h-442v679h423v-98h-315v-186h280v-97h-280v-200z" />
    <glyph glyph-name="uni0410" unicode="&#x410;" 
d="M233 64h-117l273 692h99l272 -692h-118l-78 199h-252zM437 620l-88 -259h178z" />
    <glyph glyph-name="uni0411" unicode="&#x411;" 
d="M326 362v-200h122q48 0 71 7.5t34 17.5q35 29 35 75t-35 75q-11 10 -34 17.5t-71 7.5h-122zM391 460q127 0 172 -16t72 -43q28 -27 43.5 -63t15.5 -76t-15.5 -76t-43.5 -63q-27 -27 -72 -43t-172 -16h-173v679h436v-98h-328v-185h65z" />
    <glyph glyph-name="uni0412" unicode="&#x412;" 
d="M218 743h173q78 0 131 -11q51 -10 94 -50q25 -26 38 -58.5t13 -71.5q0 -88 -77 -132q104 -40 104 -158q0 -40 -15.5 -76t-43.5 -63q-27 -27 -72 -43t-172 -16h-173v679zM326 362v-200h122q48 0 71 7.5t34 17.5q35 29 35 75t-35 75q-11 10 -34 17.5t-71 7.5h-122zM403 459
q54 0 89 6q67 21 67 87q0 67 -67 88q-35 5 -89 5h-77v-186h77z" />
    <glyph glyph-name="uni0413" unicode="&#x413;" 
d="M218 64v679h442v-98h-334v-581h-108z" />
    <glyph glyph-name="uni0414" unicode="&#x414;" 
d="M161 162q144 262 144 581h349v-581h77v-289h-108v191h-444v-191h-108v289h90zM399 643q0 -216 -124 -480v-1h271v481h-147z" />
    <glyph glyph-name="uni0415" unicode="&#x415;" 
d="M327 162h334v-98h-442v679h423v-98h-315v-186h280v-97h-280v-200z" />
    <glyph glyph-name="uni0416" unicode="&#x416;" 
d="M382 433v310h108v-310l205 310h129l-230 -336l250 -343h-130l-224 304v-304h-108v304l-224 -304h-130l250 343l-230 336h129z" />
    <glyph glyph-name="uni0417" unicode="&#x417;" 
d="M226 711q90 43 194 43q109 0 172 -53q59 -49 59 -142q0 -99 -94 -143q51 -14 82 -50.5t31 -93.5q0 -42 -16.5 -84.5t-49.5 -70.5q-34 -29 -85 -45t-119 -16q-56 0 -103.5 12t-83.5 31v101q29 -22 75 -32.5t104 -10.5q100 0 135 36.5t35 80.5q0 17 -7.5 33t-20.5 29
q-14 12 -39 19.5t-59 7.5h-107v100h94q120 0 120 91q0 42 -32.5 70.5t-107.5 28.5q-44 0 -95.5 -11t-81.5 -29v98z" />
    <glyph glyph-name="uni0418" unicode="&#x418;" 
d="M633 743h91v-679h-108v493l-358 -493h-92v679h108v-495z" />
    <glyph glyph-name="uni0419" unicode="&#x419;" 
d="M633 633h91v-679h-108v493l-358 -493h-92v679h108v-495zM436 756q52 0 74 58h105q-41 -138 -179 -138t-179 138h105q22 -58 74 -58z" />
    <glyph glyph-name="uni041A" unicode="&#x41a;" 
d="M219 64v679h108v-310l275 310h129l-300 -336l320 -343h-130l-294 304v-304h-108z" />
    <glyph glyph-name="uni041B" unicode="&#x41b;" 
d="M458 645q-16 -116 -33 -216.5t-36 -162.5t-40.5 -102.5t-46.5 -63.5q-25 -24 -54 -33t-64 -9q-27 0 -50 6v106q18 -4 35 -4q19 0 34 6t29 23q14 16 29.5 50.5t32.5 96.5q16 61 32.5 165.5t33.5 235.5h349v-679h-108v581h-143z" />
    <glyph glyph-name="uni041C" unicode="&#x41c;" 
d="M465 64h-57l-211 518v-518h-102v679h137l204 -499l203 499h139v-679h-103v512z" />
    <glyph glyph-name="uni041D" unicode="&#x41d;" 
d="M280 459h312v284h109v-679h-109v298h-312v-298h-108v679h108v-284z" />
    <glyph glyph-name="uni041E" unicode="&#x41e;" 
d="M647 403q0 64 -17 109.5t-44 77.5q-29 31 -67.5 47.5t-82.5 16.5t-82.5 -16.5t-66.5 -47.5q-29 -32 -45 -77.5t-16 -109.5t16.5 -109.5t44.5 -76.5t67 -47t82 -16q45 0 83 16t67 47q27 31 44 76.5t17 109.5zM755 403q0 -76 -22.5 -137.5t-62.5 -108.5q-42 -47 -101 -73.5
t-133 -26.5t-133.5 26.5t-100.5 73.5q-42 47 -63 108.5t-21 137.5q0 77 22 138.5t63 108.5t100.5 73.5t132.5 26.5q75 0 134 -26.5t101 -73.5q41 -47 62.5 -108.5t21.5 -138.5z" />
    <glyph glyph-name="uni041F" unicode="&#x41f;" 
d="M710 64h-108v581h-315v-581h-108v679h531v-679z" />
    <glyph glyph-name="uni0420" unicode="&#x420;" 
d="M218 743h208q108 0 160 -25q37 -15 65 -45q53 -53 53 -145t-53 -145q-28 -30 -65 -45q-52 -24 -160 -24h-100v-250h-108v679zM326 412h127q69 0 107 34q35 32 35 82q0 51 -35 83q-38 34 -107 34h-127v-233z" />
    <glyph glyph-name="uni0421" unicode="&#x421;" 
d="M513 659q-52 0 -98 -17t-78 -48q-33 -33 -52 -81.5t-19 -114.5t17.5 -113t50.5 -78q31 -30 77.5 -44.5t104.5 -14.5q77 0 153 28v-98q-39 -15 -78.5 -21t-81.5 -6q-84 0 -149.5 23.5t-110.5 68.5q-46 44 -68.5 108.5t-22.5 143.5q0 78 24.5 144.5t69.5 114.5t110.5 75
t146.5 27q77 0 154 -29v-95q-49 14 -82 20.5t-68 6.5z" />
    <glyph glyph-name="uni0422" unicode="&#x422;" 
d="M490 64h-107v581h-220v98h546v-98h-219v-581z" />
    <glyph glyph-name="uni0423" unicode="&#x423;" 
d="M381 360l-247 383h119l183 -290l180 290h121l-247 -384v-295h-109v296z" />
    <glyph glyph-name="uni0424" unicode="&#x424;" 
d="M383 64v63q-107 13 -178 79q-90 81 -90 199t90 200q71 65 178 78v60h108v-60q107 -13 179 -78q89 -82 89 -200t-89 -199q-72 -66 -179 -79v-63h-108zM383 227v356q-55 -11 -97 -45q-63 -51 -63 -133t63 -132q42 -35 97 -46zM491 583v-356q55 11 98 46q62 50 62 132
t-62 133q-43 34 -98 45z" />
    <glyph glyph-name="uni0425" unicode="&#x425;" 
d="M435 330l-185 -266h-125l243 346l-228 333h121l175 -255l174 255h121l-230 -335l241 -344h-124z" />
    <glyph glyph-name="uni0426" unicode="&#x426;" 
d="M684 65h-505v679h108v-581h305v581h108v-581h92v-288h-108v190z" />
    <glyph glyph-name="uni0427" unicode="&#x427;" 
d="M652 41h-107v263q-58 -64 -140 -64q-74 0 -130 47.5t-56 155.5v300h107v-299q0 -105 109 -106q67 0 110 85v320h107v-702z" />
    <glyph glyph-name="uni0428" unicode="&#x428;" 
d="M772 64h-673v679h109v-581h174v581h108v-581h173v581h109v-679z" />
    <glyph glyph-name="uni0429" unicode="&#x429;" 
d="M714 64h-615v679h109v-581h174v581h108v-581h173v581h109v-580h50v-288h-108v189z" />
    <glyph glyph-name="uni042A" unicode="&#x42a;" 
d="M439 469h-1q-57 0 -113 -56v-200q50 -63 116 -64q60 1 92 45t32 115t-32 115.5t-94 44.5zM325 743v-224q54 48 133 48q94 0 155 -67t61 -191t-61 -191t-155 -67q-82 0 -148 68v-55h-92v581h-117v98h224z" />
    <glyph glyph-name="uni042B" unicode="&#x42b;" 
d="M639 64v679h109v-679h-109zM332 469h-1q-57 0 -113 -56v-200q50 -63 116 -64h1h-3h2q60 1 92 45t32 115t-32 115.5t-94 44.5zM351 51q-82 0 -148 68v-55h-92v679h107v-224q54 48 133 48q94 0 155 -67t61 -191t-61 -191t-155 -67z" />
    <glyph glyph-name="uni042C" unicode="&#x42c;" 
d="M439 469h-1q-57 0 -113 -56v-200q50 -63 116 -64h1h-3h2q60 1 92 45t32 115t-32 115.5t-94 44.5zM458 51q-82 0 -148 68v-55h-92v702h107v-247q54 48 133 48q94 0 155 -67t61 -191t-61 -191t-155 -67z" />
    <glyph glyph-name="uni042D" unicode="&#x42d;" 
d="M312 643q-68 0 -130 -22v101q64 22 141 22q81 0 142.5 -24.5t104.5 -68.5q43 -45 66.5 -106.5t23.5 -136.5q0 -77 -21.5 -140t-64.5 -108t-108.5 -69.5t-151.5 -24.5q-39 0 -74 6t-66 14v103q28 -12 65 -17t72 -5q55 0 97.5 12t72.5 37q29 24 46 61t21 86h-330v100h326
q-7 44 -26.5 78t-48.5 57q-29 22 -68.5 33.5t-88.5 11.5z" />
    <glyph glyph-name="uni042E" unicode="&#x42e;" 
d="M720 403q0 64 -15.5 109.5t-39.5 77.5q-26 31 -60.5 47.5t-68.5 16.5q-35 0 -69 -16.5t-60 -47.5q-26 -32 -39.5 -77.5t-13.5 -109.5t14 -109.5t39 -76.5q26 -31 60.5 -47t68.5 -16q35 0 69 16t60 47q24 31 39.5 76.5t15.5 109.5zM61 743h109v-290h76q5 48 18 89
q20 61 57 108t91 73.5t124 26.5q71 0 124.5 -26.5t91.5 -73.5q37 -47 57 -108.5t20 -138.5q0 -76 -21 -137.5t-57 -108.5q-38 -47 -91.5 -73.5t-123.5 -26.5q-71 0 -125 26.5t-91 73.5q-38 47 -57 109q-13 41 -17 89h-76v-291h-109v679z" />
    <glyph glyph-name="uni042F" unicode="&#x42f;" 
d="M654 743v-679h-108v284h-59l-211 -284h-120l211 290q-20 4 -38 11q-46 16 -73 43q-26 27 -42.5 62.5t-16.5 74.5q0 38 16.5 74.5t42.5 63.5q27 26 73 43t118 17h207zM546 446v199h-112q-67 0 -97.5 -29t-30.5 -70t30.5 -70.5t97.5 -29.5h112z" />
    <glyph glyph-name="uni0430" unicode="&#x430;" 
d="M538 275q-34 9 -62.5 12t-57.5 2q-39 -2 -60 -17q-27 -20 -28 -56q0 -36 20 -53t53 -17q79 0 135 58v71zM546 109q-70 -58 -157 -58q-78 0 -122.5 47.5t-44.5 117.5q0 73 55 121q51 44 131 44q74 0 130 -18v20q0 83 -116 88q-71 3 -142 -13v94q74 17 151 15
q92 -2 153 -50q62 -50 62 -150v-303h-100v45z" />
    <glyph glyph-name="uni0431" unicode="&#x431;" 
d="M444 150q54 0 83 32q31 34 31 87q0 57 -30.5 85t-88.5 28q-30 0 -61.5 -7t-60.5 -21q0 -93 30 -148.5t97 -55.5zM501 762q77 0 153 16v-102q-72 -17 -149 -19q-142 -3 -184 -210q68 32 133 32q90 0 153 -55q60 -54 60 -148q0 -108 -62 -166q-64 -59 -163 -59
q-109 0 -172 82q-65 81 -65 223q0 168 82 291q79 107 214 115z" />
    <glyph glyph-name="uni0432" unicode="&#x432;" 
d="M237 554h163q113 0 159.5 -40.5t46.5 -96.5q0 -61 -58 -96q77 -28 77 -115q0 -61 -49 -101.5t-178 -40.5h-161v490zM341 272v-117h104q25 0 38.5 4.5t19.5 9.5q19 17 19 44t-19 44q-6 7 -19.5 11t-38.5 4h-104zM415 356q30 0 51 4q36 11 36 50q0 38 -36 49q-20 4 -50 4
h-75v-107h74z" />
    <glyph glyph-name="uni0433" unicode="&#x433;" 
d="M594 456h-208v-392h-108v490h316v-98z" />
    <glyph glyph-name="uni0434" unicode="&#x434;" 
d="M250 162q68 141 68 392h285v-392h59v-200h-108v102h-242v-102h-108v200h46zM419 484q0 -161 -59 -322h135v322h-76z" />
    <glyph glyph-name="uni0435" unicode="&#x435;" 
d="M324 348h225q-3 57 -30.5 90.5t-82.5 33.5q-52 0 -80.5 -33.5t-31.5 -90.5zM323 258q7 -51 42.5 -80.5t96.5 -31.5q75 -4 170 18v-93q-85 -24 -170 -21q-114 1 -180.5 67t-66.5 192q0 119 63.5 188.5t157.5 69.5q97 0 159 -70.5t62 -187.5v-51h-334z" />
    <glyph glyph-name="uni0436" unicode="&#x436;" 
d="M382 347v207h107v-207l200 207h130l-228 -241l228 -249h-131l-199 216v-216h-107v216l-199 -216h-131l228 249l-228 241h130z" />
    <glyph glyph-name="uni0437" unicode="&#x437;" 
d="M272 528q36 15 78 22.5t84 7.5q47 0 83.5 -10.5t61.5 -28.5t38.5 -43t13.5 -56q0 -37 -19 -62.5t-45 -38.5v-2q16 -6 30 -15t24 -22t16.5 -29t6.5 -37q0 -31 -13 -59t-39 -49q-27 -21 -69 -33t-100 -12q-48 0 -88 7.5t-71 21.5v93q38 -16 75 -22.5t71 -6.5q32 0 54 4
t35 13q13 8 18.5 19.5t5.5 25.5q0 39 -41 48q-16 4 -47 4h-110v90h115q24 0 36 4q18 6 25.5 19.5t7.5 28.5q0 26 -22 40.5t-67 14.5q-37 0 -76 -8t-72 -19v90z" />
    <glyph glyph-name="uni0438" unicode="&#x438;" 
d="M654 554v-490h-108v328l-222 -328h-106v490h108v-321l221 321h107z" />
    <glyph glyph-name="uni0439" unicode="&#x439;" 
d="M654 554v-490h-108v328l-222 -328h-106v490h108v-321l221 321h107zM436 685q52 0 74 58h105q-41 -138 -179 -138t-179 138h105q22 -58 74 -58z" />
    <glyph glyph-name="uni043A" unicode="&#x43a;" 
d="M525 554h130l-228 -241l228 -249h-131l-199 216v-216h-107v490h107v-207z" />
    <glyph glyph-name="uni043B" unicode="&#x43b;" 
d="M654 551v-487h-108v389h-92q-13 -93 -28.5 -161t-33.5 -111t-37.5 -67.5t-39.5 -35.5t-40 -14.5t-42 -3.5q-9 0 -19 1t-19 3v102q14 -2 26 -2q17 0 29.5 4t23.5 16t22 37t22 67t22 108.5t23 154.5h291z" />
    <glyph glyph-name="uni043C" unicode="&#x43c;" 
d="M418 207l110 347h153v-490h-99v371l-129 -371h-73l-128 370v-370h-99v490h152l110 -347h3z" />
    <glyph glyph-name="uni043D" unicode="&#x43d;" 
d="M310 360h252v194h109v-490h-109v199h-252v-199h-108v490h108v-194z" />
    <glyph glyph-name="uni043E" unicode="&#x43e;" 
d="M436 567q110 0 186 -75q71 -71 71 -183t-71 -184q-76 -74 -186 -74q-108 0 -184 74q-73 72 -73 184t73 183q76 75 184 75zM288 309q0 -70 43 -114q44 -45 105 -46q63 1 107 46q43 44 43 114t-43 114q-44 45 -107 46q-61 -1 -105 -46q-43 -44 -43 -114z" />
    <glyph glyph-name="uni043F" unicode="&#x43f;" 
d="M326 456v-392h-108v490h436v-490h-108v392h-220z" />
    <glyph glyph-name="uni0440" unicode="&#x440;" 
d="M440 149q62 0 94.5 44.5t32.5 115.5t-32 115t-93 45h-2h2h1h-1q-66 -1 -116 -64v-200q56 -56 113 -56h1zM459 567q94 0 155 -67t61 -191t-61 -191t-155 -67q-79 0 -133 48v-216h-108v671h100v-45q66 58 141 58z" />
    <glyph glyph-name="uni0441" unicode="&#x441;" 
d="M344 310q-1 -69 36 -110q45 -50 132 -50q70 0 127 14v-95q-71 -21 -140 -17q-126 7 -195 76t-69 182t69 181.5t195 75.5q66 4 137 -17v-95q-57 14 -124 14q-87 0 -132 -50q-37 -40 -36 -109z" />
    <glyph glyph-name="uni0442" unicode="&#x442;" 
d="M218 456v98h436v-98h-164v-392h-108v392h-164z" />
    <glyph glyph-name="uni0443" unicode="&#x443;" 
d="M190 554h110l128 -341l142 341h109l-284 -674h-108l87 205z" />
    <glyph glyph-name="uni0444" unicode="&#x444;" 
d="M490 743v-180q79 -14 138 -70q77 -74 77 -184t-77 -184q-59 -56 -138 -70v-159h-108v160q-78 14 -135 69q-78 74 -78 184t78 184q58 56 136 69v181h107zM490 462v-306q38 12 64 42q42 49 42 111t-42 111q-26 30 -64 42zM382 157l1 304q-38 -11 -63 -41q-42 -49 -42 -111
t42 -111q25 -29 62 -41z" />
    <glyph glyph-name="uni0445" unicode="&#x445;" 
d="M436 393l116 161h122l-174 -243l182 -247h-122l-125 168l-122 -168h-122l183 249l-176 241h122z" />
    <glyph glyph-name="uni0446" unicode="&#x446;" 
d="M623 65h-415v489h108v-391h245v391h108v-391h62v-288h-108v190z" />
    <glyph glyph-name="uni0447" unicode="&#x447;" 
d="M652 -59h-107v263q-58 -64 -140 -64q-74 0 -130 47.5t-56 155.5v211h107v-210q0 -105 109 -106q66 0 110 85v231h107v-613z" />
    <glyph glyph-name="uni0448" unicode="&#x448;" 
d="M733 64h-595v490h106v-392h139v392h106v-392h138v392h106v-490z" />
    <glyph glyph-name="uni0449" unicode="&#x449;" 
d="M674 64h-536v490h106v-392h139v392h106v-392h138v392h106v-393h53v-264h-112v167z" />
    <glyph glyph-name="uni044A" unicode="&#x44a;" 
d="M382 382q35 4 65 4q107 0 157 -44t50 -110q0 -79 -66 -122.5t-166 -43.5q-44 0 -78.5 5t-69.5 13v372h-143v98h251v-172zM429 161q53 0 83 17.5t30 49.5q0 28 -25.5 45.5t-80.5 17.5q-25 0 -54 -4v-124q21 -2 47 -2v0z" />
    <glyph glyph-name="uni044B" unicode="&#x44b;" 
d="M310 161q53 0 83 17.5t30 49.5q0 28 -25.5 45.5t-80.5 17.5q-25 0 -54 -4v-124q21 -2 47 -2v0zM155 554h108v-172q35 4 65 4q107 0 157 -44t50 -110q0 -79 -66 -122.5t-166 -43.5q-44 0 -78.5 5t-69.5 13v470zM694 65h-108v489h108v-489z" />
    <glyph glyph-name="uni044C" unicode="&#x44c;" 
d="M402 161q53 0 83 17.5t30 49.5q0 28 -25.5 45.5t-80.5 17.5q-25 0 -54 -4v-124q21 -2 47 -2v0zM247 554h108v-172q35 4 65 4q107 0 157 -44t50 -110q0 -79 -66 -122.5t-166 -43.5q-44 0 -78.5 5t-69.5 13v470z" />
    <glyph glyph-name="uni044D" unicode="&#x44d;" 
d="M390 553q56 0 102 -17t80 -48q33 -32 51.5 -78.5t18.5 -106.5q0 -62 -18.5 -108.5t-52.5 -77.5t-81.5 -46t-106.5 -15q-41 0 -75 8t-56 19v92q30 -14 61 -20t64 -6q70 0 108 28t45 86h-241v90h237q-5 28 -18 48.5t-32 33.5q-19 12 -43.5 18.5t-52.5 6.5q-36 0 -67 -6.5
t-54 -16.5v90q28 12 61.5 19t69.5 7z" />
    <glyph glyph-name="uni044E" unicode="&#x44e;" 
d="M124 64v490h107v-195h88q11 79 62 133q68 75 169 75q104 0 172 -75q65 -71 65 -183t-65 -184q-68 -74 -172 -74q-101 0 -169 74q-51 56 -63 136h-87v-197h-107zM423 309q0 -70 38 -114q40 -45 90 -46q51 1 91 46q39 44 39 114t-39 114q-40 45 -91 46q-50 -1 -90 -46
q-38 -44 -38 -114z" />
    <glyph glyph-name="uni044F" unicode="&#x44f;" 
d="M435 465q-79 0 -79 -68q0 -62 84 -62h78v130h-83zM246 392q0 79 49 119q54 43 141 43h190v-490h-108v182h-86l-85 -182h-110l105 205q-96 35 -96 123v0z" />
    <glyph glyph-name="uni0451" unicode="&#x451;" 
d="M301 717h79v-72h-79v72zM502 717h79v-72h-79v72zM324 348h225q-3 57 -30.5 90.5t-82.5 33.5q-52 0 -80.5 -33.5t-31.5 -90.5zM323 258q7 -51 42.5 -80.5t96.5 -31.5q75 -4 170 18v-93q-85 -24 -170 -21q-114 1 -180.5 67t-66.5 192q0 119 63.5 188.5t157.5 69.5
q97 0 159 -70.5t62 -187.5v-51h-334z" />
    <glyph glyph-name="uni2015" unicode="&#x2015;" 
d="M0 356v98h872v-98h-872z" />
    <glyph glyph-name="quoteleft" unicode="&#x2018;" horiz-adv-x="436" 
d="M338 790h-1q-70 -27 -74 -94h72v-142h-142v114q0 140 113 175z" />
    <glyph glyph-name="quoteright" unicode="&#x2019;" horiz-adv-x="436" 
d="M98 588h1q70 27 74 94h-72v142h142v-114q0 -140 -113 -175z" />
    <glyph glyph-name="quotedblleft" unicode="&#x201c;" horiz-adv-x="580" 
d="M270 790h-1q-69 -27 -74 -94h72v-142h-142v114q0 140 113 175zM482 790h-1q-69 -27 -74 -94h72v-142h-142v114q0 140 113 175z" />
    <glyph glyph-name="quotedblright" unicode="&#x201d;" horiz-adv-x="580" 
d="M310 588h1q69 27 74 94h-72v142h142v-114q0 -140 -113 -175zM98 588h1q69 27 74 94h-72v142h142v-114q0 -140 -113 -175z" />
    <glyph glyph-name="dagger" unicode="&#x2020;" 
d="M667 477h-199v-534h-65v534h-200v72h200v266h65v-266h199v-72z" />
    <glyph glyph-name="daggerdbl" unicode="&#x2021;" 
d="M672 609h-203v-83h186v-72h-186v-512h-66v512h-185v72h185v83h-201v73h201v132h66v-132h203v-73z" />
    <glyph glyph-name="twodotenleader" unicode="&#x2025;" 
d="M148 334v142h142v-142h-142zM582 334v142h142v-142h-142z" />
    <glyph glyph-name="ellipsis" unicode="&#x2026;" 
d="M75 334v142h142v-142h-142zM364 334v142h142v-142h-142zM655 334v142h142v-142h-142z" />
    <glyph glyph-name="perthousand" unicode="&#x2030;" 
d="M230 730q61 0 84 -46t-3 -116q-24 -68 -70 -113.5t-100 -49.5q-57 -4 -83 44t-5 115q23 68 72.5 117t104.5 49zM225 668q-30 0 -58 -32.5t-46 -74.5q-16 -38 -11.5 -63t25.5 -30q23 -5 53.5 23t55.5 82q24 48 14.5 71.5t-33.5 23.5zM472 318q61 0 84 -48.5t-5 -119.5
q-26 -66 -69 -109t-99 -48q-57 -5 -82.5 43.5t-5.5 115.5q23 68 72.5 117t104.5 49zM469 256q-30 1 -59 -32t-46 -75q-17 -38 -13.5 -62.5t25.5 -29.5q23 -5 53.5 21.5t55.5 82.5q23 45 14 69.5t-30 25.5zM759 318q61 0 84 -48.5t-5 -119.5q-26 -66 -69 -109t-100 -48
t-82.5 43.5t-5.5 115.5q24 68 73 117t105 49zM756 256q-29 1 -59 -32t-47 -75q-17 -38 -13.5 -62.5t25.5 -29.5q23 -5 54 21.5t56 82.5q23 45 14 69.5t-30 25.5zM517 743h81l-491 -750h-81z" />
    <glyph glyph-name="minute" unicode="&#x2032;" 
d="M137 540h-70l103 274h134z" />
    <glyph glyph-name="second" unicode="&#x2033;" 
d="M137 540h-71l103 274h135zM353 540h-71l103 274h135z" />
    <glyph glyph-name="uni203B" unicode="&#x203b;" 
d="M506 667q0 -29 -21 -50t-50 -21t-50 21t-21 50t21 50t50 21t50 -21t21 -50zM506 156q0 -29 -21 -50t-50 -21t-50 21t-21 50t21 50t50 21t50 -21t21 -50zM247 410q0 -29 -21 -50t-50 -21t-50 21t-21 50t21 50t50 21t50 -21t21 -50zM769 410q0 -29 -21 -50t-50 -21t-50 21
t-21 50t21 50t50 21t50 -21t21 -50zM711 747l53 -52l-276 -283l289 -296l-53 -52l-288 295l-287 -294l-53 52l288 295l-275 282l53 52l274 -281z" />
    <glyph glyph-name="uni2074" unicode="&#x2074;" 
d="M247 348v109h-195v52l208 304h65v-286h55v-70h-55v-109h-78zM247 675l-99 -148h99v148z" />
    <glyph glyph-name="uni207F" unicode="&#x207f;" 
d="M63 568q0 73 41 109.5t114 36.5q71 0 112.5 -38.5t41.5 -106.5v-211h-80v205q0 77 -74 77q-75 0 -75 -77v-205h-80v210z" />
    <glyph glyph-name="uni2081" unicode="&#x2081;" 
d="M181 -67v372l-106 -39v73l119 50h67v-456h-80z" />
    <glyph glyph-name="uni2082" unicode="&#x2082;" 
d="M203 315q-51 -4 -116 -37v78q71 33 134 33q58 -1 93.5 -37.5t35.5 -93.5q0 -85 -85 -180l-60 -71h158v-74h-280v46l116 136q35 44 52.5 76.5t17.5 58.5q0 33 -18 50t-48 15z" />
    <glyph glyph-name="uni2083" unicode="&#x2083;" 
d="M186 313q-37 0 -90 -16v75q48 13 90 15q74 3 119 -27t45 -95q-3 -72 -54 -100q69 -24 69 -100q0 -71 -48.5 -107t-125.5 -36q-54 0 -104 14v70q58 -10 99 -10q55 0 77 19.5t22 48.5t-27.5 45t-79.5 16h-37v71h22q108 0 108 65q-6 52 -85 52z" />
    <glyph glyph-name="uni2084" unicode="&#x2084;" 
d="M247 -77v109h-195v52l208 304h65v-286h55v-70h-55v-109h-78zM247 250l-99 -148h99v148z" />
    <glyph glyph-name="Euro" unicode="&#x20ac;" 
d="M94 494h118q19 97 85 163q91 92 253 99q84 4 169 -12v-97q-86 15 -156 12q-121 -5 -180 -68q-41 -41 -57 -97h250v-69h-262v-28q0 -29 4 -55h258v-69h-237q16 -34 43 -58q68 -63 183 -67q80 -3 157 9v-97q-78 -13 -170 -9q-166 7 -256 96q-53 51 -75 126h-127v69h114
q-3 25 -3 53v30h-111v69z" />
    <glyph glyph-name="uni2103" unicode="&#x2103;" 
d="M315 668q0 -46 -34 -79.5t-84 -33.5q-51 0 -84.5 33.5t-33.5 79.5t33.5 79.5t84.5 33.5q50 0 84 -33.5t34 -79.5zM251 668q0 22 -15.5 37.5t-38.5 15.5q-24 0 -39 -15.5t-15 -37.5q0 -23 15 -38t39 -15q23 0 38.5 15t15.5 38zM290 355q0 138 82 220.5t228 89.5
q76 3 152 -11v-87q-77 13 -140 10q-109 -4 -162 -61q-62 -63 -62 -164q0 -108 61 -164.5t165 -59.5q72 -3 141 8v-88q-70 -11 -153 -8q-149 7 -230.5 86.5t-81.5 223.5v5z" />
    <glyph glyph-name="uni2109" unicode="&#x2109;" 
d="M774 571h-273v-176h249v-93h-249v-257h-93v618h366v-92zM323 668q0 -46 -34 -79.5t-84 -33.5q-51 0 -84.5 33.5t-33.5 79.5t33.5 79.5t84.5 33.5q50 0 84 -33.5t34 -79.5zM259 668q0 22 -15.5 37.5t-38.5 15.5q-24 0 -39 -15.5t-15 -37.5q0 -23 15 -38t39 -15
q23 0 38.5 15t15.5 38z" />
    <glyph glyph-name="uni2113" unicode="&#x2113;" 
d="M639 71q-41 -80 -128 -82q-97 2 -148 79q-47 -19 -122 -11v77q49 -5 89 4q-48 130 -39.5 304t84.5 269q57 72 133 44q67 -22 80 -138q18 -159 -22.5 -305t-116.5 -207q15 -32 58 -39q46 -7 72 56zM502 610q-5 56 -25 63q-27 8 -44 -26q-46 -93 -49.5 -230t26.5 -238
q49 56 76 182.5t16 248.5z" />
    <glyph glyph-name="uni2116" unicode="&#x2116;" 
d="M471 144h347v-80h-347v80zM130 743l204 -474v474h81v-679h-71l-204 473v-473h-81v679h71zM645 561q75 0 126 -50.5t51 -126.5t-51 -126.5t-126 -50.5q-76 0 -126.5 50.5t-50.5 126.5t51 126.5t126 50.5zM551 384q0 -44 27 -72.5t67 -28.5t67 28.5t27 72.5t-27 72.5
t-67 28.5t-67 -28.5t-27 -72.5z" />
    <glyph glyph-name="uni2121" unicode="&#x2121;" 
d="M259 64h-86v607h-141v72h366v-72h-139v-607zM407 335h184q-2 73 -24.5 116t-67.5 43t-67 -43t-25 -116zM405 271q8 -74 36.5 -110t78.5 -38q61 -6 137 13v-67q-70 -19 -137 -18q-93 1 -145 69t-52 187q0 114 50 185t126 71t127.5 -72t51.5 -176v-44h-273zM734 64v679h85
v-679h-85z" />
    <glyph glyph-name="trademark" unicode="&#x2122;" 
d="M256 405h-78v265h-118v73h315v-73h-119v-265zM630 405h-40l-102 218v-218h-69v338h85l106 -228l105 228h87v-338h-71v215z" />
    <glyph glyph-name="Omega" unicode="&#x2126;" 
d="M436 675q-81 0 -133 -57.5t-52 -170.5q0 -97 37.5 -150.5t95.5 -74.5q24 -8 22 -61v-97h-186v67h96v39q-73 35 -119.5 101.5t-46.5 178.5q0 137 77.5 220.5t208.5 83.5t208.5 -83.5t77.5 -220.5q0 -111 -50.5 -181t-115.5 -99v-39h96v-67h-186v97q-2 53 22 61
q58 21 95.5 74.5t37.5 150.5q0 113 -52.5 170.5t-132.5 57.5z" />
    <glyph glyph-name="uni212B" unicode="&#x212b;" 
d="M554 717q0 -46 -34 -79.5t-84 -33.5q-51 0 -84.5 33.5t-33.5 79.5t33.5 79.5t84.5 33.5q50 0 84 -33.5t34 -79.5zM490 717q0 22 -15.5 37.5t-38.5 15.5q-24 0 -39 -15.5t-15 -37.5q0 -23 15 -38t39 -15q23 0 38.5 15t15.5 38zM437 432l-82 -212h166zM482 557l234 -593
h-96l-66 169h-232l-66 -169h-96l233 593h89z" />
    <glyph glyph-name="onethird" unicode="&#x2153;" 
d="M786 328h-700v61h700v-61zM512 79q52 -23 52 -85q0 -60 -42 -92q-38 -27 -102 -28q-43 -1 -87 15v64q49 -16 84 -15q45 1 61.5 16.5t16.5 39.5t-20 36.5t-67 12.5h-31v64h19q88 0 88 50q0 42 -63 44q-36 1 -84 -19v61q51 24 90 23q28 -1 51.5 -8.5t38.5 -19.5
q17 -15 26 -33.5t9 -41.5q0 -59 -40 -84zM416 445v322l-98 -36v61l109 45h57v-392h-68z" />
    <glyph glyph-name="twothirds" unicode="&#x2154;" 
d="M786 328h-700v61h700v-61zM421 767q-39 0 -99 -31v67q77 36 121 31q49 -6 76 -34q29 -27 29 -78q0 -70 -69 -151l-51 -57h132v-64h-238v41l96 112q32 37 46.5 64t14.5 47q0 53 -58 53zM512 79q52 -23 52 -85q0 -60 -42 -92q-38 -27 -102 -28q-43 -1 -87 15v64
q49 -16 84 -15q45 1 61.5 16.5t16.5 39.5t-20 36.5t-67 12.5h-31v64h19q88 0 88 50q0 42 -63 44q-36 1 -84 -19v61q51 24 90 23q28 -1 51.5 -8.5t38.5 -19.5q17 -15 26 -33.5t9 -41.5q0 -59 -40 -84z" />
    <glyph glyph-name="oneeighth" unicode="&#x215b;" 
d="M786 328h-700v61h700v-61zM436 224q-28 0 -46 -13q-16 -13 -16 -38q0 -21 16.5 -37t45.5 -23q30 7 46.5 23t16.5 37q0 25 -17 38q-18 13 -46 13zM436 -123q-64 0 -105 32q-40 34 -40 80q0 66 68 97q-59 33 -59 89q0 44 39 76q38 30 97 30q60 0 97 -30q39 -32 39 -76
q0 -56 -59 -89q68 -31 68 -97q0 -46 -40 -80q-41 -32 -105 -32zM436 -67q37 0 55 17q16 17 16 41q0 23 -18.5 40.5t-52.5 23.5q-34 -6 -52.5 -23.5t-18.5 -40.5q0 -24 16 -41q18 -17 55 -17zM416 445v322l-98 -36v61l109 45h57v-392h-68z" />
    <glyph glyph-name="threeeighths" unicode="&#x215c;" 
d="M786 328h-700v61h700v-61zM436 224q-28 0 -46 -13q-16 -13 -16 -38q0 -21 16.5 -37t45.5 -23q30 7 46.5 23t16.5 37q0 25 -17 38q-18 13 -46 13zM436 -123q-64 0 -105 32q-40 34 -40 80q0 66 68 97q-59 33 -59 89q0 44 39 76q38 30 97 30q60 0 97 -30q39 -32 39 -76
q0 -56 -59 -89q68 -31 68 -97q0 -46 -40 -80q-41 -32 -105 -32zM436 -67q37 0 55 17q16 17 16 41q0 23 -18.5 40.5t-52.5 23.5q-34 -6 -52.5 -23.5t-18.5 -40.5q0 -24 16 -41q18 -17 55 -17zM512 639q52 -23 52 -85q0 -60 -42 -92q-38 -27 -102 -28q-43 -1 -87 15v64
q49 -16 84 -15q45 1 61.5 16.5t16.5 39.5t-20 36.5t-67 12.5h-31v64h19q88 0 88 50q0 42 -63 44q-36 1 -84 -19v61q51 24 90 23q28 -1 51.5 -8.5t38.5 -19.5q17 -15 26 -33.5t9 -41.5q0 -59 -40 -84z" />
    <glyph glyph-name="fiveeighths" unicode="&#x215d;" 
d="M786 328h-700v61h700v-61zM436 224q-28 0 -46 -13q-16 -13 -16 -38q0 -21 16.5 -37t45.5 -23q30 7 46.5 23t16.5 37q0 25 -17 38q-18 13 -46 13zM436 -123q-64 0 -105 32q-40 34 -40 80q0 66 68 97q-59 33 -59 89q0 44 39 76q38 30 97 30q60 0 97 -30q39 -32 39 -76
q0 -56 -59 -89q68 -31 68 -97q0 -46 -40 -80q-41 -32 -105 -32zM436 -67q37 0 55 17q16 17 16 41q0 23 -18.5 40.5t-52.5 23.5q-34 -6 -52.5 -23.5t-18.5 -40.5q0 -24 16 -41q18 -17 55 -17zM416 673q38 5 74.5 -7t56.5 -37q25 -25 25 -69q0 -58 -41 -91.5t-103 -33.5
q-51 0 -94 12v64q45 -11 86 -11q43 0 61.5 17t18.5 43q0 28 -20 41.5t-66 13.5q-31 0 -70 -2v217h205v-55h-133v-102z" />
    <glyph glyph-name="seveneighths" unicode="&#x215e;" 
d="M786 328h-700v61h700v-61zM436 224q-28 0 -46 -13q-16 -13 -16 -38q0 -21 16.5 -37t45.5 -23q30 7 46.5 23t16.5 37q0 25 -17 38q-18 13 -46 13zM436 -123q-64 0 -105 32q-40 34 -40 80q0 66 68 97q-59 33 -59 89q0 44 39 76q38 30 97 30q60 0 97 -30q39 -32 39 -76
q0 -56 -59 -89q68 -31 68 -97q0 -46 -40 -80q-41 -32 -105 -32zM436 -67q37 0 55 17q16 17 16 41q0 23 -18.5 40.5t-52.5 23.5q-34 -6 -52.5 -23.5t-18.5 -40.5q0 -24 16 -41q18 -17 55 -17zM308 760v64h276v-49l-160 -345h-78l152 330h-190z" />
    <glyph glyph-name="uni2160" unicode="&#x2160;" 
d="M383 64v679h108v-679h-108z" />
    <glyph glyph-name="uni2161" unicode="&#x2161;" 
d="M218 64v679h108v-679h-108zM547 64v679h108v-679h-108z" />
    <glyph glyph-name="uni2162" unicode="&#x2162;" 
d="M166 64v679h103v-679h-103zM384 64v679h103v-679h-103zM602 64v679h103v-679h-103z" />
    <glyph glyph-name="uni2163" unicode="&#x2163;" 
d="M110 64v679h108v-679h-108zM294 743h107l145 -508l143 508h109l-207 -679h-90z" />
    <glyph glyph-name="uni2164" unicode="&#x2164;" 
d="M134 743h107l195 -528l193 528h109l-257 -679h-90z" />
    <glyph glyph-name="uni2165" unicode="&#x2165;" 
d="M762 64h-108v679h108v-679zM578 743l-207 -679h-90l-207 679h109l143 -508l145 508h107z" />
    <glyph glyph-name="uni2166" unicode="&#x2166;" 
d="M526 65v679h98v-679h-98zM715 65v679h98v-679h-98zM468 743l-167 -679h-90l-167 679h104l108 -508l110 508h102z" />
    <glyph glyph-name="uni2167" unicode="&#x2167;" 
d="M388 743l-137 -679h-90l-137 679h94l88 -518l90 518h92zM436 65v678h88v-678h-88zM585 65v678h88v-678h-88zM734 65v678h88v-678h-88z" />
    <glyph glyph-name="uni2168" unicode="&#x2168;" 
d="M211 65h-107v679h107v-679zM533 327l-140 -263h-117l195 346l-182 333h113l132 -252l133 252h113l-184 -335l193 -344h-116z" />
    <glyph glyph-name="uni2169" unicode="&#x2169;" 
d="M435 330l-185 -266h-125l243 346l-228 333h121l175 -255l174 255h121l-230 -335l241 -344h-124z" />
    <glyph glyph-name="uni2170" unicode="&#x2170;" 
d="M382 64v490h107v-490h-107zM379 633v110h114v-110h-114z" />
    <glyph glyph-name="uni2171" unicode="&#x2171;" 
d="M218 64v490h107v-490h-107zM215 633v110h114v-110h-114zM547 64v490h107v-490h-107zM544 633v110h114v-110h-114z" />
    <glyph glyph-name="uni2172" unicode="&#x2172;" 
d="M166 64v490h103v-490h-103zM163 633v110h110v-110h-110zM602 64v490h103v-490h-103zM599 633v110h110v-110h-110zM384 64v490h103v-490h-103zM381 633v110h110v-110h-110z" />
    <glyph glyph-name="uni2173" unicode="&#x2173;" 
d="M123 64v490h107v-490h-107zM120 633v110h114v-110h-114zM592 64h-81l-192 490h116l117 -330l117 330h116z" />
    <glyph glyph-name="uni2174" unicode="&#x2174;" 
d="M462 64h-53l-236 490h116l147 -330l147 330h116z" />
    <glyph glyph-name="uni2175" unicode="&#x2175;" 
d="M735 64h-107v490h107v-490zM738 633h-114v110h114v-110zM375 64h-81l-192 490h116l117 -330l117 330h116z" />
    <glyph glyph-name="uni2176" unicode="&#x2176;" 
d="M294 64h-73l-176 490h103l110 -345l110 345h103zM526 64v490h98v-490h-98zM523 633v110h105v-110h-105zM715 64v490h98v-490h-98zM712 633v110h105v-110h-105z" />
    <glyph glyph-name="uni2177" unicode="&#x2177;" 
d="M244 64h-73l-146 490h93l90 -345l90 345h93zM436 64v490h88v-490h-88zM433 633v110h95v-110h-95zM585 64v490h88v-490h-88zM582 633v110h95v-110h-95zM734 64v490h88v-490h-88zM731 633v110h95v-110h-95z" />
    <glyph glyph-name="uni2178" unicode="&#x2178;" 
d="M271 64h-107v490h107v-490zM274 634h-114v110h114v-110zM567 393l103 161h110l-157 -243l164 -247h-110l-111 168l-110 -168h-110l165 249l-159 241h110z" />
    <glyph glyph-name="uni2179" unicode="&#x2179;" 
d="M436 393l116 161h122l-174 -243l182 -247h-122l-125 168l-122 -168h-122l183 249l-176 241h122z" />
    <glyph glyph-name="arrowleft" unicode="&#x2190;" 
d="M872 372h-690l50 -134l-229 167l229 164l-50 -130h690v-67z" />
    <glyph glyph-name="arrowup" unicode="&#x2191;" 
d="M403 -142v818l-124 -49l157 228l164 -229l-130 50v-818h-67z" />
    <glyph glyph-name="arrowright" unicode="&#x2192;" 
d="M0 372v67h692l-50 130l229 -164l-229 -167l50 134h-692z" />
    <glyph glyph-name="arrowdown" unicode="&#x2193;" 
d="M403 858h67v-821l130 50l-164 -229l-157 228l124 -49v821z" />
    <glyph glyph-name="arrowboth" unicode="&#x2194;" 
d="M179 439h514l-50 130l229 -164l-228 -166l49 133h-514l49 -133l-228 166l229 164z" />
    <glyph glyph-name="arrowupdn" unicode="&#x2195;" 
d="M436 -103l-138 250l111 -27v475l-111 -27l138 250l138 -250l-107 27v-475l107 27z" />
    <glyph glyph-name="uni2196" unicode="&#x2196;" 
d="M152 512l-120 307l282 -163l-87 -24l607 -674l-42 -42l-609 679z" />
    <glyph glyph-name="uni2197" unicode="&#x2197;" 
d="M714 510l-31 83l-609 -679l-42 42l607 674l-87 24l282 163z" />
    <glyph glyph-name="uni2198" unicode="&#x2198;" 
d="M714 222l120 -307l-282 163l87 24l-607 674l42 42l609 -679z" />
    <glyph glyph-name="uni2199" unicode="&#x2199;" 
d="M152 222l31 -83l609 679l42 -42l-607 -674l87 -24l-282 -163z" />
    <glyph glyph-name="arrowdblright" unicode="&#x21d2;" 
d="M9 345h694l58 60l-58 60h-694v70h626l-102 106l51 53l288 -289l-285 -289l-54 52l102 107h-626v70z" />
    <glyph glyph-name="arrowdblboth" unicode="&#x21d4;" 
d="M237 535h399l-103 106l55 52l284 -288l-282 -291l-57 55l103 106h-399l102 -106l-55 -56l-284 292l283 290l56 -54zM703 345l59 60l-59 60h-534l-59 -60l59 -60h534z" />
    <glyph glyph-name="universal" unicode="&#x2200;" 
d="M233 743l79 -199h252l78 199h118l-272 -692h-99l-273 692h117zM437 187l90 259h-178z" />
    <glyph glyph-name="partialdiff" unicode="&#x2202;" 
d="M427 153q67 -2 97 52.5t33 146.5q-28 14 -57.5 22.5t-59.5 9.5q-58 2 -88 -24.5t-31 -83.5q-2 -53 26.5 -87t79.5 -36zM429 481q60 -2 126 -36q-27 197 -170 214q-60 3 -126 -10v98q66 14 139 10q129 -13 202 -126t67 -280q-5 -142 -71.5 -221.5t-169.5 -75.5
q-94 3 -155 64t-57 168q3 93 66.5 145.5t148.5 49.5z" />
    <glyph glyph-name="existential" unicode="&#x2203;" 
d="M517 162v200h-280v97h280v186h-315v98h423v-679h-442v98h334z" />
    <glyph glyph-name="gradient" unicode="&#x2207;" 
d="M436 69l-387 674h773zM186 665l250 -431l249 431h-499z" />
    <glyph glyph-name="element" unicode="&#x2208;" 
d="M792 313h-632q2 -23 15.5 -51.5t40.5 -53.5q26 -27 68 -44t96 -17h413v-85h-415q-73 0 -130.5 22t-98.5 60q-39 40 -61 94.5t-22 116.5q0 63 22 117.5t61 94.5q41 38 98.5 61.5t130.5 23.5h415v-85h-414q-53 0 -95 -18.5t-68 -46.5q-27 -24 -40.5 -52.5t-15.5 -48.5h632
v-88z" />
    <glyph glyph-name="suchthat" unicode="&#x220b;" 
d="M78 313v88h632q-2 20 -15.5 48.5t-40.5 52.5q-26 28 -68.5 46.5t-94.5 18.5h-414v85h415q73 0 130.5 -23.5t98.5 -61.5q39 -40 61 -94.5t22 -117.5q0 -62 -22 -116.5t-61 -94.5q-41 -38 -98.5 -60t-130.5 -22h-415v85h413q54 0 96 17t68 44q27 25 40.5 53.5t15.5 51.5
h-632z" />
    <glyph glyph-name="product" unicode="&#x220f;" 
d="M760 743v-99h-122v-580h-104v580h-193v-580h-104v580h-120v99h643z" />
    <glyph glyph-name="summation" unicode="&#x2211;" 
d="M547 415l-247 -256h369l-23 -95h-501l19 82l273 280l-163 235l24 82h450l-13 -96h-347z" />
    <glyph glyph-name="radical" unicode="&#x221a;" 
d="M567 744l-280 -804l-158 412l-53 -57l-28 48l124 130l119 -312l221 654h303v-71h-248z" />
    <glyph glyph-name="proportional" unicode="&#x221d;" 
d="M608 224q-99 0 -173 117q-78 -112 -173 -112q-85 0 -135.5 51.5t-50.5 130.5v6q0 79 50.5 130.5t135.5 51.5q99 0 173 -106q69 111 173 111q74 0 132 -62l-39 -50q-39 38 -94 38q-86 0 -134 -112q51 -120 134 -120q55 0 94 38l39 -50q-58 -62 -132 -62zM397 418
q-57 113 -135 113q-52 0 -82 -35.5t-30 -78.5t30 -78.5t82 -35.5q79 0 135 115z" />
    <glyph glyph-name="infinity" unicode="&#x221e;" 
d="M390 406q-17 46 -48 73.5t-74 27.5q-47 0 -78 -30t-31 -72q0 -44 31 -72.5t78 -28.5q43 0 74 28t48 74zM436 476q30 54 73 81t95 27q82 0 138 -51t56 -128t-56 -128t-138 -51q-52 0 -95 27t-73 81q-30 -54 -73 -81t-95 -27q-82 0 -138 51t-56 128t56 128t138 51
q52 0 95 -27t73 -81zM482 406q17 -46 48 -74t74 -28q47 0 78 28.5t31 72.5q0 42 -31 72t-78 30q-43 0 -74 -27.5t-48 -73.5z" />
    <glyph glyph-name="angle" unicode="&#x2220;" 
d="M228 152h558v-88h-679q-16 0 -26 5.5t-15 21.5q-4 18 7 32t15 18l589 592l66 -66z" />
    <glyph glyph-name="uni2225" unicode="&#x2225;" 
d="M308 -124v965h91v-965h-91zM539 -124v965h91v-965h-91z" />
    <glyph glyph-name="logicaland" unicode="&#x2227;" 
d="M722 -14l-286 596l-287 -596l-72 33l324 672q2 6 13 20t23 14q9 0 18 -12.5t15 -21.5l323 -672z" />
    <glyph glyph-name="logicalor" unicode="&#x2228;" 
d="M793 696l-323 -673q-6 -10 -15 -21t-19 -11t-21.5 12.5t-13.5 19.5l-324 673l72 32l287 -596l286 596z" />
    <glyph glyph-name="intersection" unicode="&#x2229;" 
d="M735 419v-425h-92v434q0 55 -19.5 98.5t-49.5 70.5q-30 28 -66 39.5t-66 11.5h-10q-32 0 -68 -12t-67 -40q-31 -27 -52 -70.5t-21 -97.5v-434h-91v425q0 73 24 131.5t64 99.5t95.5 63.5t119.5 22.5q63 0 118.5 -22.5t96.5 -64.5q40 -44 62 -105t22 -125z" />
    <glyph glyph-name="union" unicode="&#x222a;" 
d="M735 294q0 -64 -22 -125t-62 -105q-41 -42 -96.5 -64.5t-118.5 -22.5q-64 0 -119.5 22.5t-95.5 63.5t-64 99.5t-24 131.5v425h91v-434q0 -54 21 -97.5t52 -70.5q31 -28 67 -40t68 -12h10q30 0 66 11.5t66 39.5q30 27 49.5 70t19.5 99v434h92v-425z" />
    <glyph glyph-name="integral" unicode="&#x222b;" 
d="M209 44q33 -63 87 -63q52 0 82 86q31 86 57 288l27 195q24 131 54 185q49 86 128 86q49 0 80.5 -34.5t31.5 -124.5l-20 -12q-4 34 -29.5 61.5t-68.5 27.5q-62 0 -82 -131l-33 -253q-37 -274 -88 -367t-136 -93q-42 0 -69.5 33.5t-39.5 97.5z" />
    <glyph glyph-name="uni222C" unicode="&#x222c;" 
d="M46 44q33 -63 77 -63q45 0 72 86q31 86 57 288l27 195q21 132 56 201.5t116 69.5q49 0 80.5 -41t31.5 -105l-28 -12q-7 34 -28.5 55t-54.5 21q-57 0 -79 -131l-33 -253q-37 -274 -89.5 -367t-124.5 -93q-42 0 -69.5 30t-39.5 94zM323 44q33 -63 77 -63q45 0 72 86
q31 86 57 288l27 195q21 132 56 201.5t116 69.5q49 0 80.5 -41t31.5 -105l-28 -12q-7 34 -28.5 55t-54.5 21q-57 0 -79 -131l-33 -253q-37 -274 -89.5 -367t-124.5 -93q-42 0 -69.5 30t-39.5 94z" />
    <glyph glyph-name="uni222E" unicode="&#x222e;" 
d="M666 709q0 -29 -15.5 -43t-34.5 -14q-22 0 -32.5 10t-13.5 27q-3 13 -5 23t-17 10q-7 0 -15.5 -7.5t-13.5 -21.5q-12 -27 -19 -52t-12 -67l-9 -72q54 -16 86.5 -53t32.5 -96q0 -63 -38.5 -102.5t-95.5 -49.5q-2 -41 -11 -84.5t-21 -73.5q-22 -54 -61 -79.5t-86 -25.5
q-39 0 -63 17t-24 54q0 28 15.5 43.5t34.5 15.5q27 0 42.5 -20.5t15.5 -52.5h6q25 0 41 18t25 50q6 28 9 48.5t9 94.5q-53 15 -85 55.5t-32 90.5q0 61 36 99t95 56q5 40 10 69t13 54q21 73 63 113.5t92 40.5q33 0 55.5 -19.5t22.5 -55.5zM551 355q0 31 -14 54t-36 34
q-16 8 -26 9q-7 -99 -10 -198q50 14 68 39.5t18 61.5zM406 456q-39 -9 -57 -39.5t-18 -63.5q0 -30 12.5 -55.5t53.5 -40.5q-1 100 9 199z" />
    <glyph glyph-name="therefore" unicode="&#x2234;" 
d="M276 206q0 -31 -21.5 -52.5t-52.5 -21.5t-52.5 21.5t-21.5 52.5t21.5 52.5t52.5 21.5t52.5 -21.5t21.5 -52.5zM745 206q0 -31 -21.5 -52.5t-52.5 -21.5t-52.5 21.5t-21.5 52.5t21.5 52.5t52.5 21.5t52.5 -21.5t21.5 -52.5zM510 577q0 -31 -21.5 -52.5t-52.5 -21.5
t-52.5 21.5t-21.5 52.5t21.5 52.5t52.5 21.5t52.5 -21.5t21.5 -52.5z" />
    <glyph glyph-name="uni2235" unicode="&#x2235;" 
d="M276 577q0 -30 -22 -52t-52 -22t-52 22t-22 52t22 52t52 22t52 -22t22 -52zM745 577q0 -30 -22 -52t-52 -22t-52 22t-22 52t22 52t52 22t52 -22t22 -52zM510 205q0 -30 -22 -52t-52 -22t-52 22t-22 52t22 52t52 22t52 -22t22 -52z" />
    <glyph glyph-name="similar" unicode="&#x223c;" 
d="M602 435h98q-14 -83 -51 -126q-46 -53 -111 -53q-49 0 -92 32l-61 53q-31 26 -49 28q-59 7 -69 -83h-95q4 84 48 131q50 54 119 47q45 -5 84 -34l58 -51q27 -25 43 -27q59 -6 78 83z" />
    <glyph glyph-name="uni223D" unicode="&#x223d;" 
d="M717 412v-2v1q0 42 -25 75q-31 36 -76 36q-34 0 -56.5 -12t-40.5 -32q-17 -19 -31.5 -45t-28.5 -51q-9 -16 -24.5 -40.5t-41.5 -51.5q-24 -25 -58 -41.5t-82 -16.5q-73 0 -125 51.5t-52 138.5q0 75 49.5 125.5t127.5 50.5q60 0 120 -45l-33 -59q-45 31 -90 31
q-41 0 -68 -27q-32 -31 -32 -84q0 -40 26.5 -76.5t76.5 -36.5q36 0 63.5 20t46.5 45t35.5 52t28.5 49q15 28 33 52t42 41q24 16 51.5 25.5t61.5 9.5q74 0 125 -53.5t51 -137.5q0 -75 -49.5 -125.5t-127.5 -50.5q-60 0 -120 45l33 59q45 -31 90 -31q41 0 68 27q32 31 32 83v1
z" />
    <glyph glyph-name="uni2252" unicode="&#x2252;" 
d="M112 443v79h650v-79h-650zM111 287v80h651v-80h-651zM657 150q0 -31 -22.5 -53.5t-53.5 -22.5t-53.5 22.5t-22.5 53.5t22.5 53.5t53.5 22.5t53.5 -22.5t22.5 -53.5zM366 663q0 -31 -22.5 -53.5t-53.5 -22.5t-53.5 22.5t-22.5 53.5t22.5 53.5t53.5 22.5t53.5 -22.5
t22.5 -53.5z" />
    <glyph glyph-name="notequal" unicode="&#x2260;" 
d="M181 450v95h292l85 148l75 -48l-57 -100h114v-95h-169l-56 -98h225v-95h-280l-89 -155l-75 49l61 106h-126v95h181l56 98h-237z" />
    <glyph glyph-name="equivalence" unicode="&#x2261;" 
d="M112 521v79h650v-79h-650zM111 365v80h651v-80h-651zM111 210v79h651v-79h-651z" />
    <glyph glyph-name="lessequal" unicode="&#x2264;" 
d="M694 310l-40 -80l-461 224v41l448 229l41 -78l-328 -170zM165 75v98h542v-98h-542z" />
    <glyph glyph-name="greaterequal" unicode="&#x2265;" 
d="M178 310l340 166l-328 170l41 78l448 -229v-41l-461 -224zM707 75h-542v98h542v-98z" />
    <glyph glyph-name="uni226A" unicode="&#x226a;" 
d="M534 744l39 -56l-392 -284l390 -296l-44 -54l-464 350zM787 744l39 -56l-392 -284l390 -296l-44 -54l-464 350z" />
    <glyph glyph-name="uni226B" unicode="&#x226b;" 
d="M338 744l471 -340l-464 -350l-44 54l390 296l-392 284zM85 744l471 -340l-464 -350l-44 54l390 296l-392 284z" />
    <glyph glyph-name="propersubset" unicode="&#x2282;" 
d="M376 56q-64 0 -125 22t-105 62q-42 41 -64.5 96.5t-22.5 118.5q0 64 22.5 119.5t63.5 95.5t99.5 64t131.5 24h425v-91h-434q-54 0 -97.5 -21t-70.5 -52q-28 -31 -40 -67t-12 -68v-10q0 -30 11.5 -66t39.5 -66q27 -30 70 -49.5t99 -19.5h434v-92h-425z" />
    <glyph glyph-name="propersuperset" unicode="&#x2283;" 
d="M484 56h-425v92h434q55 0 98.5 19.5t70.5 49.5q28 30 39.5 66t11.5 66v10q0 32 -12 68t-40 67q-27 31 -70.5 52t-97.5 21h-434v91h425q73 0 131.5 -24t99.5 -64t63.5 -95.5t22.5 -119.5q0 -63 -22.5 -118.5t-64.5 -96.5q-44 -40 -105 -62t-125 -22z" />
    <glyph glyph-name="reflexsubset" unicode="&#x2286;" 
d="M379 197q-73 0 -140 18.5t-106 51.5q-42 34 -61.5 79t-19.5 98q0 52 19.5 98t60.5 80q38 33 101.5 53t144.5 20h435v-88h-442q-59 0 -99.5 -15.5t-69.5 -38.5q-26 -23 -37.5 -52t-11.5 -57q0 -29 11.5 -58t37.5 -50q27 -24 69 -37.5t100 -13.5h442v-88h-434zM81 11v83
h741v-83h-741z" />
    <glyph glyph-name="reflexsuperset" unicode="&#x2287;" 
d="M495 197h-434v88h442q58 0 99.5 13.5t68.5 37.5q27 21 38.5 50t11.5 58q0 28 -11.5 57t-38.5 52q-28 23 -68.5 38.5t-99.5 15.5h-442v88h435q81 0 144 -20t101 -53q42 -34 61.5 -80t19.5 -98q0 -53 -19.5 -98t-62.5 -79q-38 -33 -105 -51.5t-140 -18.5zM793 11h-741v83
h741v-83z" />
    <glyph glyph-name="uni2299" unicode="&#x2299;" 
d="M64 404q0 157 109.5 264.5t262.5 107.5t262.5 -107.5t109.5 -264.5t-109.5 -264.5t-262.5 -107.5q-154 2 -263 108.5t-109 263.5zM735 404q0 129 -88 214t-211 85t-211 -85t-88 -214t88 -214t211 -85t211 85t88 214zM293 404q0 63 43.5 103t99.5 40t99.5 -40t43.5 -103
t-43.5 -103t-99.5 -40t-99.5 40t-43.5 103z" />
    <glyph glyph-name="perpendicular" unicode="&#x22a5;" 
d="M82 152h303v562h102v-562h303v-88h-708v88z" />
    <glyph glyph-name="uni2312" unicode="&#x2312;" 
d="M174 420h-104q23 149 118.5 242.5t247.5 93.5q146 0 244.5 -93t123.5 -243h-105q-19 112 -91 179t-172 67t-171 -66t-91 -180z" />
    <glyph glyph-name="uni2460" unicode="&#x2460;" 
d="M409 102v439l-127 -46v76l139 58h71v-527h-83zM858 361q0 -85 -33 -160t-90 -132q-57 -56 -133.5 -88.5t-163.5 -32.5t-163.5 32.5t-133.5 88.5q-57 57 -90 132t-33 160t33 160t90 132q57 56 133.5 88.5t163.5 32.5t163.5 -32.5t133.5 -88.5q57 -57 90 -132t33 -160z
M781 361q0 70 -27.5 132.5t-73.5 109.5q-47 46 -109.5 73.5t-132.5 27.5t-132.5 -27.5t-109.5 -73.5q-46 -47 -73.5 -109.5t-27.5 -132.5t27.5 -132.5t73.5 -109.5q47 -46 109.5 -73.5t132.5 -27.5t132.5 27.5t109.5 73.5q46 47 73.5 109.5t27.5 132.5z" />
    <glyph glyph-name="uni2461" unicode="&#x2461;" 
d="M416 570q-60 -6 -131 -40v79q79 38 151 38q69 0 109 -41t40 -109q0 -98 -98 -209l-79 -90h193v-78h-322v49l135 157q43 52 64 91t21 72q0 40 -22.5 61t-60.5 20zM858 361q0 -85 -33 -160t-90 -132q-57 -56 -133.5 -88.5t-163.5 -32.5t-163.5 32.5t-133.5 88.5
q-57 57 -90 132t-33 160t33 160t90 132q57 56 133.5 88.5t163.5 32.5t163.5 -32.5t133.5 -88.5q57 -57 90 -132t33 -160zM781 361q0 70 -27.5 132.5t-73.5 109.5q-47 46 -109.5 73.5t-132.5 27.5t-132.5 -27.5t-109.5 -73.5q-46 -47 -73.5 -109.5t-27.5 -132.5t27.5 -132.5
t73.5 -109.5q47 -46 109.5 -73.5t132.5 -27.5t132.5 27.5t109.5 73.5q46 47 73.5 109.5t27.5 132.5z" />
    <glyph glyph-name="uni2462" unicode="&#x2462;" 
d="M406 553q-45 0 -102 -16v79q53 14 101 16q87 3 138 -30.5t51 -107.5q-3 -81 -69 -119q87 -32 87 -119q0 -79 -55 -120t-145 -41q-62 0 -118 14v75q62 -13 113 -12q64 0 92 24t28 60q0 38 -34 57t-95 19h-41v76h26q128 0 128 81q-7 64 -105 64zM858 361q0 -85 -33 -160
t-90 -132q-57 -56 -133.5 -88.5t-163.5 -32.5t-163.5 32.5t-133.5 88.5q-57 57 -90 132t-33 160t33 160t90 132q57 56 133.5 88.5t163.5 32.5t163.5 -32.5t133.5 -88.5q57 -57 90 -132t33 -160zM781 361q0 70 -27.5 132.5t-73.5 109.5q-47 46 -109.5 73.5t-132.5 27.5
t-132.5 -27.5t-109.5 -73.5q-46 -47 -73.5 -109.5t-27.5 -132.5t27.5 -132.5t73.5 -109.5q47 -46 109.5 -73.5t132.5 -27.5t132.5 27.5t109.5 73.5q46 47 73.5 109.5t27.5 132.5z" />
    <glyph glyph-name="uni2463" unicode="&#x2463;" 
d="M447 85v127h-229v55l242 356h69v-335h64v-76h-64v-127h-82zM447 477l-126 -189h126v189zM858 361q0 -85 -33 -160t-90 -132q-57 -56 -133.5 -88.5t-163.5 -32.5t-163.5 32.5t-133.5 88.5q-57 57 -90 132t-33 160t33 160t90 132q57 56 133.5 88.5t163.5 32.5t163.5 -32.5
t133.5 -88.5q57 -57 90 -132t33 -160zM781 361q0 70 -27.5 132.5t-73.5 109.5q-47 46 -109.5 73.5t-132.5 27.5t-132.5 -27.5t-109.5 -73.5q-46 -47 -73.5 -109.5t-27.5 -132.5t27.5 -132.5t73.5 -109.5q47 -46 109.5 -73.5t132.5 -27.5t132.5 27.5t109.5 73.5
q46 47 73.5 109.5t27.5 132.5z" />
    <glyph glyph-name="uni2464" unicode="&#x2464;" 
d="M389 406q67 5 115 -10t78 -50q31 -38 31 -97q0 -77 -54 -123.5t-146 -46.5q-68 0 -124 15v78q54 -15 116 -15q64 0 94 25.5t30 64.5q0 44 -32.5 64.5t-100.5 20.5q-45 0 -92 -4v279h279v-78h-194v-123zM858 361q0 -85 -33 -160t-90 -132q-57 -56 -133.5 -88.5
t-163.5 -32.5t-163.5 32.5t-133.5 88.5q-57 57 -90 132t-33 160t33 160t90 132q57 56 133.5 88.5t163.5 32.5t163.5 -32.5t133.5 -88.5q57 -57 90 -132t33 -160zM781 361q0 70 -27.5 132.5t-73.5 109.5q-47 46 -109.5 73.5t-132.5 27.5t-132.5 -27.5t-109.5 -73.5
q-46 -47 -73.5 -109.5t-27.5 -132.5t27.5 -132.5t73.5 -109.5q47 -46 109.5 -73.5t132.5 -27.5t132.5 27.5t109.5 73.5q46 47 73.5 109.5t27.5 132.5z" />
    <glyph glyph-name="uni2465" unicode="&#x2465;" 
d="M425 164q39 0 61.5 24.5t22.5 64.5q0 42 -22 63t-65 21q-21 0 -43 -5.5t-43 -14.5q0 -71 21 -112t68 -41zM434 413q65 0 112 -42t47 -114q0 -82 -47.5 -127t-121.5 -45q-78 0 -126.5 62.5t-48.5 170.5q0 128 58 212.5t157 91.5q53 4 104 -9v-79q-52 13 -96 9
q-108 -10 -131 -154q49 24 93 24zM858 361q0 -85 -33 -160t-90 -132q-57 -56 -133.5 -88.5t-163.5 -32.5t-163.5 32.5t-133.5 88.5q-57 57 -90 132t-33 160t33 160t90 132q57 56 133.5 88.5t163.5 32.5t163.5 -32.5t133.5 -88.5q57 -57 90 -132t33 -160zM781 361
q0 70 -27.5 132.5t-73.5 109.5q-47 46 -109.5 73.5t-132.5 27.5t-132.5 -27.5t-109.5 -73.5q-46 -47 -73.5 -109.5t-27.5 -132.5t27.5 -132.5t73.5 -109.5q47 -46 109.5 -73.5t132.5 -27.5t132.5 27.5t109.5 73.5q46 47 73.5 109.5t27.5 132.5z" />
    <glyph glyph-name="uni2466" unicode="&#x2466;" 
d="M268 520v79h329v-62l-189 -457h-90l182 440h-232zM858 361q0 -85 -33 -160t-90 -132q-57 -56 -133.5 -88.5t-163.5 -32.5t-163.5 32.5t-133.5 88.5q-57 57 -90 132t-33 160t33 160t90 132q57 56 133.5 88.5t163.5 32.5t163.5 -32.5t133.5 -88.5q57 -57 90 -132t33 -160z
M781 361q0 70 -27.5 132.5t-73.5 109.5q-47 46 -109.5 73.5t-132.5 27.5t-132.5 -27.5t-109.5 -73.5q-46 -47 -73.5 -109.5t-27.5 -132.5t27.5 -132.5t73.5 -109.5q47 -46 109.5 -73.5t132.5 -27.5t132.5 27.5t109.5 73.5q46 47 73.5 109.5t27.5 132.5z" />
    <glyph glyph-name="uni2467" unicode="&#x2467;" 
d="M437 550q-36 0 -57 -19.5t-21 -52.5q0 -27 20 -49.5t58 -31.5q34 9 55.5 31.5t21.5 49.5q0 33 -22 52.5t-55 19.5zM437 85q-81 0 -130.5 43.5t-49.5 106.5q0 86 87 125q-69 47 -72 120q0 59 45.5 100.5t119.5 41.5q72 0 117 -41t45 -101q-2 -73 -71 -120q86 -39 86 -125
q0 -63 -49 -106.5t-128 -43.5zM437 157q47 0 69.5 24.5t22.5 55.5t-26.5 55.5t-65.5 31.5q-43 -7 -68.5 -31.5t-25.5 -55.5t22.5 -55.5t71.5 -24.5zM858 361q0 -85 -33 -160t-90 -132q-57 -56 -133.5 -88.5t-163.5 -32.5t-163.5 32.5t-133.5 88.5q-57 57 -90 132t-33 160
t33 160t90 132q57 56 133.5 88.5t163.5 32.5t163.5 -32.5t133.5 -88.5q57 -57 90 -132t33 -160zM781 361q0 70 -27.5 132.5t-73.5 109.5q-47 46 -109.5 73.5t-132.5 27.5t-132.5 -27.5t-109.5 -73.5q-46 -47 -73.5 -109.5t-27.5 -132.5t27.5 -132.5t73.5 -109.5
q47 -46 109.5 -73.5t132.5 -27.5t132.5 27.5t109.5 73.5q46 47 73.5 109.5t27.5 132.5z" />
    <glyph glyph-name="uni2468" unicode="&#x2468;" 
d="M442 542q-41 0 -62 -27.5t-21 -65.5q0 -43 21 -64t64 -21q19 0 43 6t45 15q0 70 -22 113.5t-68 43.5zM432 289q-69 0 -114 38.5t-45 114.5q0 84 46 131.5t124 47.5q79 0 126.5 -66.5t47.5 -167.5q0 -149 -57 -224.5t-158 -78.5q-50 -2 -110 11v83q51 -15 108 -13
q58 3 92 42.5t34 104.5q-48 -23 -94 -23zM858 361q0 -85 -33 -160t-90 -132q-57 -56 -133.5 -88.5t-163.5 -32.5t-163.5 32.5t-133.5 88.5q-57 57 -90 132t-33 160t33 160t90 132q57 56 133.5 88.5t163.5 32.5t163.5 -32.5t133.5 -88.5q57 -57 90 -132t33 -160zM781 361
q0 70 -27.5 132.5t-73.5 109.5q-47 46 -109.5 73.5t-132.5 27.5t-132.5 -27.5t-109.5 -73.5q-46 -47 -73.5 -109.5t-27.5 -132.5t27.5 -132.5t73.5 -109.5q47 -46 109.5 -73.5t132.5 -27.5t132.5 27.5t109.5 73.5q46 47 73.5 109.5t27.5 132.5z" />
    <glyph glyph-name="uni2469" unicode="&#x2469;" 
d="M472 356q0 -84 22 -123.5t56 -39.5q33 0 56.5 39.5t23.5 123.5q0 80 -23.5 120t-56.5 40q-34 0 -56 -40t-22 -120zM385 356q0 99 41.5 163.5t123.5 64.5t124.5 -64.5t41.5 -163.5q0 -102 -42 -167t-124 -65t-123.5 65t-41.5 167zM257 124v372l-78 -40v69l92 53h68v-454
h-82zM858 361q0 -85 -33 -160t-90 -132q-57 -56 -133.5 -88.5t-163.5 -32.5t-163.5 32.5t-133.5 88.5q-57 57 -90 132t-33 160t33 160t90 132q57 56 133.5 88.5t163.5 32.5t163.5 -32.5t133.5 -88.5q57 -57 90 -132t33 -160zM781 361q0 70 -27.5 132.5t-73.5 109.5
q-47 46 -109.5 73.5t-132.5 27.5t-132.5 -27.5t-109.5 -73.5q-46 -47 -73.5 -109.5t-27.5 -132.5t27.5 -132.5t73.5 -109.5q47 -46 109.5 -73.5t132.5 -27.5t132.5 27.5t109.5 73.5q46 47 73.5 109.5t27.5 132.5z" />
    <glyph glyph-name="uni246A" unicode="&#x246a;" 
d="M288 114v390l-88 -37v74l101 47h69v-474h-82zM548 114v390l-88 -37v74l101 47h69v-474h-82zM858 361q0 -85 -33 -160t-90 -132q-57 -56 -133.5 -88.5t-163.5 -32.5t-163.5 32.5t-133.5 88.5q-57 57 -90 132t-33 160t33 160t90 132q57 56 133.5 88.5t163.5 32.5
t163.5 -32.5t133.5 -88.5q57 -57 90 -132t33 -160zM781 361q0 70 -27.5 132.5t-73.5 109.5q-47 46 -109.5 73.5t-132.5 27.5t-132.5 -27.5t-109.5 -73.5q-46 -47 -73.5 -109.5t-27.5 -132.5t27.5 -132.5t73.5 -109.5q47 -46 109.5 -73.5t132.5 -27.5t132.5 27.5t109.5 73.5
q46 47 73.5 109.5t27.5 132.5z" />
    <glyph glyph-name="uni246B" unicode="&#x246b;" 
d="M521 516q-55 -5 -121 -38v77q74 35 141 35q62 -2 98.5 -40t36.5 -99q0 -90 -90 -182l-69 -71h174v-74h-296v46l124 135q39 49 58 78.5t19 59.5q0 36 -20.5 55.5t-54.5 17.5zM265 114v390l-88 -37v74l101 47h69v-474h-82zM858 361q0 -85 -33 -160t-90 -132
q-57 -56 -133.5 -88.5t-163.5 -32.5t-163.5 32.5t-133.5 88.5q-57 57 -90 132t-33 160t33 160t90 132q57 56 133.5 88.5t163.5 32.5t163.5 -32.5t133.5 -88.5q57 -57 90 -132t33 -160zM781 361q0 70 -27.5 132.5t-73.5 109.5q-47 46 -109.5 73.5t-132.5 27.5t-132.5 -27.5
t-109.5 -73.5q-46 -47 -73.5 -109.5t-27.5 -132.5t27.5 -132.5t73.5 -109.5q47 -46 109.5 -73.5t132.5 -27.5t132.5 27.5t109.5 73.5q46 47 73.5 109.5t27.5 132.5z" />
    <glyph glyph-name="uni246C" unicode="&#x246c;" 
d="M508 514q-41 0 -95 -15v73q50 14 94 16q78 3 125.5 -25.5t47.5 -97.5q0 -76 -63 -104q80 -22 80 -102q0 -74 -51.5 -110t-132.5 -36q-58 0 -110 14v71q59 -12 105 -11q59 0 83.5 19.5t24.5 51.5q0 34 -30.5 48.5t-85.5 14.5h-39v71h25q121 0 116 68q-4 54 -94 54z
M265 114v390l-88 -37v74l101 47h69v-474h-82zM858 361q0 -85 -33 -160t-90 -132q-57 -56 -133.5 -88.5t-163.5 -32.5t-163.5 32.5t-133.5 88.5q-57 57 -90 132t-33 160t33 160t90 132q57 56 133.5 88.5t163.5 32.5t163.5 -32.5t133.5 -88.5q57 -57 90 -132t33 -160zM781 361
q0 70 -27.5 132.5t-73.5 109.5q-47 46 -109.5 73.5t-132.5 27.5t-132.5 -27.5t-109.5 -73.5q-46 -47 -73.5 -109.5t-27.5 -132.5t27.5 -132.5t73.5 -109.5q47 -46 109.5 -73.5t132.5 -27.5t132.5 27.5t109.5 73.5q46 47 73.5 109.5t27.5 132.5z" />
    <glyph glyph-name="uni246D" unicode="&#x246d;" 
d="M573 114v113h-194v51l208 310h66v-291h61v-70h-61v-113h-80zM573 456l-97 -159h97v159zM265 114v390l-88 -37v74l101 47h69v-474h-82zM858 361q0 -85 -33 -160t-90 -132q-57 -56 -133.5 -88.5t-163.5 -32.5t-163.5 32.5t-133.5 88.5q-57 57 -90 132t-33 160t33 160
t90 132q57 56 133.5 88.5t163.5 32.5t163.5 -32.5t133.5 -88.5q57 -57 90 -132t33 -160zM781 361q0 70 -27.5 132.5t-73.5 109.5q-47 46 -109.5 73.5t-132.5 27.5t-132.5 -27.5t-109.5 -73.5q-46 -47 -73.5 -109.5t-27.5 -132.5t27.5 -132.5t73.5 -109.5q47 -46 109.5 -73.5
t132.5 -27.5t132.5 27.5t109.5 73.5q46 47 73.5 109.5t27.5 132.5z" />
    <glyph glyph-name="uni246E" unicode="&#x246e;" 
d="M486 409q59 4 104 -10t72 -47q29 -34 29 -85q0 -71 -50 -112.5t-133 -41.5q-63 0 -115 15v72q51 -13 107 -13q58 0 84.5 21.5t26.5 57.5q0 40 -29 57t-91 17q-41 0 -85 -4v253h258v-74h-178v-106zM265 114v390l-88 -37v74l101 47h69v-474h-82zM858 361q0 -85 -33 -160
t-90 -132q-57 -56 -133.5 -88.5t-163.5 -32.5t-163.5 32.5t-133.5 88.5q-57 57 -90 132t-33 160t33 160t90 132q57 56 133.5 88.5t163.5 32.5t163.5 -32.5t133.5 -88.5q57 -57 90 -132t33 -160zM781 361q0 70 -27.5 132.5t-73.5 109.5q-47 46 -109.5 73.5t-132.5 27.5
t-132.5 -27.5t-109.5 -73.5q-46 -47 -73.5 -109.5t-27.5 -132.5t27.5 -132.5t73.5 -109.5q47 -46 109.5 -73.5t132.5 -27.5t132.5 27.5t109.5 73.5q46 47 73.5 109.5t27.5 132.5z" />
    <glyph glyph-name="uni2474" unicode="&#x2474;" 
d="M409 102v439l-127 -46v76l139 58h71v-527h-83zM19 362q0 241 166 406l57 -58q-144 -143 -144 -348q0 -219 144 -348l-57 -58q-166 165 -166 406zM858 362q0 -241 -168 -406l-57 58q146 129 146 348q0 205 -146 348l57 58q168 -165 168 -406z" />
    <glyph glyph-name="uni2475" unicode="&#x2475;" 
d="M416 570q-60 -6 -131 -40v79q79 38 151 38q69 0 109 -41t40 -109q0 -98 -98 -209l-79 -90h193v-78h-322v49l135 157q43 52 64 91t21 72q0 40 -22.5 61t-60.5 20zM19 362q0 241 166 406l57 -58q-144 -143 -144 -348q0 -219 144 -348l-57 -58q-166 165 -166 406zM858 362
q0 -241 -168 -406l-57 58q146 129 146 348q0 205 -146 348l57 58q168 -165 168 -406z" />
    <glyph glyph-name="uni2476" unicode="&#x2476;" 
d="M406 553q-45 0 -102 -16v79q53 14 101 16q87 3 138 -30.5t51 -107.5q-3 -81 -69 -119q87 -32 87 -119q0 -79 -55 -120t-145 -41q-62 0 -118 14v75q62 -13 113 -12q64 0 92 24t28 60q0 38 -34 57t-95 19h-41v76h26q128 0 128 81q-7 64 -105 64zM19 362q0 241 166 406
l57 -58q-144 -143 -144 -348q0 -219 144 -348l-57 -58q-166 165 -166 406zM858 362q0 -241 -168 -406l-57 58q146 129 146 348q0 205 -146 348l57 58q168 -165 168 -406z" />
    <glyph glyph-name="uni2477" unicode="&#x2477;" 
d="M447 85v127h-229v55l242 356h69v-335h64v-76h-64v-127h-82zM447 477l-126 -189h126v189zM19 362q0 241 166 406l57 -58q-144 -143 -144 -348q0 -219 144 -348l-57 -58q-166 165 -166 406zM858 362q0 -241 -168 -406l-57 58q146 129 146 348q0 205 -146 348l57 58
q168 -165 168 -406z" />
    <glyph glyph-name="uni2478" unicode="&#x2478;" 
d="M389 406q67 5 115 -10t78 -50q31 -38 31 -97q0 -77 -54 -123.5t-146 -46.5q-68 0 -124 15v78q54 -15 116 -15q64 0 94 25.5t30 64.5q0 44 -32.5 64.5t-100.5 20.5q-45 0 -92 -4v279h279v-78h-194v-123zM19 362q0 241 166 406l57 -58q-144 -143 -144 -348q0 -219 144 -348
l-57 -58q-166 165 -166 406zM858 362q0 -241 -168 -406l-57 58q146 129 146 348q0 205 -146 348l57 58q168 -165 168 -406z" />
    <glyph glyph-name="uni2479" unicode="&#x2479;" 
d="M425 164q39 0 61.5 24.5t22.5 64.5q0 42 -22 63t-65 21q-21 0 -43 -5.5t-43 -14.5q0 -71 21 -112t68 -41zM434 413q65 0 112 -42t47 -114q0 -82 -47.5 -127t-121.5 -45q-78 0 -126.5 62.5t-48.5 170.5q0 128 58 212.5t157 91.5q53 4 104 -9v-79q-52 13 -96 9
q-108 -10 -131 -154q49 24 93 24zM19 362q0 241 166 406l57 -58q-144 -143 -144 -348q0 -219 144 -348l-57 -58q-166 165 -166 406zM858 362q0 -241 -168 -406l-57 58q146 129 146 348q0 205 -146 348l57 58q168 -165 168 -406z" />
    <glyph glyph-name="uni247A" unicode="&#x247a;" 
d="M268 520v79h329v-62l-189 -457h-90l182 440h-232zM19 362q0 241 166 406l57 -58q-144 -143 -144 -348q0 -219 144 -348l-57 -58q-166 165 -166 406zM858 362q0 -241 -168 -406l-57 58q146 129 146 348q0 205 -146 348l57 58q168 -165 168 -406z" />
    <glyph glyph-name="uni247B" unicode="&#x247b;" 
d="M437 550q-36 0 -57 -19.5t-21 -52.5q0 -27 20 -49.5t58 -31.5q34 9 55.5 31.5t21.5 49.5q0 33 -22 52.5t-55 19.5zM437 85q-81 0 -130.5 43.5t-49.5 106.5q0 86 87 125q-69 47 -72 120q0 59 45.5 100.5t119.5 41.5q72 0 117 -41t45 -101q-2 -73 -71 -120q86 -39 86 -125
q0 -63 -49 -106.5t-128 -43.5zM437 157q47 0 69.5 24.5t22.5 55.5t-26.5 55.5t-65.5 31.5q-43 -7 -68.5 -31.5t-25.5 -55.5t22.5 -55.5t71.5 -24.5zM19 362q0 241 166 406l57 -58q-144 -143 -144 -348q0 -219 144 -348l-57 -58q-166 165 -166 406zM858 362q0 -241 -168 -406
l-57 58q146 129 146 348q0 205 -146 348l57 58q168 -165 168 -406z" />
    <glyph glyph-name="uni247C" unicode="&#x247c;" 
d="M442 542q-41 0 -62 -27.5t-21 -65.5q0 -43 21 -64t64 -21q19 0 43 6t45 15q0 70 -22 113.5t-68 43.5zM432 289q-69 0 -114 38.5t-45 114.5q0 84 46 131.5t124 47.5q79 0 126.5 -66.5t47.5 -167.5q0 -149 -57 -224.5t-158 -78.5q-50 -2 -110 11v83q51 -15 108 -13
q58 3 92 42.5t34 104.5q-48 -23 -94 -23zM19 362q0 241 166 406l57 -58q-144 -143 -144 -348q0 -219 144 -348l-57 -58q-166 165 -166 406zM858 362q0 -241 -168 -406l-57 58q146 129 146 348q0 205 -146 348l57 58q168 -165 168 -406z" />
    <glyph glyph-name="uni247D" unicode="&#x247d;" 
d="M472 356q0 -84 22 -123.5t56 -39.5q33 0 56.5 39.5t23.5 123.5q0 80 -23.5 120t-56.5 40q-34 0 -56 -40t-22 -120zM385 356q0 99 41.5 163.5t123.5 64.5t124.5 -64.5t41.5 -163.5q0 -102 -42 -167t-124 -65t-123.5 65t-41.5 167zM257 124v372l-78 -40v69l92 53h68v-454
h-82zM19 362q0 241 166 406l57 -58q-144 -143 -144 -348q0 -219 144 -348l-57 -58q-166 165 -166 406zM858 362q0 -241 -168 -406l-57 58q146 129 146 348q0 205 -146 348l57 58q168 -165 168 -406z" />
    <glyph glyph-name="uni247E" unicode="&#x247e;" 
d="M288 114v390l-88 -37v74l101 47h69v-474h-82zM548 114v390l-88 -37v74l101 47h69v-474h-82zM19 362q0 241 166 406l57 -58q-144 -143 -144 -348q0 -219 144 -348l-57 -58q-166 165 -166 406zM858 362q0 -241 -168 -406l-57 58q146 129 146 348q0 205 -146 348l57 58
q168 -165 168 -406z" />
    <glyph glyph-name="uni247F" unicode="&#x247f;" 
d="M521 516q-55 -5 -121 -38v77q74 35 141 35q62 -2 98.5 -40t36.5 -99q0 -90 -90 -182l-69 -71h174v-74h-296v46l124 135q39 49 58 78.5t19 59.5q0 36 -20.5 55.5t-54.5 17.5zM265 114v390l-88 -37v74l101 47h69v-474h-82zM19 362q0 241 166 406l57 -58
q-144 -143 -144 -348q0 -219 144 -348l-57 -58q-166 165 -166 406zM858 362q0 -241 -168 -406l-57 58q146 129 146 348q0 205 -146 348l57 58q168 -165 168 -406z" />
    <glyph glyph-name="uni2480" unicode="&#x2480;" 
d="M508 514q-41 0 -95 -15v73q50 14 94 16q78 3 125.5 -25.5t47.5 -97.5q0 -76 -63 -104q80 -22 80 -102q0 -74 -51.5 -110t-132.5 -36q-58 0 -110 14v71q59 -12 105 -11q59 0 83.5 19.5t24.5 51.5q0 34 -30.5 48.5t-85.5 14.5h-39v71h25q121 0 116 68q-4 54 -94 54z
M265 114v390l-88 -37v74l101 47h69v-474h-82zM19 362q0 241 166 406l57 -58q-144 -143 -144 -348q0 -219 144 -348l-57 -58q-166 165 -166 406zM858 362q0 -241 -168 -406l-57 58q146 129 146 348q0 205 -146 348l57 58q168 -165 168 -406z" />
    <glyph glyph-name="uni2481" unicode="&#x2481;" 
d="M573 114v113h-194v51l208 310h66v-291h61v-70h-61v-113h-80zM573 456l-97 -159h97v159zM265 114v390l-88 -37v74l101 47h69v-474h-82zM19 362q0 241 166 406l57 -58q-144 -143 -144 -348q0 -219 144 -348l-57 -58q-166 165 -166 406zM858 362q0 -241 -168 -406l-57 58
q146 129 146 348q0 205 -146 348l57 58q168 -165 168 -406z" />
    <glyph glyph-name="uni2482" unicode="&#x2482;" 
d="M486 409q59 4 104 -10t72 -47q29 -34 29 -85q0 -71 -50 -112.5t-133 -41.5q-63 0 -115 15v72q51 -13 107 -13q58 0 84.5 21.5t26.5 57.5q0 40 -29 57t-91 17q-41 0 -85 -4v253h258v-74h-178v-106zM265 114v390l-88 -37v74l101 47h69v-474h-82zM19 362q0 241 166 406
l57 -58q-144 -143 -144 -348q0 -219 144 -348l-57 -58q-166 165 -166 406zM858 362q0 -241 -168 -406l-57 58q146 129 146 348q0 205 -146 348l57 58q168 -165 168 -406z" />
    <glyph glyph-name="uni249C" unicode="&#x249c;" 
d="M514 329q-25 6 -47.5 8.5t-45.5 1.5q-30 -1 -46 -13q-20 -15 -21 -42q0 -28 15 -40.5t40 -12.5q62 0 105 44v54zM521 191q-52 -42 -123 -42q-63 0 -100 39t-37 96q0 59 45 99q42 36 106 36q60 0 102 -13v14q0 61 -90 65q-56 2 -116 -11v81q62 14 124 13q74 -2 124 -41
q51 -41 51 -122v-246h-86v32zM19 362q0 241 166 406l57 -58q-144 -143 -144 -348q0 -219 144 -348l-57 -58q-166 165 -166 406zM858 362q0 -241 -168 -406l-57 58q146 129 146 348q0 205 -146 348l57 58q168 -165 168 -406z" />
    <glyph glyph-name="uni249D" unicode="&#x249d;" 
d="M461 423h-1q-45 0 -87 -43v-157q38 -49 89 -50h1h-2h1q46 1 71 35q26 35 26 90q0 56 -25.5 90.5t-72.5 34.5zM475 89q-60 0 -109 42v-32h-86v537h93v-164q39 35 102 35q76 0 126 -54.5t50 -154.5t-50 -154.5t-126 -54.5zM19 362q0 241 166 406l57 -58
q-144 -143 -144 -348q0 -219 144 -348l-57 -58q-166 165 -166 406zM858 362q0 -241 -168 -406l-57 58q146 129 146 348q0 205 -146 348l57 58q168 -165 168 -406z" />
    <glyph glyph-name="uni249E" unicode="&#x249e;" 
d="M336 360q-1 -54 28 -86q35 -39 103 -39q55 0 104 13v-82q-60 -18 -115 -15q-101 6 -157 62t-56 147t56 147t157 61q53 3 113 -14v-82q-50 12 -102 12q-68 0 -103 -39q-29 -31 -28 -85zM19 362q0 241 166 406l57 -58q-144 -143 -144 -348q0 -219 144 -348l-57 -58
q-166 165 -166 406zM858 362q0 -241 -168 -406l-57 58q146 129 146 348q0 205 -146 348l57 58q168 -165 168 -406z" />
    <glyph glyph-name="uni249F" unicode="&#x249f;" 
d="M411 423q-47 0 -72.5 -34.5t-25.5 -90.5q0 -55 26 -90q25 -34 71 -35h1h-1h-1h1q51 1 89 50v157q-42 43 -87 43h-1zM397 89q-76 0 -126 54.5t-50 154.5t50 154.5t126 54.5q63 0 102 -35v164h93v-537h-86v32q-49 -42 -109 -42zM19 362q0 241 166 406l57 -58
q-144 -143 -144 -348q0 -219 144 -348l-57 -58q-166 165 -166 406zM858 362q0 -241 -168 -406l-57 58q146 129 146 348q0 205 -146 348l57 58q168 -165 168 -406z" />
    <glyph glyph-name="uni24A0" unicode="&#x24a0;" 
d="M350 392h173q-2 42 -23.5 68t-63.5 26q-40 0 -62 -26t-24 -68zM349 315q6 -37 33 -59.5t74 -23.5q60 -4 139 15v-80q-71 -21 -139 -18q-91 1 -145 54.5t-54 154.5q0 96 51 153t128 57q78 0 128.5 -57.5t50.5 -154.5v-41h-266zM19 362q0 241 166 406l57 -58
q-144 -143 -144 -348q0 -219 144 -348l-57 -58q-166 165 -166 406zM858 362q0 -241 -168 -406l-57 58q146 129 146 348q0 205 -146 348l57 58q168 -165 168 -406z" />
    <glyph glyph-name="uni24A1" unicode="&#x24a1;" 
d="M549 453v-81h-97v-299h-88v299h-70v81h70v6q0 49 10.5 79t31.5 51q21 19 49 29t60 10q16 0 45 -6v-78q-23 4 -35 4q-19 0 -32 -4.5t-22 -12.5q-9 -10 -14 -25.5t-5 -46.5v-6h97zM19 362q0 241 166 406l57 -58q-144 -143 -144 -348q0 -219 144 -348l-57 -58
q-166 165 -166 406zM858 362q0 -241 -168 -406l-57 58q146 129 146 348q0 205 -146 348l57 58q168 -165 168 -406z" />
    <glyph glyph-name="uni24A2" unicode="&#x24a2;" 
d="M436 300q51 0 87 53v145q-42 43 -87 43t-71.5 -36t-26.5 -86q0 -51 27.5 -85t70.5 -34zM526 258q-46 -42 -105 -42q-77 0 -123 53q-53 58 -53 150q0 89 53 152q46 54 123 54q70 0 109 -39v28h85v-339q0 -113 -52 -162q-56 -50 -149 -51q-62 -1 -124 9v79q59 -11 120 -8
q59 4 86 25t30 72v19zM19 362q0 241 166 406l57 -58q-144 -143 -144 -348q0 -219 144 -348l-57 -58q-166 165 -166 406zM858 362q0 -241 -168 -406l-57 58q146 129 146 348q0 205 -146 348l57 58q168 -165 168 -406z" />
    <glyph glyph-name="uni24A3" unicode="&#x24a3;" 
d="M267 625h92v-211q43 46 109 46q60 0 106 -39t46 -125v-195h-92v191q0 84 -79 84q-51 -1 -90 -68v-207h-92v524zM19 362q0 241 166 406l57 -58q-144 -143 -144 -348q0 -219 144 -348l-57 -58q-166 165 -166 406zM858 362q0 -241 -168 -406l-57 58q146 129 146 348
q0 205 -146 348l57 58q168 -165 168 -406z" />
    <glyph glyph-name="uni24A4" unicode="&#x24a4;" 
d="M390 79v397h92v-397h-92zM388 541v97h96v-97h-96zM19 362q0 241 166 406l57 -58q-144 -143 -144 -348q0 -219 144 -348l-57 -58q-166 165 -166 406zM858 362q0 -241 -168 -406l-57 58q146 129 146 348q0 205 -146 348l57 58q168 -165 168 -406z" />
    <glyph glyph-name="uni24A5" unicode="&#x24a5;" 
d="M409 220v267h93v-255q0 -76 -31 -111t-98 -38q-25 -2 -71 8v84q68 -15 91 -2q16 11 16 47zM407 544v97h97v-97h-97zM19 362q0 241 166 406l57 -58q-144 -143 -144 -348q0 -219 144 -348l-57 -58q-166 165 -166 406zM858 362q0 -241 -168 -406l-57 58q146 129 146 348
q0 205 -146 348l57 58q168 -165 168 -406z" />
    <glyph glyph-name="uni24A6" unicode="&#x24a6;" 
d="M367 621v-264l154 161h112l-185 -195l185 -202h-113l-153 167v-167h-93v500h93zM19 362q0 241 166 406l57 -58q-144 -143 -144 -348q0 -219 144 -348l-57 -58q-166 165 -166 406zM858 362q0 -241 -168 -406l-57 58q146 129 146 348q0 205 -146 348l57 58
q168 -165 168 -406z" />
    <glyph glyph-name="uni24A7" unicode="&#x24a7;" 
d="M389 75v568h93v-568h-93zM19 362q0 241 166 406l57 -58q-144 -143 -144 -348q0 -219 144 -348l-57 -58q-166 165 -166 406zM858 362q0 -241 -168 -406l-57 58q146 129 146 348q0 205 -146 348l57 58q168 -165 168 -406z" />
    <glyph glyph-name="uni24A8" unicode="&#x24a8;" 
d="M394 378q0 105 -66 105q-65 0 -65 -105v-218h-87v228q0 81 35.5 130t113.5 49q73 0 110 -48q37 48 109 48q79 0 116.5 -49t37.5 -130v-228h-87v218q0 105 -66 105t-66 -105v-218h-85v218zM19 362q0 241 166 406l57 -58q-144 -143 -144 -348q0 -219 144 -348l-57 -58
q-166 165 -166 406zM858 362q0 -241 -168 -406l-57 58q146 129 146 348q0 205 -146 348l57 58q168 -165 168 -406z" />
    <glyph glyph-name="uni24A9" unicode="&#x24a9;" 
d="M259 402q0 83 46.5 124.5t130.5 41.5q82 0 129 -43.5t47 -121.5v-241h-92v235q0 87 -84 87q-85 0 -85 -87v-235h-92v240zM19 362q0 241 166 406l57 -58q-144 -143 -144 -348q0 -219 144 -348l-57 -58q-166 165 -166 406zM858 362q0 -241 -168 -406l-57 58
q146 129 146 348q0 205 -146 348l57 58q168 -165 168 -406z" />
    <glyph glyph-name="uni24AA" unicode="&#x24aa;" 
d="M644 360q0 -93 -60.5 -152t-148.5 -59t-148.5 59t-60.5 152t60.5 152t148.5 59t148.5 -59t60.5 -152zM318 360q0 -59 32.5 -93.5t84.5 -34.5t84.5 34.5t32.5 93.5t-32.5 93.5t-84.5 34.5t-84.5 -34.5t-32.5 -93.5zM19 362q0 241 166 406l57 -58q-144 -143 -144 -348
q0 -219 144 -348l-57 -58q-166 165 -166 406zM858 362q0 -241 -168 -406l-57 58q146 129 146 348q0 205 -146 348l57 58q168 -165 168 -406z" />
    <glyph glyph-name="uni24AB" unicode="&#x24ab;" 
d="M453 281q47 0 72.5 34.5t25.5 90.5q0 55 -26 90q-25 34 -71 35h-1h2h-1q-51 -1 -89 -50v-157q42 -43 87 -43h1zM467 615q76 0 126 -54.5t50 -154.5t-50 -154.5t-126 -54.5q-63 0 -102 34v-159h-93v533h86v-33q49 43 109 43zM19 362q0 241 166 406l57 -58
q-144 -143 -144 -348q0 -219 144 -348l-57 -58q-166 165 -166 406zM858 362q0 -241 -168 -406l-57 58q146 129 146 348q0 205 -146 348l57 58q168 -165 168 -406z" />
    <glyph glyph-name="uni24AC" unicode="&#x24ac;" 
d="M419 281h1q45 0 87 43v157q-38 49 -89 50h-1h1h1h-1q-46 -1 -71 -35q-26 -35 -26 -90q0 -56 25.5 -90.5t72.5 -34.5zM405 615q60 0 109 -43v33h86v-533h-93v159q-39 -34 -102 -34q-76 0 -126 54.5t-50 154.5t50 154.5t126 54.5zM19 362q0 241 166 406l57 -58
q-144 -143 -144 -348q0 -219 144 -348l-57 -58q-166 165 -166 406zM858 362q0 -241 -168 -406l-57 58q146 129 146 348q0 205 -146 348l57 58q168 -165 168 -406z" />
    <glyph glyph-name="uni24AD" unicode="&#x24ad;" 
d="M344 540h86v-54q31 51 101 61q16 2 45 -1v-82h-35q-64 0 -105 -72v-249h-92v397zM19 362q0 241 166 406l57 -58q-144 -143 -144 -348q0 -219 144 -348l-57 -58q-166 165 -166 406zM858 362q0 -241 -168 -406l-57 58q146 129 146 348q0 205 -146 348l57 58
q168 -165 168 -406z" />
    <glyph glyph-name="uni24AE" unicode="&#x24ae;" 
d="M374 454q0 -19 11 -29q13 -13 70 -26l62 -14q40 -11 62.5 -38t22.5 -69q0 -53 -45 -91q-45 -37 -136 -40q-67 -3 -132 12v75q66 -11 134 -9q46 1 68 12q24 13 24 37q0 31 -45 42l-56 13q-131 28 -131 115q0 52 45.5 88.5t122.5 38.5q57 2 116 -12v-76q-68 13 -123 10
q-67 -3 -70 -39zM19 362q0 241 166 406l57 -58q-144 -143 -144 -348q0 -219 144 -348l-57 -58q-166 165 -166 406zM858 362q0 -241 -168 -406l-57 58q146 129 146 348q0 205 -146 348l57 58q168 -165 168 -406z" />
    <glyph glyph-name="uni24AF" unicode="&#x24af;" 
d="M436 247v183h96v81h-96v129l-90 -30v-99h-73v-81h73v-205q1 -32 8 -52q7 -22 24 -36q16 -16 40.5 -24t55.5 -8h77v82h-62q-17 0 -26.5 3t-15.5 9t-8 14q-3 8 -3 34zM19 362q0 241 166 406l57 -58q-144 -143 -144 -348q0 -219 144 -348l-57 -58q-166 165 -166 406z
M858 362q0 -241 -168 -406l-57 58q146 129 146 348q0 205 -146 348l57 58q168 -165 168 -406z" />
    <glyph glyph-name="uni24B0" unicode="&#x24b0;" 
d="M259 296v241h92v-235q0 -87 85 -87q84 0 84 87v235h92v-241q0 -78 -47 -121.5t-129 -43.5q-84 0 -130.5 41t-46.5 124zM19 362q0 241 166 406l57 -58q-144 -143 -144 -348q0 -219 144 -348l-57 -58q-166 165 -166 406zM858 362q0 -241 -168 -406l-57 58q146 129 146 348
q0 205 -146 348l57 58q168 -165 168 -406z" />
    <glyph glyph-name="uni24B1" unicode="&#x24b1;" 
d="M479 131h-85l-161 398h93l112 -285l112 285h92zM19 362q0 241 166 406l57 -58q-144 -143 -144 -348q0 -219 144 -348l-57 -58q-166 165 -166 406zM858 362q0 -241 -168 -406l-57 58q146 129 146 348q0 205 -146 348l57 58q168 -165 168 -406z" />
    <glyph glyph-name="uni24B2" unicode="&#x24b2;" 
d="M438 403l-56 -260h-72l-107 406h81l60 -261l60 261h67l63 -262l62 262h81l-111 -406h-72zM19 362q0 241 166 406l57 -58q-144 -143 -144 -348q0 -219 144 -348l-57 -58q-166 165 -166 406zM858 362q0 -241 -168 -406l-57 58q146 129 146 348q0 205 -146 348l57 58
q168 -165 168 -406z" />
    <glyph glyph-name="uni24B3" unicode="&#x24b3;" 
d="M436 432l87 126h108l-139 -198l146 -200h-108l-94 131l-95 -131h-107l146 202l-141 196h107zM19 362q0 241 166 406l57 -58q-144 -143 -144 -348q0 -219 144 -348l-57 -58q-166 165 -166 406zM858 362q0 -241 -168 -406l-57 58q146 129 146 348q0 205 -146 348l57 58
q168 -165 168 -406z" />
    <glyph glyph-name="uni24B4" unicode="&#x24b4;" 
d="M242 597h95l107 -254l108 254h90l-225 -529h-90l71 166zM19 362q0 241 166 406l57 -58q-144 -143 -144 -348q0 -219 144 -348l-57 -58q-166 165 -166 406zM858 362q0 -241 -168 -406l-57 58q146 129 146 348q0 205 -146 348l57 58q168 -165 168 -406z" />
    <glyph glyph-name="uni24B5" unicode="&#x24b5;" 
d="M473 479h-195v79h308v-72l-188 -247h202v-79h-328v51zM19 362q0 241 166 406l57 -58q-144 -143 -144 -348q0 -219 144 -348l-57 -58q-166 165 -166 406zM858 362q0 -241 -168 -406l-57 58q146 129 146 348q0 205 -146 348l57 58q168 -165 168 -406z" />
    <glyph glyph-name="uni24D0" unicode="&#x24d0;" 
d="M514 329q-25 6 -47.5 8.5t-45.5 1.5q-30 -1 -46 -13q-20 -15 -21 -42q0 -28 15 -40.5t40 -12.5q62 0 105 44v54zM521 191q-52 -42 -123 -42q-63 0 -100 39t-37 96q0 59 45 99q42 36 106 36q60 0 102 -13v14q0 61 -90 65q-56 2 -116 -11v81q62 14 124 13q74 -2 124 -41
q51 -41 51 -122v-246h-86v32zM858 361q0 -85 -33 -160t-90 -132q-57 -56 -133.5 -88.5t-163.5 -32.5t-163.5 32.5t-133.5 88.5q-57 57 -90 132t-33 160t33 160t90 132q57 56 133.5 88.5t163.5 32.5t163.5 -32.5t133.5 -88.5q57 -57 90 -132t33 -160zM781 361
q0 70 -27.5 132.5t-73.5 109.5q-47 46 -109.5 73.5t-132.5 27.5t-132.5 -27.5t-109.5 -73.5q-46 -47 -73.5 -109.5t-27.5 -132.5t27.5 -132.5t73.5 -109.5q47 -46 109.5 -73.5t132.5 -27.5t132.5 27.5t109.5 73.5q46 47 73.5 109.5t27.5 132.5z" />
    <glyph glyph-name="uni24D1" unicode="&#x24d1;" 
d="M461 423h-1q-45 0 -87 -43v-157q38 -49 89 -50h1h-2h1q46 1 71 35q26 35 26 90q0 56 -25.5 90.5t-72.5 34.5zM475 89q-60 0 -109 42v-32h-86v537h93v-164q39 35 102 35q76 0 126 -54.5t50 -154.5t-50 -154.5t-126 -54.5zM858 361q0 -85 -33 -160t-90 -132
q-57 -56 -133.5 -88.5t-163.5 -32.5t-163.5 32.5t-133.5 88.5q-57 57 -90 132t-33 160t33 160t90 132q57 56 133.5 88.5t163.5 32.5t163.5 -32.5t133.5 -88.5q57 -57 90 -132t33 -160zM781 361q0 70 -27.5 132.5t-73.5 109.5q-47 46 -109.5 73.5t-132.5 27.5t-132.5 -27.5
t-109.5 -73.5q-46 -47 -73.5 -109.5t-27.5 -132.5t27.5 -132.5t73.5 -109.5q47 -46 109.5 -73.5t132.5 -27.5t132.5 27.5t109.5 73.5q46 47 73.5 109.5t27.5 132.5z" />
    <glyph glyph-name="uni24D2" unicode="&#x24d2;" 
d="M336 360q-1 -54 28 -86q35 -39 103 -39q55 0 104 13v-82q-60 -18 -115 -15q-101 6 -157 62t-56 147t56 147t157 61q53 3 113 -14v-82q-50 12 -102 12q-68 0 -103 -39q-29 -31 -28 -85zM858 361q0 -85 -33 -160t-90 -132q-57 -56 -133.5 -88.5t-163.5 -32.5t-163.5 32.5
t-133.5 88.5q-57 57 -90 132t-33 160t33 160t90 132q57 56 133.5 88.5t163.5 32.5t163.5 -32.5t133.5 -88.5q57 -57 90 -132t33 -160zM781 361q0 70 -27.5 132.5t-73.5 109.5q-47 46 -109.5 73.5t-132.5 27.5t-132.5 -27.5t-109.5 -73.5q-46 -47 -73.5 -109.5t-27.5 -132.5
t27.5 -132.5t73.5 -109.5q47 -46 109.5 -73.5t132.5 -27.5t132.5 27.5t109.5 73.5q46 47 73.5 109.5t27.5 132.5z" />
    <glyph glyph-name="uni24D3" unicode="&#x24d3;" 
d="M411 423q-47 0 -72.5 -34.5t-25.5 -90.5q0 -55 26 -90q25 -34 71 -35h1h-1h-1h1q51 1 89 50v157q-42 43 -87 43h-1zM397 89q-76 0 -126 54.5t-50 154.5t50 154.5t126 54.5q63 0 102 -35v164h93v-537h-86v32q-49 -42 -109 -42zM858 361q0 -85 -33 -160t-90 -132
q-57 -56 -133.5 -88.5t-163.5 -32.5t-163.5 32.5t-133.5 88.5q-57 57 -90 132t-33 160t33 160t90 132q57 56 133.5 88.5t163.5 32.5t163.5 -32.5t133.5 -88.5q57 -57 90 -132t33 -160zM781 361q0 70 -27.5 132.5t-73.5 109.5q-47 46 -109.5 73.5t-132.5 27.5t-132.5 -27.5
t-109.5 -73.5q-46 -47 -73.5 -109.5t-27.5 -132.5t27.5 -132.5t73.5 -109.5q47 -46 109.5 -73.5t132.5 -27.5t132.5 27.5t109.5 73.5q46 47 73.5 109.5t27.5 132.5z" />
    <glyph glyph-name="uni24D4" unicode="&#x24d4;" 
d="M350 392h173q-2 42 -23.5 68t-63.5 26q-40 0 -62 -26t-24 -68zM349 315q6 -37 33 -59.5t74 -23.5q60 -4 139 15v-80q-71 -21 -139 -18q-91 1 -145 54.5t-54 154.5q0 96 51 153t128 57q78 0 128.5 -57.5t50.5 -154.5v-41h-266zM858 361q0 -85 -33 -160t-90 -132
q-57 -56 -133.5 -88.5t-163.5 -32.5t-163.5 32.5t-133.5 88.5q-57 57 -90 132t-33 160t33 160t90 132q57 56 133.5 88.5t163.5 32.5t163.5 -32.5t133.5 -88.5q57 -57 90 -132t33 -160zM781 361q0 70 -27.5 132.5t-73.5 109.5q-47 46 -109.5 73.5t-132.5 27.5t-132.5 -27.5
t-109.5 -73.5q-46 -47 -73.5 -109.5t-27.5 -132.5t27.5 -132.5t73.5 -109.5q47 -46 109.5 -73.5t132.5 -27.5t132.5 27.5t109.5 73.5q46 47 73.5 109.5t27.5 132.5z" />
    <glyph glyph-name="uni24D5" unicode="&#x24d5;" 
d="M549 453v-81h-97v-299h-88v299h-70v81h70v6q0 49 10.5 79t31.5 51q21 19 49 29t60 10q16 0 45 -6v-78q-23 4 -35 4q-19 0 -32 -4.5t-22 -12.5q-9 -10 -14 -25.5t-5 -46.5v-6h97zM858 361q0 -85 -33 -160t-90 -132q-57 -56 -133.5 -88.5t-163.5 -32.5t-163.5 32.5
t-133.5 88.5q-57 57 -90 132t-33 160t33 160t90 132q57 56 133.5 88.5t163.5 32.5t163.5 -32.5t133.5 -88.5q57 -57 90 -132t33 -160zM781 361q0 70 -27.5 132.5t-73.5 109.5q-47 46 -109.5 73.5t-132.5 27.5t-132.5 -27.5t-109.5 -73.5q-46 -47 -73.5 -109.5t-27.5 -132.5
t27.5 -132.5t73.5 -109.5q47 -46 109.5 -73.5t132.5 -27.5t132.5 27.5t109.5 73.5q46 47 73.5 109.5t27.5 132.5z" />
    <glyph glyph-name="uni24D6" unicode="&#x24d6;" 
d="M436 300q51 0 87 53v145q-42 43 -87 43t-71.5 -36t-26.5 -86q0 -51 27.5 -85t70.5 -34zM526 258q-46 -42 -105 -42q-77 0 -123 53q-53 58 -53 150q0 89 53 152q46 54 123 54q70 0 109 -39v28h85v-339q0 -113 -52 -162q-56 -50 -149 -51q-62 -1 -124 9v79q59 -11 120 -8
q59 4 86 25t30 72v19zM858 361q0 -85 -33 -160t-90 -132q-57 -56 -133.5 -88.5t-163.5 -32.5t-163.5 32.5t-133.5 88.5q-57 57 -90 132t-33 160t33 160t90 132q57 56 133.5 88.5t163.5 32.5t163.5 -32.5t133.5 -88.5q57 -57 90 -132t33 -160zM781 361q0 70 -27.5 132.5
t-73.5 109.5q-47 46 -109.5 73.5t-132.5 27.5t-132.5 -27.5t-109.5 -73.5q-46 -47 -73.5 -109.5t-27.5 -132.5t27.5 -132.5t73.5 -109.5q47 -46 109.5 -73.5t132.5 -27.5t132.5 27.5t109.5 73.5q46 47 73.5 109.5t27.5 132.5z" />
    <glyph glyph-name="uni24D7" unicode="&#x24d7;" 
d="M267 625h92v-211q43 46 109 46q60 0 106 -39t46 -125v-195h-92v191q0 84 -79 84q-51 -1 -90 -68v-207h-92v524zM858 361q0 -85 -33 -160t-90 -132q-57 -56 -133.5 -88.5t-163.5 -32.5t-163.5 32.5t-133.5 88.5q-57 57 -90 132t-33 160t33 160t90 132q57 56 133.5 88.5
t163.5 32.5t163.5 -32.5t133.5 -88.5q57 -57 90 -132t33 -160zM781 361q0 70 -27.5 132.5t-73.5 109.5q-47 46 -109.5 73.5t-132.5 27.5t-132.5 -27.5t-109.5 -73.5q-46 -47 -73.5 -109.5t-27.5 -132.5t27.5 -132.5t73.5 -109.5q47 -46 109.5 -73.5t132.5 -27.5t132.5 27.5
t109.5 73.5q46 47 73.5 109.5t27.5 132.5z" />
    <glyph glyph-name="uni24D8" unicode="&#x24d8;" 
d="M390 79v397h92v-397h-92zM388 541v97h96v-97h-96zM858 361q0 -85 -33 -160t-90 -132q-57 -56 -133.5 -88.5t-163.5 -32.5t-163.5 32.5t-133.5 88.5q-57 57 -90 132t-33 160t33 160t90 132q57 56 133.5 88.5t163.5 32.5t163.5 -32.5t133.5 -88.5q57 -57 90 -132t33 -160z
M781 361q0 70 -27.5 132.5t-73.5 109.5q-47 46 -109.5 73.5t-132.5 27.5t-132.5 -27.5t-109.5 -73.5q-46 -47 -73.5 -109.5t-27.5 -132.5t27.5 -132.5t73.5 -109.5q47 -46 109.5 -73.5t132.5 -27.5t132.5 27.5t109.5 73.5q46 47 73.5 109.5t27.5 132.5z" />
    <glyph glyph-name="uni24D9" unicode="&#x24d9;" 
d="M409 220v267h93v-255q0 -76 -31 -111t-98 -38q-25 -2 -71 8v84q68 -15 91 -2q16 11 16 47zM407 544v97h97v-97h-97zM858 361q0 -85 -33 -160t-90 -132q-57 -56 -133.5 -88.5t-163.5 -32.5t-163.5 32.5t-133.5 88.5q-57 57 -90 132t-33 160t33 160t90 132
q57 56 133.5 88.5t163.5 32.5t163.5 -32.5t133.5 -88.5q57 -57 90 -132t33 -160zM781 361q0 70 -27.5 132.5t-73.5 109.5q-47 46 -109.5 73.5t-132.5 27.5t-132.5 -27.5t-109.5 -73.5q-46 -47 -73.5 -109.5t-27.5 -132.5t27.5 -132.5t73.5 -109.5q47 -46 109.5 -73.5
t132.5 -27.5t132.5 27.5t109.5 73.5q46 47 73.5 109.5t27.5 132.5z" />
    <glyph glyph-name="uni24DA" unicode="&#x24da;" 
d="M367 621v-264l154 161h112l-185 -195l185 -202h-113l-153 167v-167h-93v500h93zM858 361q0 -85 -33 -160t-90 -132q-57 -56 -133.5 -88.5t-163.5 -32.5t-163.5 32.5t-133.5 88.5q-57 57 -90 132t-33 160t33 160t90 132q57 56 133.5 88.5t163.5 32.5t163.5 -32.5
t133.5 -88.5q57 -57 90 -132t33 -160zM781 361q0 70 -27.5 132.5t-73.5 109.5q-47 46 -109.5 73.5t-132.5 27.5t-132.5 -27.5t-109.5 -73.5q-46 -47 -73.5 -109.5t-27.5 -132.5t27.5 -132.5t73.5 -109.5q47 -46 109.5 -73.5t132.5 -27.5t132.5 27.5t109.5 73.5
q46 47 73.5 109.5t27.5 132.5z" />
    <glyph glyph-name="uni24DB" unicode="&#x24db;" 
d="M389 75v568h93v-568h-93zM858 361q0 -85 -33 -160t-90 -132q-57 -56 -133.5 -88.5t-163.5 -32.5t-163.5 32.5t-133.5 88.5q-57 57 -90 132t-33 160t33 160t90 132q57 56 133.5 88.5t163.5 32.5t163.5 -32.5t133.5 -88.5q57 -57 90 -132t33 -160zM781 361
q0 70 -27.5 132.5t-73.5 109.5q-47 46 -109.5 73.5t-132.5 27.5t-132.5 -27.5t-109.5 -73.5q-46 -47 -73.5 -109.5t-27.5 -132.5t27.5 -132.5t73.5 -109.5q47 -46 109.5 -73.5t132.5 -27.5t132.5 27.5t109.5 73.5q46 47 73.5 109.5t27.5 132.5z" />
    <glyph glyph-name="uni24DC" unicode="&#x24dc;" 
d="M394 378q0 105 -66 105q-65 0 -65 -105v-218h-87v228q0 81 35.5 130t113.5 49q73 0 110 -48q37 48 109 48q79 0 116.5 -49t37.5 -130v-228h-87v218q0 105 -66 105t-66 -105v-218h-85v218zM858 361q0 -85 -33 -160t-90 -132q-57 -56 -133.5 -88.5t-163.5 -32.5
t-163.5 32.5t-133.5 88.5q-57 57 -90 132t-33 160t33 160t90 132q57 56 133.5 88.5t163.5 32.5t163.5 -32.5t133.5 -88.5q57 -57 90 -132t33 -160zM781 361q0 70 -27.5 132.5t-73.5 109.5q-47 46 -109.5 73.5t-132.5 27.5t-132.5 -27.5t-109.5 -73.5q-46 -47 -73.5 -109.5
t-27.5 -132.5t27.5 -132.5t73.5 -109.5q47 -46 109.5 -73.5t132.5 -27.5t132.5 27.5t109.5 73.5q46 47 73.5 109.5t27.5 132.5z" />
    <glyph glyph-name="uni24DD" unicode="&#x24dd;" 
d="M259 402q0 83 46.5 124.5t130.5 41.5q82 0 129 -43.5t47 -121.5v-241h-92v235q0 87 -84 87q-85 0 -85 -87v-235h-92v240zM858 361q0 -85 -33 -160t-90 -132q-57 -56 -133.5 -88.5t-163.5 -32.5t-163.5 32.5t-133.5 88.5q-57 57 -90 132t-33 160t33 160t90 132
q57 56 133.5 88.5t163.5 32.5t163.5 -32.5t133.5 -88.5q57 -57 90 -132t33 -160zM781 361q0 70 -27.5 132.5t-73.5 109.5q-47 46 -109.5 73.5t-132.5 27.5t-132.5 -27.5t-109.5 -73.5q-46 -47 -73.5 -109.5t-27.5 -132.5t27.5 -132.5t73.5 -109.5q47 -46 109.5 -73.5
t132.5 -27.5t132.5 27.5t109.5 73.5q46 47 73.5 109.5t27.5 132.5z" />
    <glyph glyph-name="uni24DE" unicode="&#x24de;" 
d="M644 360q0 -93 -60.5 -152t-148.5 -59t-148.5 59t-60.5 152t60.5 152t148.5 59t148.5 -59t60.5 -152zM318 360q0 -59 32.5 -93.5t84.5 -34.5t84.5 34.5t32.5 93.5t-32.5 93.5t-84.5 34.5t-84.5 -34.5t-32.5 -93.5zM858 361q0 -85 -33 -160t-90 -132q-57 -56 -133.5 -88.5
t-163.5 -32.5t-163.5 32.5t-133.5 88.5q-57 57 -90 132t-33 160t33 160t90 132q57 56 133.5 88.5t163.5 32.5t163.5 -32.5t133.5 -88.5q57 -57 90 -132t33 -160zM781 361q0 70 -27.5 132.5t-73.5 109.5q-47 46 -109.5 73.5t-132.5 27.5t-132.5 -27.5t-109.5 -73.5
q-46 -47 -73.5 -109.5t-27.5 -132.5t27.5 -132.5t73.5 -109.5q47 -46 109.5 -73.5t132.5 -27.5t132.5 27.5t109.5 73.5q46 47 73.5 109.5t27.5 132.5z" />
    <glyph glyph-name="uni24DF" unicode="&#x24df;" 
d="M453 281q47 0 72.5 34.5t25.5 90.5q0 55 -26 90q-25 34 -71 35h-1h2h-1q-51 -1 -89 -50v-157q42 -43 87 -43h1zM467 615q76 0 126 -54.5t50 -154.5t-50 -154.5t-126 -54.5q-63 0 -102 34v-159h-93v533h86v-33q49 43 109 43zM858 361q0 -85 -33 -160t-90 -132
q-57 -56 -133.5 -88.5t-163.5 -32.5t-163.5 32.5t-133.5 88.5q-57 57 -90 132t-33 160t33 160t90 132q57 56 133.5 88.5t163.5 32.5t163.5 -32.5t133.5 -88.5q57 -57 90 -132t33 -160zM781 361q0 70 -27.5 132.5t-73.5 109.5q-47 46 -109.5 73.5t-132.5 27.5t-132.5 -27.5
t-109.5 -73.5q-46 -47 -73.5 -109.5t-27.5 -132.5t27.5 -132.5t73.5 -109.5q47 -46 109.5 -73.5t132.5 -27.5t132.5 27.5t109.5 73.5q46 47 73.5 109.5t27.5 132.5z" />
    <glyph glyph-name="uni24E0" unicode="&#x24e0;" 
d="M419 281h1q45 0 87 43v157q-38 49 -89 50h-1h1h1h-1q-46 -1 -71 -35q-26 -35 -26 -90q0 -56 25.5 -90.5t72.5 -34.5zM405 615q60 0 109 -43v33h86v-533h-93v159q-39 -34 -102 -34q-76 0 -126 54.5t-50 154.5t50 154.5t126 54.5zM858 361q0 -85 -33 -160t-90 -132
q-57 -56 -133.5 -88.5t-163.5 -32.5t-163.5 32.5t-133.5 88.5q-57 57 -90 132t-33 160t33 160t90 132q57 56 133.5 88.5t163.5 32.5t163.5 -32.5t133.5 -88.5q57 -57 90 -132t33 -160zM781 361q0 70 -27.5 132.5t-73.5 109.5q-47 46 -109.5 73.5t-132.5 27.5t-132.5 -27.5
t-109.5 -73.5q-46 -47 -73.5 -109.5t-27.5 -132.5t27.5 -132.5t73.5 -109.5q47 -46 109.5 -73.5t132.5 -27.5t132.5 27.5t109.5 73.5q46 47 73.5 109.5t27.5 132.5z" />
    <glyph glyph-name="uni24E1" unicode="&#x24e1;" 
d="M344 540h86v-54q31 51 101 61q16 2 45 -1v-82h-35q-64 0 -105 -72v-249h-92v397zM858 361q0 -85 -33 -160t-90 -132q-57 -56 -133.5 -88.5t-163.5 -32.5t-163.5 32.5t-133.5 88.5q-57 57 -90 132t-33 160t33 160t90 132q57 56 133.5 88.5t163.5 32.5t163.5 -32.5
t133.5 -88.5q57 -57 90 -132t33 -160zM781 361q0 70 -27.5 132.5t-73.5 109.5q-47 46 -109.5 73.5t-132.5 27.5t-132.5 -27.5t-109.5 -73.5q-46 -47 -73.5 -109.5t-27.5 -132.5t27.5 -132.5t73.5 -109.5q47 -46 109.5 -73.5t132.5 -27.5t132.5 27.5t109.5 73.5
q46 47 73.5 109.5t27.5 132.5z" />
    <glyph glyph-name="uni24E2" unicode="&#x24e2;" 
d="M374 454q0 -19 11 -29q13 -13 70 -26l62 -14q40 -11 62.5 -38t22.5 -69q0 -53 -45 -91q-45 -37 -136 -40q-67 -3 -132 12v75q66 -11 134 -9q46 1 68 12q24 13 24 37q0 31 -45 42l-56 13q-131 28 -131 115q0 52 45.5 88.5t122.5 38.5q57 2 116 -12v-76q-68 13 -123 10
q-67 -3 -70 -39zM858 361q0 -85 -33 -160t-90 -132q-57 -56 -133.5 -88.5t-163.5 -32.5t-163.5 32.5t-133.5 88.5q-57 57 -90 132t-33 160t33 160t90 132q57 56 133.5 88.5t163.5 32.5t163.5 -32.5t133.5 -88.5q57 -57 90 -132t33 -160zM781 361q0 70 -27.5 132.5
t-73.5 109.5q-47 46 -109.5 73.5t-132.5 27.5t-132.5 -27.5t-109.5 -73.5q-46 -47 -73.5 -109.5t-27.5 -132.5t27.5 -132.5t73.5 -109.5q47 -46 109.5 -73.5t132.5 -27.5t132.5 27.5t109.5 73.5q46 47 73.5 109.5t27.5 132.5z" />
    <glyph glyph-name="uni24E3" unicode="&#x24e3;" 
d="M436 247v183h96v81h-96v129l-90 -30v-99h-73v-81h73v-205q1 -32 8 -52q7 -22 24 -36q16 -16 40.5 -24t55.5 -8h77v82h-62q-17 0 -26.5 3t-15.5 9t-8 14q-3 8 -3 34zM858 361q0 -85 -33 -160t-90 -132q-57 -56 -133.5 -88.5t-163.5 -32.5t-163.5 32.5t-133.5 88.5
q-57 57 -90 132t-33 160t33 160t90 132q57 56 133.5 88.5t163.5 32.5t163.5 -32.5t133.5 -88.5q57 -57 90 -132t33 -160zM781 361q0 70 -27.5 132.5t-73.5 109.5q-47 46 -109.5 73.5t-132.5 27.5t-132.5 -27.5t-109.5 -73.5q-46 -47 -73.5 -109.5t-27.5 -132.5t27.5 -132.5
t73.5 -109.5q47 -46 109.5 -73.5t132.5 -27.5t132.5 27.5t109.5 73.5q46 47 73.5 109.5t27.5 132.5z" />
    <glyph glyph-name="uni24E4" unicode="&#x24e4;" 
d="M259 296v241h92v-235q0 -87 85 -87q84 0 84 87v235h92v-241q0 -78 -47 -121.5t-129 -43.5q-84 0 -130.5 41t-46.5 124zM858 361q0 -85 -33 -160t-90 -132q-57 -56 -133.5 -88.5t-163.5 -32.5t-163.5 32.5t-133.5 88.5q-57 57 -90 132t-33 160t33 160t90 132
q57 56 133.5 88.5t163.5 32.5t163.5 -32.5t133.5 -88.5q57 -57 90 -132t33 -160zM781 361q0 70 -27.5 132.5t-73.5 109.5q-47 46 -109.5 73.5t-132.5 27.5t-132.5 -27.5t-109.5 -73.5q-46 -47 -73.5 -109.5t-27.5 -132.5t27.5 -132.5t73.5 -109.5q47 -46 109.5 -73.5
t132.5 -27.5t132.5 27.5t109.5 73.5q46 47 73.5 109.5t27.5 132.5z" />
    <glyph glyph-name="uni24E5" unicode="&#x24e5;" 
d="M479 131h-85l-161 398h93l112 -285l112 285h92zM858 361q0 -85 -33 -160t-90 -132q-57 -56 -133.5 -88.5t-163.5 -32.5t-163.5 32.5t-133.5 88.5q-57 57 -90 132t-33 160t33 160t90 132q57 56 133.5 88.5t163.5 32.5t163.5 -32.5t133.5 -88.5q57 -57 90 -132t33 -160z
M781 361q0 70 -27.5 132.5t-73.5 109.5q-47 46 -109.5 73.5t-132.5 27.5t-132.5 -27.5t-109.5 -73.5q-46 -47 -73.5 -109.5t-27.5 -132.5t27.5 -132.5t73.5 -109.5q47 -46 109.5 -73.5t132.5 -27.5t132.5 27.5t109.5 73.5q46 47 73.5 109.5t27.5 132.5z" />
    <glyph glyph-name="uni24E6" unicode="&#x24e6;" 
d="M438 403l-56 -260h-72l-107 406h81l60 -261l60 261h67l63 -262l62 262h81l-111 -406h-72zM858 361q0 -85 -33 -160t-90 -132q-57 -56 -133.5 -88.5t-163.5 -32.5t-163.5 32.5t-133.5 88.5q-57 57 -90 132t-33 160t33 160t90 132q57 56 133.5 88.5t163.5 32.5t163.5 -32.5
t133.5 -88.5q57 -57 90 -132t33 -160zM781 361q0 70 -27.5 132.5t-73.5 109.5q-47 46 -109.5 73.5t-132.5 27.5t-132.5 -27.5t-109.5 -73.5q-46 -47 -73.5 -109.5t-27.5 -132.5t27.5 -132.5t73.5 -109.5q47 -46 109.5 -73.5t132.5 -27.5t132.5 27.5t109.5 73.5
q46 47 73.5 109.5t27.5 132.5z" />
    <glyph glyph-name="uni24E7" unicode="&#x24e7;" 
d="M436 432l87 126h108l-139 -198l146 -200h-108l-94 131l-95 -131h-107l146 202l-141 196h107zM858 361q0 -85 -33 -160t-90 -132q-57 -56 -133.5 -88.5t-163.5 -32.5t-163.5 32.5t-133.5 88.5q-57 57 -90 132t-33 160t33 160t90 132q57 56 133.5 88.5t163.5 32.5
t163.5 -32.5t133.5 -88.5q57 -57 90 -132t33 -160zM781 361q0 70 -27.5 132.5t-73.5 109.5q-47 46 -109.5 73.5t-132.5 27.5t-132.5 -27.5t-109.5 -73.5q-46 -47 -73.5 -109.5t-27.5 -132.5t27.5 -132.5t73.5 -109.5q47 -46 109.5 -73.5t132.5 -27.5t132.5 27.5t109.5 73.5
q46 47 73.5 109.5t27.5 132.5z" />
    <glyph glyph-name="uni24E8" unicode="&#x24e8;" 
d="M242 597h95l107 -254l108 254h90l-225 -529h-90l71 166zM858 361q0 -85 -33 -160t-90 -132q-57 -56 -133.5 -88.5t-163.5 -32.5t-163.5 32.5t-133.5 88.5q-57 57 -90 132t-33 160t33 160t90 132q57 56 133.5 88.5t163.5 32.5t163.5 -32.5t133.5 -88.5q57 -57 90 -132
t33 -160zM781 361q0 70 -27.5 132.5t-73.5 109.5q-47 46 -109.5 73.5t-132.5 27.5t-132.5 -27.5t-109.5 -73.5q-46 -47 -73.5 -109.5t-27.5 -132.5t27.5 -132.5t73.5 -109.5q47 -46 109.5 -73.5t132.5 -27.5t132.5 27.5t109.5 73.5q46 47 73.5 109.5t27.5 132.5z" />
    <glyph glyph-name="uni24E9" unicode="&#x24e9;" 
d="M473 479h-195v79h308v-72l-188 -247h202v-79h-328v51zM858 361q0 -85 -33 -160t-90 -132q-57 -56 -133.5 -88.5t-163.5 -32.5t-163.5 32.5t-133.5 88.5q-57 57 -90 132t-33 160t33 160t90 132q57 56 133.5 88.5t163.5 32.5t163.5 -32.5t133.5 -88.5q57 -57 90 -132
t33 -160zM781 361q0 70 -27.5 132.5t-73.5 109.5q-47 46 -109.5 73.5t-132.5 27.5t-132.5 -27.5t-109.5 -73.5q-46 -47 -73.5 -109.5t-27.5 -132.5t27.5 -132.5t73.5 -109.5q47 -46 109.5 -73.5t132.5 -27.5t132.5 27.5t109.5 73.5q46 47 73.5 109.5t27.5 132.5z" />
    <glyph glyph-name="SF100000" unicode="&#x2500;" 
d="M0 333v50h872v-50h-872z" />
    <glyph glyph-name="uni2501" unicode="&#x2501;" 
d="M0 306v104h872v-104h-872z" />
    <glyph glyph-name="SF110000" unicode="&#x2502;" 
d="M408 858h56v-1000h-56v1000z" />
    <glyph glyph-name="uni2503" unicode="&#x2503;" 
d="M377 858h118v-1000h-118v1000z" />
    <glyph glyph-name="SF010000" unicode="&#x250c;" 
d="M872 383v-50h-408v-475h-56v525h464z" />
    <glyph glyph-name="uni250D" unicode="&#x250d;" 
d="M408 410h464v-104h-408v-448h-56v552z" />
    <glyph glyph-name="uni250E" unicode="&#x250e;" 
d="M872 383v-50h-377v-475h-118v525h495z" />
    <glyph glyph-name="uni250F" unicode="&#x250f;" 
d="M872 410v-104h-377v-448h-118v552h495z" />
    <glyph glyph-name="SF030000" unicode="&#x2510;" 
d="M464 -142h-56v475h-408v50h464v-525z" />
    <glyph glyph-name="uni2511" unicode="&#x2511;" 
d="M464 -142h-56v448h-408v104h464v-552z" />
    <glyph glyph-name="uni2512" unicode="&#x2512;" 
d="M495 383v-525h-118v475h-377v50h495z" />
    <glyph glyph-name="uni2513" unicode="&#x2513;" 
d="M495 -142h-118v448h-377v104h495v-552z" />
    <glyph glyph-name="SF020000" unicode="&#x2514;" 
d="M408 858h56v-475h408v-50h-464v525z" />
    <glyph glyph-name="uni2515" unicode="&#x2515;" 
d="M408 858h56v-448h408v-104h-464v552z" />
    <glyph glyph-name="uni2516" unicode="&#x2516;" 
d="M377 333v525h118v-475h377v-50h-495z" />
    <glyph glyph-name="uni2517" unicode="&#x2517;" 
d="M377 858h118v-448h377v-104h-495v552z" />
    <glyph glyph-name="SF040000" unicode="&#x2518;" 
d="M464 858v-525h-464v50h408v475h56z" />
    <glyph glyph-name="uni2519" unicode="&#x2519;" 
d="M464 306h-464v104h408v448h56v-552z" />
    <glyph glyph-name="uni251A" unicode="&#x251a;" 
d="M0 333v50h377v475h118v-525h-495z" />
    <glyph glyph-name="uni251B" unicode="&#x251b;" 
d="M0 306v104h377v448h118v-552h-495z" />
    <glyph glyph-name="SF080000" unicode="&#x251c;" 
d="M409 858h56v-475h408v-50h-408v-475h-56v1000z" />
    <glyph glyph-name="uni251D" unicode="&#x251d;" 
d="M408 858h56v-448h408v-104h-408v-448h-56v1000z" />
    <glyph glyph-name="uni251E" unicode="&#x251e;" 
d="M407 359h-31v499h118v-475h378v-50h-409v-475h-56v501z" />
    <glyph glyph-name="uni251F" unicode="&#x251f;" 
d="M408 858h56v-475h408v-50h-377v-475h-118v500h31v500z" />
    <glyph glyph-name="uni2520" unicode="&#x2520;" 
d="M378 858h118v-475h376v-50h-376v-475h-118v1000z" />
    <glyph glyph-name="uni2521" unicode="&#x2521;" 
d="M464 306v-448h-56v500h-31v500h118v-448h377v-104h-408z" />
    <glyph glyph-name="uni2522" unicode="&#x2522;" 
d="M408 358v500h56v-448h408v-104h-377v-448h-118v500h31z" />
    <glyph glyph-name="uni2523" unicode="&#x2523;" 
d="M377 858h118v-448h377v-104h-377v-448h-118v1000z" />
    <glyph glyph-name="SF090000" unicode="&#x2524;" 
d="M464 -142h-56v475h-408v50h408v475h56v-1000z" />
    <glyph glyph-name="uni2525" unicode="&#x2525;" 
d="M464 -142h-56v448h-408v104h408v448h56v-1000z" />
    <glyph glyph-name="uni2526" unicode="&#x2526;" 
d="M464 -142h-56v475h-408v50h377v475h118v-500h-31v-500z" />
    <glyph glyph-name="uni2527" unicode="&#x2527;" 
d="M464 358h31v-500h-118v475h-377v50h408v475h56v-500z" />
    <glyph glyph-name="uni2528" unicode="&#x2528;" 
d="M494 -142h-118v475h-376v50h376v475h118v-1000z" />
    <glyph glyph-name="uni2529" unicode="&#x2529;" 
d="M464 358v-500h-56v448h-408v104h377v448h118v-500h-31z" />
    <glyph glyph-name="uni252A" unicode="&#x252a;" 
d="M408 410v448h56v-500h31v-500h-118v448h-377v104h408z" />
    <glyph glyph-name="uni252B" unicode="&#x252b;" 
d="M495 -142h-118v448h-377v104h377v448h118v-1000z" />
    <glyph glyph-name="SF060000" unicode="&#x252c;" 
d="M872 383v-50h-408v-475h-56v475h-408v50h872z" />
    <glyph glyph-name="uni252D" unicode="&#x252d;" 
d="M872 383v-50h-408v-475h-56v448h-408v104h436v-27h436z" />
    <glyph glyph-name="uni252E" unicode="&#x252e;" 
d="M436 383v27h436v-104h-408v-448h-56v475h-408v50h436z" />
    <glyph glyph-name="uni252F" unicode="&#x252f;" 
d="M872 410v-104h-408v-448h-56v448h-408v104h872z" />
    <glyph glyph-name="uni2530" unicode="&#x2530;" 
d="M872 383v-50h-377v-475h-118v475h-377v50h872z" />
    <glyph glyph-name="uni2531" unicode="&#x2531;" 
d="M436 383h436v-50h-377v-475h-118v448h-377v104h436v-27z" />
    <glyph glyph-name="uni2532" unicode="&#x2532;" 
d="M377 333h-377v50h436v27h436v-104h-377v-448h-118v475z" />
    <glyph glyph-name="uni2533" unicode="&#x2533;" 
d="M872 410v-104h-377v-448h-118v448h-377v104h872z" />
    <glyph glyph-name="SF070000" unicode="&#x2534;" 
d="M0 333v50h408v475h56v-475h408v-50h-872z" />
    <glyph glyph-name="uni2535" unicode="&#x2535;" 
d="M436 333v-27h-436v104h408v448h56v-475h408v-50h-436z" />
    <glyph glyph-name="uni2536" unicode="&#x2536;" 
d="M0 333v50h408v475h56v-448h408v-104h-436v27h-436z" />
    <glyph glyph-name="uni2537" unicode="&#x2537;" 
d="M0 306v104h408v448h56v-448h408v-104h-872z" />
    <glyph glyph-name="uni2538" unicode="&#x2538;" 
d="M0 333v50h377v475h118v-475h377v-50h-872z" />
    <glyph glyph-name="uni2539" unicode="&#x2539;" 
d="M495 383h377v-50h-436v-27h-436v104h377v448h118v-475z" />
    <glyph glyph-name="uni253A" unicode="&#x253a;" 
d="M436 333h-436v50h377v475h118v-448h377v-104h-436v27z" />
    <glyph glyph-name="uni253B" unicode="&#x253b;" 
d="M0 306v104h377v448h118v-448h377v-104h-872z" />
    <glyph glyph-name="SF050000" unicode="&#x253c;" 
d="M408 858h56v-475h408v-50h-408v-475h-56v475h-408v50h408v475z" />
    <glyph glyph-name="uni253D" unicode="&#x253d;" 
d="M408 858h56v-475h408v-50h-408v-475h-56v448h-408v104h408v448z" />
    <glyph glyph-name="uni253E" unicode="&#x253e;" 
d="M464 858v-448h408v-104h-408v-448h-56v475h-408v50h408v475h56z" />
    <glyph glyph-name="uni253F" unicode="&#x253f;" 
d="M464 410h408v-104h-408v-447h-56v447h-408v104h408v448h56v-448z" />
    <glyph glyph-name="uni2540" unicode="&#x2540;" 
d="M0 383h377v475h118v-475h377v-50h-408v-475h-56v475h-408v50z" />
    <glyph glyph-name="uni2541" unicode="&#x2541;" 
d="M0 333v50h408v475h56v-475h408v-50h-377v-475h-118v475h-377z" />
    <glyph glyph-name="uni2542" unicode="&#x2542;" 
d="M0 333v50h377v475h118v-475h377v-50h-377v-475h-118v475h-377z" />
    <glyph glyph-name="uni2543" unicode="&#x2543;" 
d="M464 333v-475h-56v448h-408v104h377v448h118v-475h377v-50h-408z" />
    <glyph glyph-name="uni2544" unicode="&#x2544;" 
d="M464 306v-448h-56v475h-408v50h377v475h118v-448h377v-104h-408z" />
    <glyph glyph-name="uni2545" unicode="&#x2545;" 
d="M408 410v448h56v-475h408v-50h-377v-475h-118v448h-377v104h408z" />
    <glyph glyph-name="uni2546" unicode="&#x2546;" 
d="M408 383v475h56v-448h408v-104h-377v-448h-118v475h-377v50h408z" />
    <glyph glyph-name="uni2547" unicode="&#x2547;" 
d="M464 306v-448h-56v448h-408v104h377v448h118v-448h377v-104h-408z" />
    <glyph glyph-name="uni2548" unicode="&#x2548;" 
d="M408 410v448h56v-448h408v-104h-377v-448h-118v448h-377v104h408z" />
    <glyph glyph-name="uni2549" unicode="&#x2549;" 
d="M495 383h377v-50h-377v-475h-118v448h-377v104h377v448h118v-475z" />
    <glyph glyph-name="uni254A" unicode="&#x254a;" 
d="M377 333h-377v50h377v475h118v-448h377v-104h-377v-448h-118v475z" />
    <glyph glyph-name="uni254B" unicode="&#x254b;" 
d="M0 410h377v448h118v-448h377v-104h-377v-448h-118v448h-377v104z" />
    <glyph glyph-name="shade" unicode="&#x2592;" 
d="M741 706h-611v-602h611v602zM218 172q0 -12 -9 -21t-21 -9t-21 9t-9 21t9 21t21 9t21 -9t9 -21zM342 172q0 -12 -9 -21t-21 -9t-21 9t-9 21t9 21t21 9t21 -9t9 -21zM466 172q0 -12 -9 -21t-21 -9t-21 9t-9 21t9 21t21 9t21 -9t9 -21zM590 172q0 -12 -9 -21t-21 -9t-21 9
t-9 21t9 21t21 9t21 -9t9 -21zM714 172q0 -12 -9 -21t-21 -9t-21 9t-9 21t9 21t21 9t21 -9t9 -21zM218 477q0 -12 -9 -21t-21 -9t-21 9t-9 21t9 21t21 9t21 -9t9 -21zM342 477q0 -12 -9 -21t-21 -9t-21 9t-9 21t9 21t21 9t21 -9t9 -21zM466 477q0 -12 -9 -21t-21 -9t-21 9
t-9 21t9 21t21 9t21 -9t9 -21zM590 477q0 -12 -9 -21t-21 -9t-21 9t-9 21t9 21t21 9t21 -9t9 -21zM714 477q0 -12 -9 -21t-21 -9t-21 9t-9 21t9 21t21 9t21 -9t9 -21zM263 322q0 -12 -9 -21t-21 -9t-21 9t-9 21t9 21t21 9t21 -9t9 -21zM392 322q0 -12 -9 -21t-21 -9t-21 9
t-9 21t9 21t21 9t21 -9t9 -21zM522 322q0 -12 -9 -21t-21 -9t-21 9t-9 21t9 21t21 9t21 -9t9 -21zM652 322q0 -12 -9 -21t-21 -9t-21 9t-9 21t9 21t21 9t21 -9t9 -21zM263 632q0 -12 -9 -21t-21 -9t-21 9t-9 21t9 21t21 9t21 -9t9 -21zM392 632q0 -12 -9 -21t-21 -9t-21 9
t-9 21t9 21t21 9t21 -9t9 -21zM522 632q0 -12 -9 -21t-21 -9t-21 9t-9 21t9 21t21 9t21 -9t9 -21zM652 632q0 -12 -9 -21t-21 -9t-21 9t-9 21t9 21t21 9t21 -9t9 -21zM80 48v712h712v-712h-712z" />
    <glyph glyph-name="filledbox" unicode="&#x25a0;" 
d="M748 101h-624v616h624v-616z" />
    <glyph glyph-name="H22073" unicode="&#x25a1;" 
d="M748 101h-624v616h624v-616zM215 188h442v442h-442v-442z" />
    <glyph glyph-name="uni25A3" unicode="&#x25a3;" 
d="M86 54v702h702v-702h-702zM730 699h-586v-588h586v588zM265 231v348h344v-348h-344z" />
    <glyph glyph-name="uni25A4" unicode="&#x25a4;" 
d="M741 706h-611v-103h611v103zM741 549h-611v-118h611v118zM741 379h-611v-118h611v118zM741 207h-611v-103h611v103zM80 48v712h712v-712h-712z" />
    <glyph glyph-name="uni25A5" unicode="&#x25a5;" 
d="M135 710v-611h103v611h-103zM292 710v-611h118v611h-118zM462 710v-611h118v611h-118zM634 710v-611h103v611h-103zM80 48v712h712v-712h-712z" />
    <glyph glyph-name="uni25A6" unicode="&#x25a6;" 
d="M739 704h-121v-112h121v112zM575 704h-121v-112h121v112zM739 541h-121v-112h121v112zM413 704h-123v-112h123v112zM575 541h-121v-112h121v112zM739 380h-121v-113h121v113zM248 704h-117v-112h117v112zM413 541h-123v-112h123v112zM575 380h-121v-113h121v113zM739 216
h-121v-111h121v111zM248 541h-117v-112h117v112zM413 380h-123v-113h123v113zM575 216h-121v-111h121v111zM248 380h-117v-113h117v113zM413 216h-123v-111h123v111zM248 216h-117v-111h117v111zM80 48v712h712v-712h-712z" />
    <glyph glyph-name="uni25A7" unicode="&#x25a7;" 
d="M349 706h-169l562 -571v177zM742 706h-99l99 -105v105zM572 706h-151l321 -328v156zM132 217v-113h109zM132 682v-176l404 -402h168zM132 438v-154l181 -180h149zM80 48v712h712v-712h-712z" />
    <glyph glyph-name="uni25A8" unicode="&#x25a8;" 
d="M523 706l-393 -394v-177l562 571h-169zM130 706v-105l98 105h-98zM300 706l-170 -172v-156l321 328h-151zM740 217l-109 -113h109v113zM740 682l-572 -578h168l404 402v176zM740 438l-330 -334h149l181 180v154zM80 48v712h712v-712h-712z" />
    <glyph glyph-name="uni25A9" unicode="&#x25a9;" 
d="M581 712l63 -73l63 73h-126zM743 686l-69 -74l69 -74v148zM540 690l-75 -77l75 -79l75 78zM644 586l-74 -78l74 -78l75 77zM374 712l63 -73l62 73h-125zM743 478l-69 -74l69 -74v148zM333 690l-75 -77l75 -79l75 78zM437 586l-74 -78l74 -79l73 79zM540 481l-75 -76
l75 -79l75 79zM644 378l-74 -79l74 -77l75 78zM743 270l-69 -75l69 -74v149zM166 712l63 -73l63 73h-126zM131 686v-148l68 75zM644 169l-62 -70h125zM540 273l-75 -78l75 -77l75 78zM229 586l-75 -78l75 -78l74 77zM333 481l-75 -76l75 -79l75 78zM437 378l-74 -78l74 -79
l73 79zM131 478v-148l68 74zM437 169l-62 -70h123zM333 273l-75 -77l75 -78l75 77zM229 378l-75 -78l75 -78l74 77zM131 270v-149l68 74zM229 169l-62 -70h124zM80 48v712h712v-712h-712z" />
    <glyph glyph-name="triagup" unicode="&#x25b2;" 
d="M846 101h-821l411 643z" />
    <glyph glyph-name="uni25B3" unicode="&#x25b3;" 
d="M846 101h-821l411 643zM700 183l-264 407l-264 -407h528z" />
    <glyph glyph-name="uni25B6" unicode="&#x25b6;" 
d="M125 815l642 -410l-642 -410v820z" />
    <glyph glyph-name="uni25B7" unicode="&#x25b7;" 
d="M125 815l642 -410l-642 -410v820zM206 669v-528l407 264z" />
    <glyph glyph-name="triagdn" unicode="&#x25bc;" 
d="M846 708l-410 -643l-411 643h821z" />
    <glyph glyph-name="uni25BD" unicode="&#x25bd;" 
d="M846 708l-410 -643l-411 643h821zM700 626h-528l264 -407z" />
    <glyph glyph-name="uni25C0" unicode="&#x25c0;" 
d="M727 814v-821l-643 411z" />
    <glyph glyph-name="uni25C1" unicode="&#x25c1;" 
d="M727 815v-820l-642 410zM646 669l-407 -264l407 -264v528z" />
    <glyph glyph-name="uni25C6" unicode="&#x25c6;" 
d="M816 407l-380 -376l-380 374l380 374z" />
    <glyph glyph-name="uni25C7" unicode="&#x25c7;" 
d="M816 407l-380 -376l-380 374l380 374zM434 148l255 257l-253 253l-253 -253z" />
    <glyph glyph-name="uni25C8" unicode="&#x25c8;" 
d="M435 -24l-418 429l421 428l419 -428zM437 755l-349 -350l349 -351l348 351zM435 180l-221 223l225 228l222 -226z" />
    <glyph glyph-name="circle" unicode="&#x25cb;" 
d="M103 404q0 141 99.5 237.5t233.5 96.5t233.5 -96.5t99.5 -237.5t-99.5 -237.5t-233.5 -96.5t-233.5 96.5t-99.5 237.5zM201 404q0 -106 72.5 -175.5t162.5 -69.5t162.5 69.5t72.5 175.5t-72.5 175.5t-162.5 69.5t-162.5 -69.5t-72.5 -175.5z" />
    <glyph glyph-name="uni25CE" unicode="&#x25ce;" 
d="M64 405q0 157 109.5 264.5t262.5 107.5t262.5 -107.5t109.5 -264.5t-109.5 -264.5t-262.5 -107.5q-154 2 -263 108.5t-109 263.5zM735 405q0 129 -88 214t-211 85t-211 -85t-88 -214t88 -214t211 -85t211 85t88 214zM220 405q0 91 64 152t152 61t152 -61t64 -152
t-64 -152t-152 -61t-152 61t-64 152zM293 405q0 -63 43.5 -103t99.5 -40t99.5 40t43.5 103t-43.5 103t-99.5 40t-99.5 -40t-43.5 -103z" />
    <glyph glyph-name="H18533" unicode="&#x25cf;" 
d="M103 404q0 141 99.5 237.5t233.5 96.5t233.5 -96.5t99.5 -237.5t-99.5 -237.5t-233.5 -96.5t-233.5 96.5t-99.5 237.5z" />
    <glyph glyph-name="uni25D0" unicode="&#x25d0;" 
d="M434 31q-77 0 -144.5 28.5t-116.5 76.5q-50 51 -80.5 120t-30.5 149q0 79 30 147.5t81 117.5q49 50 116 79.5t144 29.5t144 -29.5t116 -78.5q49 -50 81 -118.5t32 -147.5q0 -81 -32 -150t-81 -120q-49 -48 -115.5 -76t-143.5 -28zM436 704v-600q120 0 209.5 87t89.5 213
t-89.5 213t-209.5 87z" />
    <glyph glyph-name="uni25D1" unicode="&#x25d1;" 
d="M434 31q-77 0 -144.5 28.5t-116.5 76.5q-50 51 -80.5 120t-30.5 149q0 79 30 147.5t81 117.5q49 50 116 79.5t144 29.5t144 -29.5t116 -78.5q49 -50 81 -118.5t32 -147.5q0 -81 -32 -150t-81 -120q-49 -48 -115.5 -76t-143.5 -28zM436 704q-120 0 -209.5 -87t-89.5 -213
t89.5 -213t209.5 -87v600z" />
    <glyph glyph-name="uni2605" unicode="&#x2605;" 
d="M186 54l94 298l-243 168h303l96 265l91 -265h307l-251 -174l89 -289l-236 178z" />
    <glyph glyph-name="uni2606" unicode="&#x2606;" 
d="M186 54l94 298l-243 168h303l96 265l91 -265h307l-251 -174l89 -289l-236 178zM214 463l133 -89l-52 -169l141 100l129 -100l-47 169l141 89h-173l-50 153l-56 -153h-166z" />
    <glyph glyph-name="uni260E" unicode="&#x260e;" 
d="M748 409q19 0 46 1t40 6q0 -34 -17.5 -40.5t-40.5 -4.5l-76 4q-21 0 -38 9.5t-20 40.5q24 -9 47 -12t59 -4zM124 409q34 1 57.5 4t47.5 12q-5 -31 -21 -40.5t-37 -9.5l-76 -5q-24 -1 -41 5.5t-17 40.5q13 -5 40 -6t47 -1zM518 463l11 64q-93 13 -188 -2l10 -62
q85 9 167 0zM554 291q0 47 -35.5 81t-84.5 34t-84.5 -34t-35.5 -81q0 -49 35.5 -84t84.5 -35t84.5 35t35.5 84zM569 517v-45q0 -15 5 -25t25 -31q16 -13 28 -24t23 -32l72 -209q30 -86 -40 -86h-494q-70 0 -39 86l72 209q11 21 23 32t28 24q20 21 25 31t5 25v45
q-28 -5 -47.5 -22t-20.5 -39q-31 -10 -52 -13t-52 -4q-21 -2 -48 0t-42 5q3 37 8 60.5t17 39.5q10 18 29.5 29.5t53.5 21.5q68 19 145.5 29t142.5 10q69 0 144 -10t143 -29q33 -9 52 -21t30 -30q12 -16 17 -39.5t9 -60.5q-15 -3 -42 -5t-48 0q-34 1 -53.5 4t-50.5 13
q-2 21 -21 38.5t-47 22.5z" />
    <glyph glyph-name="uni260F" unicode="&#x260f;" 
d="M494 494l4 32q-62 12 -125 0l4 -32q59 8 117 0zM770 423q23 -1 28 6t-1 34q-8 45 -33.5 65.5t-78.5 36.5q-60 14 -126.5 21t-122.5 7t-122.5 -7t-124.5 -21q-54 -16 -79.5 -36.5t-33.5 -65.5q-6 -27 -1.5 -34t28.5 -6l61 2q20 0 27.5 7.5t13.5 43.5q6 39 42.5 56.5
t76.5 26.5q50 9 111 9t115 -9q37 -9 73 -26.5t44 -57.5q7 -35 14.5 -42.5t28.5 -7.5zM726 149q33 -87 -50 -87h-478q-84 0 -51 87l72 210q8 18 17.5 29.5t35.5 30.5q18 15 22.5 22t4.5 29v42q-31 -8 -44.5 -21.5t-16.5 -35.5q-9 -45 -24 -56t-42 -11l-76 -6q-25 -1 -45 9.5
t-13 56.5q8 64 30.5 97t80.5 50q64 18 143 29t144 11q71 0 147 -11t142 -31q56 -15 79 -48t31 -98q4 -45 -15 -55.5t-43 -8.5l-76 5q-28 0 -44 11t-22 56q-4 20 -18.5 34.5t-41.5 21.5v-41q0 -22 4 -29t22 -21q8 -10 15.5 -15t14.5 -11q6 -6 11.5 -15.5t11.5 -19.5zM693 138
l-68 195q-5 14 -11.5 23.5t-13.5 15.5q-5 6 -13 12.5t-18 12.5q-19 14 -25 32.5t-6 47.5v59l-19 -84q-19 5 -30 5.5t-53 1.5q-44 -1 -54.5 -2.5t-29.5 -5.5l-17 90v-63q0 -30 -6.5 -48.5t-24.5 -32.5q-27 -18 -38 -29t-18 -35l-67 -195q-11 -33 8 -33h496q19 0 8 33z
M562 300q0 -51 -37.5 -89t-88.5 -38t-88.5 38t-37.5 89t37.5 88t88.5 37t88.5 -37t37.5 -88zM523 300q0 37 -27 63t-61 26t-61 -26t-27 -63t27 -63t61 -26t61 26t27 63z" />
    <glyph glyph-name="uni261C" unicode="&#x261c;" 
d="M783 198h-116v41h-33q-10 -1 -20 -4t-21 -7q-27 -14 -50.5 -19.5t-46.5 -6.5q-21 -1 -42 -1t-46 2q-8 -13 -23.5 -17.5t-29.5 -4.5q-15 0 -33.5 3.5t-34.5 11.5q-18 9 -30 22t-12 33q0 22 20 37q-7 8 -7 25q0 28 25 40q-5 10 -5 20q0 14 15 28l-96 5q-11 0 -28 1.5
t-33 5.5q-18 5 -30.5 17t-12.5 34q0 24 22.5 35.5t82.5 13.5q72 4 144 4l80 1q8 5 19 9t23 4q23 0 46 -7t44 -16q21 -11 41.5 -22.5t40.5 -21.5l11 -5h20v39h116v-300zM726 230v236h-35v-236h35zM667 269v159h-19l-10 3q-20 8 -41 20t-42 22q-22 11 -43.5 19.5t-41.5 8.5
q-22 0 -32.5 -6t-22.5 -19l-44 -45q-23 -20 -22 -30t12.5 -14.5t21.5 -4.5q19 0 32.5 8t26.5 19l37 33l12 -15l-36 -41l13.5 -13.5t16.5 -17.5l8 -1t18 -2q11 -1 24.5 -1.5t27.5 0.5t29 4t26 7q7 3 10 -4q2 -7 -4 -12q-15 -14 -64 -19l-47 -2h-25q-5 -37 -45 -46
q0 -31 -28 -43v-7q41 -2 88 1.5t90 25.5q10 5 19.5 7.5t18.5 3.5q10 2 19 2h17zM436 310q11 0 20 5.5t9 17.5q0 9 -12 21.5t-25 12.5q-27 -11 -45 -11q-20 0 -38.5 10.5t-19.5 31.5q-7 -3 -14.5 -10.5t-7.5 -13.5q0 -5 4.5 -11.5t13.5 -10.5q7 -5 14.5 -9.5t13.5 -6.5
q6 -3 18 -7.5t25 -8.5q12 -5 24.5 -7.5t19.5 -2.5zM397 489h-70q-63 0 -127 -2q-37 -1 -60.5 -5.5t-23.5 -19.5q0 -16 18.5 -22t33.5 -6l118 -5h53zM397 261q12 0 17.5 6t5.5 17l-18 5q-17 4 -41 15t-37 19q-4 2 -10.5 5t-11.5 3q-11 0 -15.5 -5.5t-4.5 -12.5
q0 -11 10.5 -20.5t21.5 -13.5q13 -5 40.5 -11.5t42.5 -6.5zM355 205q12 0 25 3.5t13 14.5q0 5 -3.5 8t-9.5 4q-35 5 -59 13.5t-38 20.5q-7 0 -11 -5.5t-3 -13.5q1 -11 11 -19.5t23 -13.5q14 -6 28 -9t24 -3z" />
    <glyph glyph-name="uni261E" unicode="&#x261e;" 
d="M110 198v300h116v-39h20l11 5q20 10 40.5 21.5t41.5 22.5q21 9 44 16t46 7q12 0 23 -4t19 -9l80 -1q72 0 144 -4q60 -2 82.5 -13.5t22.5 -35.5q0 -22 -12.5 -34t-30.5 -17q-16 -4 -33 -5.5t-28 -1.5l-96 -5q15 -14 15 -28q0 -10 -5 -20q25 -12 25 -40q0 -17 -7 -25
q20 -15 20 -37q0 -20 -12 -33t-30 -22q-16 -8 -34.5 -11.5t-33.5 -3.5q-14 0 -29.5 4.5t-23.5 17.5q-25 -2 -46 -2t-42 1q-23 1 -46.5 6.5t-50.5 19.5q-11 4 -21 7t-20 4h-33v-41h-116zM167 230h35v236h-35v-236zM226 269h17t19 -2q9 -1 18.5 -3.5t19.5 -7.5
q43 -22 90 -25.5t88 -1.5v7q-28 12 -28 43q-40 9 -45 46h-25l-47 2q-49 5 -64 19q-6 5 -4 12q3 7 10 4q11 -4 26 -7t29 -4t27.5 -0.5t24.5 1.5q10 1 18 2l8 1q6 7 16.5 17.5l13.5 13.5l-36 41l12 15l37 -33q13 -11 26.5 -19t32.5 -8q10 0 21.5 4.5t12.5 14.5t-22 30l-44 45
q-12 13 -22.5 19t-32.5 6q-20 0 -41.5 -8.5t-43.5 -19.5q-21 -10 -42 -22t-41 -20l-10 -3h-19v-159zM457 310q7 0 19.5 2.5t24.5 7.5q13 4 25 8.5t18 7.5q6 2 13.5 6.5t14.5 9.5q9 4 13.5 10.5t4.5 11.5q0 6 -7.5 13.5t-14.5 10.5q-1 -21 -19.5 -31.5t-38.5 -10.5
q-18 0 -45 11q-13 0 -25 -12.5t-12 -21.5q0 -12 9 -17.5t20 -5.5zM496 489l58 -60h53l118 5q15 0 33.5 6t18.5 22q0 15 -23.5 19.5t-60.5 5.5q-64 2 -127 2h-70zM496 261q15 0 42.5 6.5t40.5 11.5q11 4 21.5 13.5t10.5 20.5q0 7 -4.5 12.5t-15.5 5.5q-5 0 -11.5 -3t-10.5 -5
q-13 -8 -37 -19t-41 -15l-18 -5q0 -11 5.5 -17t17.5 -6zM538 205q10 0 24 3t28 9q13 5 23 13.5t11 19.5q1 8 -3 13.5t-11 5.5q-14 -12 -38 -20.5t-59 -13.5q-6 -1 -9.5 -4t-3.5 -8q0 -11 13 -14.5t25 -3.5z" />
    <glyph glyph-name="female" unicode="&#x2640;" 
d="M183 197v85h206v133q-54 12 -98 53q-62 58 -62 142t62 142t145 58t145 -58t62 -142t-62 -142q-44 -41 -98 -53v-133h209v-85h-209v-255h-94v255h-206zM545 610q0 44 -31.5 75t-77.5 31q-47 0 -78 -31t-31 -75t31 -75t78 -31q46 0 77.5 31t31.5 75z" />
    <glyph glyph-name="male" unicode="&#x2642;" 
d="M389 355v275l-173 -200l-69 59l289 320l290 -320l-70 -64l-173 204v-274q54 -12 98 -53q62 -58 62 -142t-62 -142t-145 -58t-145 58t-62 142t62 142q44 41 98 53zM545 160q0 44 -31.5 75t-77.5 31q-47 0 -78 -31t-31 -75t31 -75t78 -31q46 0 77.5 31t31.5 75z" />
    <glyph glyph-name="spade" unicode="&#x2660;" 
d="M742 300q0 -62 -37 -103.5t-97 -41.5q-33 0 -61.5 4t-66.5 24q3 -57 15 -85t34 -44q23 -16 58.5 -24t78.5 -10l11 -36h-482l11 36q42 2 77.5 10t58.5 24t35 44t15 85q-39 -20 -68 -24t-60 -4q-57 0 -95.5 41t-38.5 104q0 35 10 63t27 53q17 26 39.5 48t45.5 40
q29 25 57 55t54 73q25 40 46 93t27 81q6 -28 26 -80.5t46 -93.5q26 -43 53.5 -73t58.5 -55q47 -38 84.5 -86.5t37.5 -117.5z" />
    <glyph glyph-name="uni2661" unicode="&#x2661;" 
d="M436 38q-12 33 -29 71t-50 82q-33 43 -77 89.5t-83 97.5q-39 48 -65.5 103.5t-24.5 114.5q0 68 45 115t116 47q46 0 88.5 -23t79.5 -84q37 60 79.5 83.5t86.5 23.5q70 0 116 -48t46 -114q0 -60 -26.5 -115.5t-64.5 -102.5q-62 -74 -82.5 -97t-76.5 -88
q-30 -41 -49.5 -84.5t-28.5 -70.5zM693 581q0 45 -24.5 74.5t-83.5 26.5q-45 -2 -83 -53t-67 -163q-32 112 -68 163t-81 53q-60 3 -83.5 -26.5t-23.5 -74.5q0 -25 8.5 -51.5t22.5 -53.5q29 -47 71 -94t99 -111q17 -20 31.5 -40.5t24.5 -38.5q11 17 25.5 37.5t31.5 40.5
q55 65 94 108.5t74 97.5q12 27 22 53.5t10 51.5z" />
    <glyph glyph-name="club" unicode="&#x2663;" 
d="M494 244q0 -118 38 -159t139 -52l10 -29h-501l9 29q101 11 139 52.5t38 160.5q-50 -54 -118 -54q-74 0 -125.5 50.5t-51.5 121.5q0 61 43.5 113.5t114.5 59.5q16 2 34 0q16 -2 4 5q1 2 -4 18q-6 21 -6 48q0 74 55.5 122.5t118.5 48.5t117.5 -47.5t54.5 -122.5
q0 -31 -7 -53q-6 -15 -5 -17q0 -1 2 1q-1 0 -2 -1q-12 -6 4 -3q16 2 36 0q58 -4 108.5 -52t50.5 -120q0 -70 -50.5 -121.5t-124.5 -51.5q-60 0 -121 53z" />
    <glyph glyph-name="uni2664" unicode="&#x2664;" 
d="M742 301q0 -60 -38.5 -103t-95.5 -43q-27 0 -49.5 4.5t-57.5 24.5q1 -56 9 -85t28 -44q20 -17 53.5 -24.5t74.5 -10.5l11 -36h-482l11 36q42 3 74.5 10.5t52.5 24.5q19 15 27.5 44t10.5 85q-35 -20 -58 -24.5t-49 -4.5q-57 0 -95 41.5t-38 104.5q0 35 10 63t27 53
t39.5 47t43.5 40q31 25 59 55t54 72q24 42 45 95t28 81q5 -28 25 -81t46 -95q25 -42 53.5 -72t58.5 -55q22 -18 44.5 -40t38.5 -47q17 -25 28 -53t11 -63zM679 293q2 44 -14.5 73t-48.5 57l-36 31q-47 39 -84.5 87t-58.5 94q-24 -45 -61.5 -93.5t-83.5 -85.5
q-21 -18 -39.5 -34.5t-32.5 -35.5q-15 -18 -22 -39.5t-5 -51.5q2 -36 26 -56t77 -14q29 3 62 27.5t68 87.5q0 -68 -1 -115.5t-5 -83.5t-11 -61.5t-9 -29.5h72q-2 2 -9 28t-11 62q-3 35 -4 83t-1 117q35 -63 67.5 -87.5t61.5 -27.5q53 -5 77.5 14.5t25.5 53.5z" />
    <glyph glyph-name="heart" unicode="&#x2665;" 
d="M436 38q-12 33 -29 71t-50 82q-33 43 -77 89.5t-83 97.5q-39 48 -65.5 103.5t-24.5 114.5q0 68 45 115t116 47q56 0 93.5 -28t74.5 -89q37 60 77 88.5t89 28.5q70 0 116 -48t46 -114q0 -60 -26.5 -115.5t-64.5 -102.5q-62 -74 -82.5 -97t-76.5 -88q-30 -41 -49.5 -84.5
t-28.5 -70.5z" />
    <glyph glyph-name="uni2667" unicode="&#x2667;" 
d="M494 244q0 -118 38 -159t139 -52l10 -29h-501l9 29q101 11 139 52.5t38 160.5q-50 -54 -118 -54q-74 0 -125.5 50.5t-51.5 121.5q0 61 43.5 113.5t114.5 59.5q21 2 42 0q-14 36 -14 71q0 74 54 122.5t120 48.5q65 0 118.5 -47.5t53.5 -122.5q0 -39 -15 -73q22 2 43 0
q60 -6 109.5 -53t49.5 -119q0 -70 -50.5 -121.5t-124.5 -51.5q-60 0 -121 53zM376 509l-53 -68q-28 22 -43.5 26.5t-34.5 4.5q-46 0 -77.5 -32.5t-31.5 -75.5q0 -46 31.5 -77t77.5 -31q33 0 58.5 16.5t44.5 52.5h73q0 -117 -11 -187q-10 -70 -23 -85h88q-13 16 -23 85
q-11 70 -11 187h71q18 -35 44 -52.5t60 -17.5q46 0 78 31t32 77q0 43 -32 75.5t-78 32.5q-19 0 -35 -5t-45 -28l-54 70q33 26 45 49.5t12 48.5q0 45 -32.5 77.5t-75.5 32.5q-45 0 -77.5 -32.5t-32.5 -77.5q0 -25 12 -47.5t43 -49.5z" />
    <glyph glyph-name="uni2668" unicode="&#x2668;" 
d="M332 703q10 0 13 -39.5t-15 -119.5q-9 -48 12.5 -114t26.5 -131q3 -30 -11.5 -77t-40.5 -88q-22 -35 -21.5 -53t-11.5 -18q-11 0 -18 32t9 74q11 31 20.5 92t-13.5 122q-25 67 -17 130t38 120q13 25 18 47.5t11 22.5zM253 286q11 2 13.5 -6.5t-11.5 -12.5q-15 -4 -76 -35
t-61 -84q0 -59 104 -92.5t223 -32.5q101 1 212.5 32.5t111.5 94.5q0 53 -45 81.5t-67 34.5q-12 4 -8.5 11.5t12.5 5.5q38 -7 103.5 -42.5t65.5 -109.5q0 -102 -130 -145.5t-256 -43.5q-136 0 -267.5 42.5t-131.5 137.5q0 81 83 119t125 45zM459 752q11 0 24 -55t-8 -121
q-21 -70 -0.5 -121.5t32.5 -131.5q7 -45 -14 -102.5t-37 -83.5q-27 -43 -30 -63.5t-13 -20.5t-15.5 39.5t14.5 91.5q32 77 24.5 130.5t-22.5 86.5q-36 86 -16.5 143.5t37.5 100.5q18 42 16.5 74.5t7.5 32.5zM597 703q10 0 12.5 -39.5t-14.5 -119.5q-10 -48 11.5 -114
t27.5 -131q2 -30 -12 -77t-40 -88q-17 -27 -19 -49t-15 -22q-6 0 -16.5 27.5t7.5 78.5q12 31 21.5 92t-14.5 122q-25 67 -16.5 130t38.5 120q12 22 17.5 45.5t11.5 24.5z" />
    <glyph glyph-name="uni2669" unicode="&#x2669;" 
d="M570 814v-624q0 -40 -16 -76t-43 -62q-24 -23 -58 -37.5t-73 -11.5q-81 7 -85 76q-2 35 15 63t46 48q30 21 65.5 31.5t75.5 10.5h7v582h66z" />
    <glyph glyph-name="musicalnote" unicode="&#x266a;" 
d="M434 232v590q15 5 27 1.5t47 -41.5q76 -79 164.5 -164.5t88.5 -179.5q0 -35 -7 -62t-21 -51q-16 -26 -38 -51.5t-44 -45.5t-47.5 -34.5t-34.5 -4.5q-11 12 -3.5 22.5t25.5 30.5q44 47 66.5 87t22.5 75q0 33 -18 67.5t-58 67.5l-109 92v-441q0 -40 -13.5 -76t-40.5 -62
q-24 -23 -58 -37.5t-73 -11.5q-81 7 -85 76q-2 35 15 63t46 48q30 21 65.5 31.5t75.5 10.5h7z" />
    <glyph glyph-name="uni266C" unicode="&#x266c;" 
d="M699 617v69l-334 -73v-71zM764 234q0 -40 -13.5 -76t-40.5 -62q-24 -23 -58 -37.5t-73 -11.5q-81 7 -85 76q-2 35 15 63t46 48q30 21 65.5 31.5t75.5 10.5h3v247l-334 -76v-284q0 -40 -13.5 -76t-40.5 -62q-24 -23 -58 -37.5t-73 -11.5q-81 7 -85 76q-2 35 15 63t46 48
q30 21 65.5 31.5t75.5 10.5h7v510l460 88v-569z" />
    <glyph glyph-name="uni266D" unicode="&#x266d;" 
d="M446 443q47 66 103 71.5t89 -22.5q32 -27 45.5 -81t-8.5 -132q-22 -75 -64 -124.5t-98 -75.5q-48 -21 -89.5 -28t-47.5 -7v713h70v-314zM447 341v-217q74 20 115 72q40 51 52 128q5 32 -3.5 60.5t-34.5 37.5q-82 28 -129 -81z" />
    <glyph glyph-name="uni3000" unicode="&#x3000;" 
 />
    <glyph glyph-name="uni3001" unicode="&#x3001;" 
d="M75 125l39 53q78 -38 131 -80q54 -44 101 -92l-66 -74q-53 62 -102 107q-57 52 -103 86z" />
    <glyph glyph-name="uni3002" unicode="&#x3002;" 
d="M353 124q0 -48 -32.5 -83t-85.5 -35t-85.5 35t-32.5 83t32.5 83t85.5 35t85.5 -35t32.5 -83zM288 124q0 21 -14 37t-39 16t-39 -16t-14 -37t14 -37t39 -16t39 16t14 37z" />
    <glyph glyph-name="uni3003" unicode="&#x3003;" 
d="M489 521l-178 -242l-55 31l149 259zM685 481l-182 -239l-53 32l152 258z" />
    <glyph glyph-name="uni3008" unicode="&#x3008;" horiz-adv-x="580" 
d="M241 358l293 -404l-75 -64l-338 467l338 469l75 -55z" />
    <glyph glyph-name="uni3009" unicode="&#x3009;" horiz-adv-x="580" 
d="M339 358l-293 413l75 55l338 -468l-338 -468l-75 64z" />
    <glyph glyph-name="uni300A" unicode="&#x300a;" horiz-adv-x="580" 
d="M207 358l162 -468h-85l-164 469l176 467h80zM380 358l154 -468h-78l-161 468l167 468h72z" />
    <glyph glyph-name="uni300B" unicode="&#x300b;" horiz-adv-x="580" 
d="M373 358l-169 468h80l176 -467l-164 -469h-85zM200 358l-154 468h72l167 -468l-161 -468h-78z" />
    <glyph glyph-name="uni300C" unicode="&#x300c;" horiz-adv-x="580" 
d="M236 826h298v-98h-190v-434h-108v532z" />
    <glyph glyph-name="uni300D" unicode="&#x300d;" horiz-adv-x="580" 
d="M344 -110h-298v98h190v434h108v-532z" />
    <glyph glyph-name="uni300E" unicode="&#x300e;" horiz-adv-x="580" 
d="M231 768v-441h86v365h166v76h-252zM172 826h362v-192h-158v-360h-204v552z" />
    <glyph glyph-name="uni300F" unicode="&#x300f;" horiz-adv-x="580" 
d="M349 -52v441h-86v-365h-166v-76h252zM408 -110h-362v192h158v360h204v-552z" />
    <glyph glyph-name="uni3010" unicode="&#x3010;" horiz-adv-x="580" 
d="M534 -110h-309v936h309q-212 -200 -212 -468q0 -277 212 -468z" />
    <glyph glyph-name="uni3011" unicode="&#x3011;" horiz-adv-x="580" 
d="M46 -110q212 191 212 468q0 268 -212 468h309v-936h-309z" />
    <glyph glyph-name="uni3013" unicode="&#x3013;" 
d="M112 443v79h650v-79h-650zM111 287v80h651v-80h-651z" />
    <glyph glyph-name="uni3014" unicode="&#x3014;" horiz-adv-x="580" 
d="M387 707v-690l146 -39v-88l-243 64v818l244 55v-84z" />
    <glyph glyph-name="uni3015" unicode="&#x3015;" horiz-adv-x="580" 
d="M193 707l-147 36v84l244 -55v-818l-243 -64v88l146 39v690z" />
    <glyph glyph-name="uni3041" unicode="&#x3041;" 
d="M730 91q0 -71 -54.5 -121.5t-145.5 -50.5l-69 56q82 1 118 17q36 15 54.5 40t18.5 63q0 34 -18 59.5t-60 43.5q-27 -51 -57.5 -89.5t-82.5 -84.5q-53 -45 -146 -57q-36 -8 -70.5 8.5t-34.5 62.5q0 71 48 124t116 86v80q-33 -6 -41.5 -7t-9.5 -1q-28 -4 -49.5 -5.5
t-41.5 7.5l-10 63l92 13l60 11v118h87v-104l162 27l15 -79l-177 -30v-65q31 3 49 5.5t49 0.5l13 32l66 -21l-11 -24q15 -10 20.5 -11.5t6.5 -2.5q55 -24 79 -64t24 -100zM505 212q-39 -4 -46 -4.5t-25 -5.5v-86q30 41 39 54t32 42zM348 51q0 28 -0.5 51t-0.5 75
q-44 -33 -61.5 -54t-22.5 -41q-4 -18 0.5 -33t31.5 -15q14 0 23.5 4t29.5 13z" />
    <glyph glyph-name="uni3042" unicode="&#x3042;" 
d="M812 149q0 -95 -74.5 -163.5t-197.5 -68.5l-80 58q96 10 139 29q54 24 85 60.5t31 92.5q0 49 -26.5 85.5t-80.5 62.5q-36 -74 -82 -134t-119 -115l-4 -18h-24q-36 -21 -75.5 -35.5t-87.5 -22.5q-47 -11 -95.5 12t-48.5 87q0 100 70.5 173t160.5 115v108q-42 -5 -58.5 -8
l-16.5 -3q-37 -4 -66.5 -6t-59.5 10l-13 74l125 9l89 16v168h99v-152l230 38l19 -89l-74.5 -11.5t-174.5 -29.5v-92q43 7 73 10t73 -1l14 46l88 -31l-10 -37q15 -7 22 -9.5t8 -3.5q68 -32 105 -88.5t37 -135.5zM516 321q-46 0 -66.5 -2t-47.5 -9v-145q45 51 65 79.5t49 76.5
zM305 95q-1 40 -1.5 78.5t-0.5 102.5q-58 -38 -89 -72.5t-41 -69.5q-6 -27 0.5 -47t43.5 -20q22 0 42 6.5t46 21.5z" />
    <glyph glyph-name="uni3043" unicode="&#x3043;" 
d="M733 126l-87 -37q-11 50 -53 115.5t-80 104.5l71 47q50 -30 94 -104t55 -126zM432 11q-7 -18 -33 -41.5t-58 -33.5q-24 -8 -44.5 -5t-33.5 12q-56 41 -76.5 103t-29.5 135q-7 67 2 158t22 135l87 -35q-24 -60 -28.5 -185.5t38.5 -202.5q11 -19 28 -26t39 2q18 9 34.5 25
t31.5 51z" />
    <glyph glyph-name="uni3044" unicode="&#x3044;" 
d="M838 183l-99 -40q-15 73 -70.5 159.5t-109.5 142.5l76 52q69 -42 128.5 -142t74.5 -172zM450 39q-10 -26 -45.5 -59.5t-82.5 -42.5q-28 -9 -56.5 -6t-47.5 15q-76 55 -102.5 139t-40.5 182q-12 89 0.5 211t30.5 184l104 -41q-35 -83 -38.5 -266t63.5 -287
q15 -25 39 -32.5t53 2.5q43 20 61 42t33 62z" />
    <glyph glyph-name="uni3045" unicode="&#x3045;" 
d="M568 487l-43 -74q-30 33 -75 51.5t-85 19.5l44 70q36 5 86 -16.5t73 -50.5zM616 189q0 -93 -64.5 -167t-153.5 -97l-65 46q34 6 104 63t82 119q2 19 1 44.5t-15 42.5q-14 20 -34.5 25.5t-44.5 3.5q-26 -4 -44 -10t-60 -17l-32 72l126 34q28 10 54.5 6t41.5 -8
q46 -15 75 -56t29 -101z" />
    <glyph glyph-name="uni3046" unicode="&#x3046;" 
d="M619 677l-62 -82q-46 49 -105 73t-115 25l56 76q55 6 122.5 -22.5t103.5 -69.5zM679 277q0 -125 -87 -224.5t-209 -131.5l-86 50q71 12 159 91.5t107 173.5q4 29 2 62t-22 59q-21 29 -53 37t-63 5q-41 -7 -95.5 -25t-59.5 -18l-38 90l173 49q38 12 75 7t55 -10
q63 -21 102.5 -78t39.5 -137z" />
    <glyph glyph-name="uni3047" unicode="&#x3047;" 
d="M561 418h-227l-34 87h261v-87zM726 10l-20 -67q-28 -4 -59.5 -9t-75.5 -2q-8 0 -32 3t-34 5q-23 7 -36 18t-13 34q-1 15 -1.5 27t-0.5 27q0 21 -21 38.5t-43 17.5l-168 -178l-54 60l277 288l-231 -27l-25 82l379 36l31 -43l-144 -147q49 -11 65.5 -26.5t16.5 -36.5
q0 -7 -1.5 -21t-1.5 -31q0 -15 12.5 -25.5t26.5 -13.5q12 -1 22 -1h21q37 0 89.5 7.5t20.5 -15.5z" />
    <glyph glyph-name="uni3048" unicode="&#x3048;" 
d="M599 619h-309l-46 96h355v-96zM822 53l-29 -93q-42 -7 -84 -13.5t-99 -2.5q-11 0 -44 4t-46 7q-32 10 -50 26t-20 48q-1 20 -1.5 36t-0.5 36q0 24 -23 47.5t-51 23.5l-229 -240l-67 79l401 412l-350 -34l-35 91l513 46l46 -60l-214 -220q58 -12 80.5 -34t22.5 -51
q0 -12 -1.5 -30t-1.5 -38q0 -17 14.5 -30t32.5 -18q17 -3 36 -3.5t34 -0.5q51 0 166 12z" />
    <glyph glyph-name="uni3049" unicode="&#x3049;" 
d="M733 353l-40 -68q-20 33 -67.5 61.5t-72.5 31.5l37 65q44 -4 81.5 -32t61.5 -58zM723 84q0 -70 -55 -112t-124 -24q-55 11 -78.5 65t-15.5 99l69 17q-2 -24 3 -67.5t56 -44.5q27 0 48 18.5t21 55.5q0 19 -16 44t-53 40q-31 11 -74.5 10.5t-99.5 -17.5v-244h-26t-49 2
q-20 2 -47.5 8.5t-45.5 17.5q-35 23 -46.5 45.5t-7.5 64.5q3 44 40.5 83.5t96.5 66.5v92l-145 -9l-10 82l118 9q6 0 12 0.5t25 0.5v141h85v-133l88 17v-74q-8 -5 -30.5 -11t-57.5 -15v-70q56 10 113.5 12.5t109.5 -21.5q56 -24 76 -65.5t20 -83.5zM319 -1v133
q-34 -23 -43.5 -35t-15.5 -27q-4 -16 0 -31.5t21 -27.5q6 -3 11.5 -5t26.5 -7z" />
    <glyph glyph-name="uni304A" unicode="&#x304a;" 
d="M832 492l-52 -79q-29 49 -91 87t-101 41l45 74q64 -4 115.5 -41.5t83.5 -81.5zM825 138q0 -94 -75 -150.5t-170 -32.5q-76 16 -108 88.5t-19 138.5l90 25q-5 -43 3 -103.5t81 -61.5q41 0 70.5 28t29.5 81q0 30 -26 69t-76 53q-50 10 -102 10t-124 -21v-338
q-13 -5 -41.5 -3.5t-62.5 4.5q-27 3 -63.5 12t-62.5 24q-46 31 -63 62t-13 89q4 65 63.5 120t142.5 91v128l-215 -13l-14 91l163 8q14 1 27 1.5t39 2.5v194h100v-180l118 30v-88q-13 -9 -44.5 -17.5t-73.5 -18.5v-106q71 14 148.5 17t146.5 -29q77 -33 104 -89.5t27 -115.5z
M299 22v204q-49 -30 -70.5 -51.5t-31.5 -51.5q-8 -22 -3 -46t31 -41q13 -8 28.5 -11t45.5 -3z" />
    <glyph glyph-name="uni304B" unicode="&#x304b;" 
d="M535 380q0 -64 -8 -158.5t-36 -177.5q-12 -38 -44 -69.5t-78 -39.5l-55 70q54 22 78 71q30 64 34.5 142.5t4.5 132.5q0 19 -16 39t-39 20h-49l-153 -488l-99 22l149 466h-131l-32 95h194l70 228l91 -42l-58 -186h46q59 0 95 -33.5t36 -91.5zM840 190l-89 -59
q-15 77 -63.5 173.5t-105.5 154.5l81 46q23 -18 42.5 -39.5t46.5 -61.5q40 -62 62 -127t26 -87z" />
    <glyph glyph-name="uni304C" unicode="&#x304c;" 
d="M856 626l-55 -53q-5 18 -47 68t-54 53l47 41q27 -9 63 -47.5t46 -61.5zM756 566l-55 -53q-8 19 -49 65.5t-53 55.5l50 42q27 -10 62 -48.5t45 -61.5zM523 368q0 -63 -8 -155t-35 -174q-12 -37 -43.5 -68t-76.5 -39l-56 68q51 21 80 70q29 63 33.5 140t4.5 130
q0 18 -16 38t-39 20h-48l-149 -478l-98 21l147 457h-129l-30 93h189l69 223l88 -41l-57 -182h46q59 0 93.5 -33t34.5 -90zM821 182l-86 -57q-15 75 -62.5 169.5t-102.5 151.5l79 44q22 -19 41.5 -38.5t44.5 -59.5q40 -62 61 -125.5t25 -84.5z" />
    <glyph glyph-name="uni304D" unicode="&#x304d;" 
d="M758 397l-174 -15q21 -86 32 -130.5l11 -44.5l-28 -31q-39 16 -124 18t-148 -29q-19 -8 -35 -26.5t-16 -45.5q0 -22 18.5 -39.5t40.5 -24.5q69 -21 174.5 -19t159.5 27l19 -96q-31 -9 -90.5 -15.5t-87.5 -6.5q-23 0 -83.5 3t-112.5 17q-67 16 -106 54t-39 99
q0 56 41 100.5t101 64.5q37 12 86 19t111 1l-21 95l-315 -25l-30 82l325 28l-22 88l-220 -18l-33 84q9 0 46.5 1.5t81.5 5.5l108 9l-27 108h98l23 -97l149 13l10 -86l-139 -11q6 -31 9.5 -45.5t10.5 -41.5l183 16z" />
    <glyph glyph-name="uni304E" unicode="&#x304e;" 
d="M649 385l-171 -14l42 -174l-28 -28q-38 16 -121 17.5t-145 -28.5q-18 -8 -34 -26t-16 -45q0 -22 18 -39t39 -24q69 -21 172.5 -18.5t155.5 26.5l19 -93q-30 -9 -88 -15.5t-85 -6.5q-23 0 -82.5 3t-111.5 17q-66 15 -103.5 52.5t-37.5 96.5q0 55 40.5 98.5t97.5 63.5
q37 11 86 18t109 4l-21 91l-310 -24l-29 80l320 26l-22 87l-216 -17l-32 82q9 0 44.5 1.5t80.5 5.5l105 8l-26 106h97l22 -95l145 13l10 -84l-135 -11l20 -85l177 15zM829 666l-55 -53q-5 18 -47 68t-54 53l47 41q27 -9 63 -47.5t46 -61.5zM729 606l-55 -53q-8 19 -49 65.5
t-53 55.5l50 42q27 -10 62 -48.5t45 -61.5z" />
    <glyph glyph-name="uni304F" unicode="&#x304f;" 
d="M631 -3l-81 -68q-36 86 -136.5 223t-177.5 193l305 396l84 -64l-254 -324q110 -98 171.5 -197t88.5 -159z" />
    <glyph glyph-name="uni3050" unicode="&#x3050;" 
d="M560 -3l-80 -68q-36 86 -136.5 223t-177.5 193l306 396l82 -64l-254 -324q112 -98 173 -197t87 -159zM842 706l-55 -53q-5 18 -47 68t-54 53l47 41q27 -9 63 -47.5t46 -61.5zM742 646l-55 -53q-8 19 -49 65.5t-53 55.5l50 42q27 -10 62 -48.5t45 -61.5z" />
    <glyph glyph-name="uni3051" unicode="&#x3051;" 
d="M163 123l26 -177l-97 17q-9 37 -25 130.5t-11 192.5l22 444l94 -15q0 -37 -13 -234.5t4 -357.5zM822 433h-155v-223q0 -110 -62.5 -185.5t-140.5 -93.5l-68 58q32 8 104.5 74.5t72.5 177.5v192h-285v90h285v200h94v-200h155v-90z" />
    <glyph glyph-name="uni3052" unicode="&#x3052;" 
d="M147 131l27 -190l-100 17q-9 39 -25 134t-10 193l21 430l97 -15q0 -36 -12.5 -226.5t2.5 -342.5zM566 707v-196h175v-91h-175v-210q0 -111 -61.5 -187t-139.5 -94l-68 59q35 8 103.5 74t68.5 178v180h-210v91h210v196h97zM844 692l-55 -53q-5 18 -47 68t-54 53l47 41
q27 -9 63 -47.5t46 -61.5zM744 632l-55 -53q-8 19 -49 65.5t-53 55.5l50 42q27 -10 62 -48.5t45 -61.5z" />
    <glyph glyph-name="uni3053" unicode="&#x3053;" 
d="M711 526h-350q-30 0 -70.5 2t-63.5 13l-28 83l512 1v-99zM804 1h-414q-29 0 -74 2t-85 16q-49 18 -93 64t-48 122l84 47q1 -59 53.5 -105.5t131.5 -46.5h445v-99z" />
    <glyph glyph-name="uni3054" unicode="&#x3054;" 
d="M735 1h-413q-29 0 -74.5 2t-84.5 16q-50 18 -93.5 64t-48.5 122l85 47q1 -59 53 -105.5t132 -46.5h444v-99zM640 625v-99h-349q-30 0 -70.5 2t-61.5 13l-27 84h508zM844 692l-55 -53q-5 18 -47 68t-54 53l47 41q27 -9 63 -47.5t46 -61.5zM744 632l-55 -53q-8 19 -49 65.5
t-53 55.5l50 42q27 -10 62 -48.5t45 -61.5z" />
    <glyph glyph-name="uni3055" unicode="&#x3055;" 
d="M770 519l-203 -49q37 -77 73.5 -131.5t70.5 -87.5l-54 -73q-34 29 -122.5 41.5t-160.5 -20.5q-18 -7 -40 -26.5t-22 -57.5q0 -34 23 -55t45 -31q74 -28 151 -23t109 19l38 -84q-23 -8 -65.5 -14.5t-70.5 -6.5q-23 0 -77.5 2t-110.5 19q-63 21 -101.5 64.5t-38.5 101.5
q0 60 34 106.5t104 70.5q39 12 80 17t109 -1q-32 47 -46 75.5t-30 69.5l-108 -24q-33 -8 -91 -14.5t-96 6.5l-35 70q101 6 200 26l102 24q-17 66 -25 117t-11 83h103q1 -32 8 -75.5t24 -99.5l203 47z" />
    <glyph glyph-name="uni3056" unicode="&#x3056;" 
d="M663 504l-200 -48q36 -76 72 -129.5t69 -84.5l-52 -73q-34 29 -120.5 41.5t-157.5 -18.5q-16 -8 -38.5 -27.5t-22.5 -56.5q0 -33 23 -53.5t44 -30.5q74 -27 149.5 -22.5t105.5 17.5l37 -81q-20 -8 -63 -14.5t-70 -6.5q-21 0 -75 2t-108 19q-61 20 -99.5 63t-38.5 99
q0 60 33 105t103 69q38 11 78 16t108 -1q-32 47 -45.5 74.5t-28.5 69.5l-107 -25q-33 -7 -90 -13.5t-94 6.5l-34 68q102 3 196 25l99 23q-15 65 -23.5 115t-11.5 82h102q1 -31 8 -74t22 -99l198 47zM839 692l-55 -53q-5 18 -47 68t-54 53l47 41q27 -9 63 -47.5t46 -61.5z
M739 632l-55 -53q-8 19 -49 65.5t-53 55.5l50 42q27 -10 62 -48.5t45 -61.5z" />
    <glyph glyph-name="uni3057" unicode="&#x3057;" 
d="M746 99q-59 -61 -172.5 -117.5t-281.5 -56.5q-54 0 -86.5 34t-32.5 89v677h102v-640q0 -24 16 -42t34 -18q142 0 267 74t154 115v-115z" />
    <glyph glyph-name="uni3058" unicode="&#x3058;" 
d="M747 99q-60 -61 -173.5 -117.5t-281.5 -56.5q-53 0 -85.5 34t-32.5 89v677h102v-640q0 -24 16 -42t34 -18q143 0 267.5 74t153.5 115v-115zM797 637l-55 -53q-5 18 -47 68t-54 53l47 41q27 -9 63 -47.5t46 -61.5zM697 577l-55 -53q-8 19 -49 65.5t-53 55.5l50 42
q27 -10 62 -48.5t45 -61.5z" />
    <glyph glyph-name="uni3059" unicode="&#x3059;" 
d="M819 491h-286v-166q9 -16 14.5 -33.5t9.5 -38.5q8 -29 8 -66.5t-11 -77.5q-20 -77 -71.5 -126.5t-72.5 -59.5l-94 34q37 17 75 58.5t50 103.5q-75 -29 -138 10.5t-63 115.5t45 116t102 40h12.5t30.5 -6v96h-350v94h350v160h103v-160h286v-94zM434 219v64q-9 16 -20 21
t-23 5q-21 0 -38 -18t-17 -40q0 -23 17.5 -38.5t37.5 -15.5q12 0 23 4.5t20 17.5z" />
    <glyph glyph-name="uni305A" unicode="&#x305a;" 
d="M375 212v64q-8 15 -19.5 19.5t-21.5 4.5q-22 0 -38 -17.5t-16 -39.5t16.5 -37.5t37.5 -15.5q11 0 22 4.5t19 17.5zM473 570h280v-91h-280v-164q7 -15 13 -32t10 -38q8 -29 8 -65.5t-11 -76.5q-20 -74 -70 -122.5t-71 -58.5l-89 27q43 27 75 65t45 99q-74 -27 -136 11.5
t-62 110.5q0 77 44.5 116t99.5 39h12.5t29.5 -7v96h-342v91h342v157h102v-157zM846 696l-55 -53q-5 18 -47 68t-54 53l47 41q27 -9 63 -47.5t46 -61.5zM746 636l-55 -53q-8 19 -49 65.5t-53 55.5l50 42q27 -10 62 -48.5t45 -61.5z" />
    <glyph glyph-name="uni305B" unicode="&#x305b;" 
d="M825 456l-181 -22v-140q0 -60 -30 -92.5t-79 -43.5q-48 -13 -95 -4l-39 76l69 13q36 6 55 28.5t19 54.5v96l-219 -27v-291q0 -18 16.5 -38.5t34.5 -20.5h237q36 0 78 3t37 -9v-88h-383q-53 0 -86 35.5t-33 96.5v301l-166 -21l-12 93l178 21v245l99 -18v-215l219 27v216
l100 -10v-194l181 21v-93z" />
    <glyph glyph-name="uni305C" unicode="&#x305c;" 
d="M564 706l1 -192l72 11l86 10v-91l-157 -21v-138q0 -58 -29 -90t-77 -43q-44 -11 -92 -5l-39 74l67 14q35 6 54 28t19 54v93l-205 -25v-286q0 -17 9 -41t43 -23h342v-86h-374q-53 0 -85.5 35t-32.5 95v295l-132 -21l-11 91l143 20v240l98 -17v-211l205 27v211zM844 706
l-55 -53q-5 18 -47 68t-54 53l47 41q27 -9 63 -47.5t46 -61.5zM744 646l-55 -53q-8 19 -49 65.5t-53 55.5l50 42q27 -10 62 -48.5t45 -61.5z" />
    <glyph glyph-name="uni305D" unicode="&#x305d;" 
d="M816 391l-251 -50q-63 -17 -97 -53q-17 -21 -33 -54t-16 -69q0 -30 17 -61t37 -44q53 -39 116 -48t89 -3l-36 -87q-10 0 -75 7t-115 29q-68 33 -101 83t-33 120q0 28 8.5 57.5t45.5 81.5l-298 -60l-24 89l153 28l277 284h-257l-42 94h393l61 -76l-273 -267l411 88z" />
    <glyph glyph-name="uni305E" unicode="&#x305e;" 
d="M733 380l-237 -50q-26 -9 -51.5 -21.5t-42.5 -29.5q-17 -19 -33 -52t-16 -68q0 -29 17 -59.5t37 -44.5q50 -38 109 -45t90 -7l-35 -82q-9 0 -72.5 7t-112.5 28q-68 32 -100 81t-32 118q0 28 8.5 56t45.5 79l-259 -52l-25 87l117 22l272 278h-252l-41 92h385l59 -74
l-268 -262l394 86zM846 706l-55 -53q-5 18 -47 68t-54 53l47 41q27 -9 63 -47.5t46 -61.5zM746 646l-55 -53q-8 19 -49 65.5t-53 55.5l50 42q27 -10 62 -48.5t45 -61.5z" />
    <glyph glyph-name="uni305F" unicode="&#x305f;" 
d="M816 426l-61 -78q-45 45 -106 70t-117 29l38 72q32 6 68.5 -1.5t80.5 -29.5q37 -17 63 -36t34 -26zM472 599l-29 -108q-20 -15 -50 -23t-70 -13l-167 -526l-91 45l149 474h-132l-24 97h187l61 191l97 -32l-51 -147q58 10 68.5 13.5t51.5 28.5zM814 56l-45 -100h-190
q-69 0 -132.5 24.5t-100.5 81.5l16 102q18 -40 83 -74t132 -34h237z" />
    <glyph glyph-name="uni3060" unicode="&#x3060;" 
d="M754 414l-59 -76q-45 45 -105 69t-113 28l37 70q29 6 65 -1.5t79 -28.5q36 -17 62 -35.5t34 -25.5zM437 581l-27 -103q-21 -14 -50 -22t-69 -13l-164 -516l-89 44l146 465h-129l-24 94h184l59 188l95 -32l-49 -144q54 10 65 15t52 24zM752 51l-44 -97h-186
q-68 0 -130.5 23.5t-98.5 79.5l14 96q19 -36 83 -69t130 -33h232zM850 676l-55 -53q-5 18 -47 68t-54 53l47 41q27 -9 63 -47.5t46 -61.5zM750 616l-55 -53q-8 19 -49 65.5t-53 55.5l50 42q27 -10 62 -48.5t45 -61.5z" />
    <glyph glyph-name="uni3061" unicode="&#x3061;" 
d="M791 208q5 -57 -19.5 -103.5t-71.5 -86.5q-43 -37 -90.5 -54t-83.5 -28q-30 -7 -92 -14t-110 5l-45 80q90 -9 199.5 13t173.5 89q13 17 24.5 39t5.5 56q-5 33 -29.5 53t-53.5 20q-77 3 -147 -23.5t-121 -75.5l-40 40q8 28 14 79t12 128q-101 -31 -186 -18l-43 89
q104 -4 204 18l31 9q5 77 6.5 134t1.5 78h104l-10 -179l138 41l103 33l38 -78q-7 -8 -53 -26.5t-78 -26.5l-154 -44l-6 -127q60 31 115 41t103 1q76 -9 116 -55.5t44 -106.5z" />
    <glyph glyph-name="uni3062" unicode="&#x3062;" 
d="M726 199q5 -54 -19 -99.5t-71 -85.5q-41 -36 -87.5 -52.5t-82.5 -27.5q-28 -7 -89.5 -14t-107.5 5l-44 78q87 -9 195.5 12.5t169.5 87.5q13 17 24 38.5t6 53.5q-5 34 -30 53.5t-53 19.5q-75 3 -140.5 -28t-119.5 -68l-40 38q6 27 13 77.5t11 126.5q-48 -12 -97 -21.5
t-85 2.5l-41 86q26 -7 100 3t99 16l31 9q5 76 6 131.5t1 75.5h102l-9 -175l134 40l102 33l35 -77q-5 -8 -50 -25.5t-79 -25.5l-148 -43l-7 -125q60 30 113.5 40t99.5 1q75 -9 114.5 -54.5t43.5 -105.5zM836 686l-55 -53q-5 18 -47 68t-54 53l47 41q27 -9 63 -47.5t46 -61.5z
M736 626l-55 -53q-8 19 -49 65.5t-53 55.5l50 42q27 -10 62 -48.5t45 -61.5z" />
    <glyph glyph-name="uni3063" unicode="&#x3063;" 
d="M739 303q0 -118 -97 -177t-213 -48l-61 75q48 -6 115.5 7.5t97.5 35.5q32 19 47.5 45.5t15.5 69.5q0 42 -32.5 72.5t-80.5 32.5q-80 0 -183 -57.5t-154 -90.5l-46 73l115 72q36 22 118 59t165 27q92 -8 142.5 -62t50.5 -134z" />
    <glyph glyph-name="uni3064" unicode="&#x3064;" 
d="M832 354q0 -160 -130 -239t-289 -65l-76 88q97 -11 172 6t121 50q48 31 71.5 70t22.5 105q0 63 -48 108.5t-120 46.5q-123 3 -252.5 -73t-215.5 -132l-53 87l157 99q67 40 167.5 83.5t213.5 31.5q122 -10 190.5 -83.5t68.5 -182.5z" />
    <glyph glyph-name="uni3065" unicode="&#x3065;" 
d="M673 566q65 -43 89.5 -99t24.5 -119q0 -159 -129 -237t-286 -64l-75 87q96 -11 170.5 6t119.5 49q47 31 70.5 69t22.5 105q0 62 -47 104.5t-119 48.5q-104 9 -227.5 -54t-207.5 -118l-53 85l156 98q84 47 166 69t182 16q71 -4 143 -46zM849 685l-55 -53q-5 18 -47 68
t-54 53l47 41q27 -9 63 -47.5t46 -61.5zM749 625l-55 -53q-8 19 -49 65.5t-53 55.5l50 42q27 -10 62 -48.5t45 -61.5z" />
    <glyph glyph-name="uni3066" unicode="&#x3066;" 
d="M795 618l-168 -23q-77 -25 -144 -105.5t-67 -183.5q0 -167 98 -230.5t209 -63.5l-50 -93q-182 5 -270.5 109.5t-88.5 244.5q0 84 36.5 159t126.5 143l-389 -51l-20 93l715 93z" />
    <glyph glyph-name="uni3067" unicode="&#x3067;" 
d="M755 604l-157 -23q-76 -25 -145.5 -104t-69.5 -179q0 -164 96 -226t205 -62l-49 -91q-177 5 -264 107.5t-87 239.5q0 82 36 155t123 141l-380 -50l-20 91l700 91zM831 432l-55 -53q-5 18 -47 68t-54 53l47 41q27 -9 63 -47.5t46 -61.5zM731 372l-55 -53q-8 19 -49 65.5
t-53 55.5l50 42q27 -10 62 -48.5t45 -61.5z" />
    <glyph glyph-name="uni3068" unicode="&#x3068;" 
d="M749 -48q-29 -10 -117 -19.5t-141 -9.5q-26 0 -86 5.5t-117 21.5q-60 19 -105.5 63.5t-45.5 107.5q0 81 53.5 131.5t125.5 76.5l40 15q-19 37 -23.5 81t-4.5 81v229h104v-226q0 -28 4 -65t18 -63l247 90l40 -82l-215 -78q-47 -17 -127.5 -47t-111.5 -52q-19 -13 -33 -34
t-14 -51q0 -27 19.5 -50t41.5 -34q78 -31 212 -29t208 33z" />
    <glyph glyph-name="uni3069" unicode="&#x3069;" 
d="M734 -51q-28 -10 -114.5 -19t-138.5 -9q-24 0 -83 5t-115 21q-60 18 -104.5 61.5t-44.5 105.5q0 80 52.5 129t124.5 75l38 15q-19 36 -23 79t-4 79v225h101v-222q0 -28 3.5 -64t19.5 -62l240 90l40 -81l-211 -76q-44 -17 -123 -46.5t-110 -50.5q-20 -13 -33.5 -34
t-13.5 -51q0 -25 19 -48.5t39 -31.5q80 -32 210.5 -30.5t203.5 32.5zM831 630l-55 -53q-5 18 -47 68t-54 53l47 41q27 -9 63 -47.5t46 -61.5zM731 570l-55 -53q-8 19 -49 65.5t-53 55.5l50 42q27 -10 62 -48.5t45 -61.5z" />
    <glyph glyph-name="uni306A" unicode="&#x306a;" 
d="M483 523q-7 -4 -39 -13t-83 -20l-45 -155q-30 -91 -66 -167t-113 -154l-77 65q26 17 78 99.5t83 187.5l29 110q-50 -1 -83 0.5t-57 3.5l-23 96l116 -1h23t51 4l45 163l105 -28l-37 -121q46 7 93 35v-105zM820 79l-58 -89q-2 13 -39.5 37t-82.5 44q-12 -65 -54 -108.5
t-113 -41.5q-43 2 -81.5 12t-61.5 36q-34 35 -35 83t34 81q26 28 73 45.5t136 15.5v80q0 62 15.5 102.5t75.5 76.5l-88 48l38 59q28 -3 60.5 -16.5t54.5 -25.5l121 -73l-50 -74l-64 37q-29 -26 -45.5 -57t-16.5 -70v-104q55 -15 107 -46t74 -52zM542 99q-32 10 -57.5 10
t-51.5 -9q-20 -7 -30.5 -22.5t-10.5 -37.5q0 -17 21 -27t34 -11q39 0 67 27.5t28 69.5z" />
    <glyph glyph-name="uni306B" unicode="&#x306b;" 
d="M786 526q-12 -4 -55 -8t-79 -4h-209q-30 0 -48 11.5t-21 21.5l-23 63h303q66 0 132 10v-94zM230 -68h-98q-13 30 -33.5 133.5t-25.5 207.5q-8 137 12 258.5t39 185.5l97 -37q-18 -37 -26 -66q-32 -134 -28.5 -277.5t33.5 -296.5zM814 -14h-342q-56 0 -94 20t-38 55v71
q22 -25 79 -37t101 -12h294v-97z" />
    <glyph glyph-name="uni306C" unicode="&#x306c;" 
d="M830 46l-48 -91q-33 54 -74 82q-40 -62 -99 -85.5t-128 -4.5q-43 12 -64 38.5t-21 63.5q0 49 28.5 87.5t80.5 53.5q45 14 89 6t73 -32q9 23 18 74t-3 111q-15 51 -41.5 79.5t-61.5 41.5q-27 11 -57 11t-60 -8l-94 -302q-19 -59 -44 -107.5t-49 -72.5q-24 -26 -52 -38
t-58 -7q-28 3 -55.5 19t-45.5 58q-14 33 -13 88.5t11 95.5q11 35 27 68.5t40 68.5q-24 91 -30.5 180t-6.5 160l96 -14q-2 -48 0.5 -105t20.5 -133q50 43 87 64t79 37l62 196l98 -26l-47 -142q118 1 182 -43t88 -100q36 -82 21 -183t-20 -115q27 -19 47 -43t24 -31zM345 434
q-50 -36 -68 -51.5t-39 -39.5q12 -22 20 -37t30 -55zM255 135q-26 26 -42.5 46.5t-43.5 62.5q-24 -61 -30.5 -95.5t-3.5 -66.5q4 -27 28.5 -34.5t49.5 14.5q12 14 21 31t21 42zM639 92q-25 23 -57.5 31.5t-58.5 3.5q-21 -8 -34.5 -24.5t-13.5 -33.5q0 -29 21 -41t38 -14
q32 -2 59.5 19t45.5 59z" />
    <glyph glyph-name="uni306D" unicode="&#x306d;" 
d="M823 77l-47 -82q-33 53 -76 77q-39 -60 -99.5 -76t-117.5 1q-40 12 -60 36.5t-20 57.5q0 41 34 76t81 46q21 7 47 7t65 -9v178q0 35 -22 61.5t-63 26.5q-46 0 -108 -57t-107 -114v-375h-102v265l-120 -164l-59 69l189 351l-180 -10l-10 89l180 10v197l102 -34v-144
l45 -40l-45 -81v-35q46 53 123.5 110.5t155.5 39.5q73 -14 96.5 -69.5t23.5 -116.5v-194q26 -13 58 -47.5t36 -49.5zM615 120q-15 22 -42.5 27.5t-49.5 -0.5q-14 -5 -25.5 -17.5t-11.5 -28.5t12.5 -29t28.5 -16q29 -3 55 14t33 50z" />
    <glyph glyph-name="uni306E" unicode="&#x306e;" 
d="M814 292q0 -153 -105 -246t-252 -100l-56 68q75 -3 191.5 69.5t116.5 208.5q0 87 -44.5 151.5t-125.5 98.5l-313 -545q-74 45 -118.5 117t-48.5 176q-4 160 115 263t274 99q143 -1 254.5 -103.5t111.5 -256.5zM441 562q-131 -10 -203.5 -89t-72.5 -185q0 -31 6.5 -59
t28.5 -80z" />
    <glyph glyph-name="uni306F" unicode="&#x306f;" 
d="M831 66l-59 -71l-38.5 41t-94.5 71q7 -93 -36 -130.5t-120 -37.5q-54 0 -96.5 21t-67.5 56q-32 43 -30.5 93.5t40.5 87.5q21 22 71.5 38t139.5 5v239l-256 -14v94l256 14v162h99v-155l160 9v-94l-160 -9v-274q14 -4 18.5 -6.5t9.5 -4.5q48 -21 99 -66t65 -69zM542 139
q-31 13 -63 14t-56 -8q-16 -8 -25 -22t-7 -33q7 -31 37 -41t52 -10q43 2 52.5 33t9.5 67zM182 60l18 -131h-99q-52 286 9 795l99 -17l-27 -224t0 -423z" />
    <glyph glyph-name="uni3070" unicode="&#x3070;" 
d="M738 60l-52 -62q-78 80 -136 104q6 -93 -35.5 -129.5t-116.5 -36.5q-54 0 -96 20t-66 55q-30 42 -28.5 91.5t39.5 85.5q20 22 70 37.5t135 4.5v227l-220 -14v92l220 14v158h98v-151l156 8v-91l-156 -9v-259q11 -6 17 -8.5t10 -4.5q48 -20 97.5 -64.5t63.5 -67.5zM454 132
q-30 13 -61 13.5t-55 -7.5q-16 -8 -25 -22t-7 -33q8 -30 38 -40t49 -10q43 2 52 32.5t9 66.5zM838 708l-55 -53q-5 18 -47 68t-54 53l47 41q27 -9 63 -47.5t46 -61.5zM738 648l-55 -53q-8 19 -49 65.5t-53 55.5l50 42q27 -10 62 -48.5t45 -61.5zM149 60l18 -131h-99
q-56 254 5 763l99 -17l-25 -208t2 -407z" />
    <glyph glyph-name="uni3071" unicode="&#x3071;" 
d="M756 60l-51 -62q-73 72 -137 104q7 -93 -35 -129.5t-116 -36.5q-55 0 -96.5 20t-65.5 55q-31 42 -29.5 91.5t39.5 85.5q21 22 71 37.5t135 4.5v223l-230 -14v92l230 14v158h97v-151l156 8v-91l-156 -9v-255q12 -6 17.5 -8.5t9.5 -4.5q49 -20 98.5 -64.5t62.5 -67.5z
M473 132q-30 13 -61 13.5t-55 -7.5q-16 -8 -25 -22t-7 -33q7 -30 37 -40t50 -10q42 2 51.5 32.5t9.5 66.5zM834 710q0 -43 -31.5 -72.5t-74.5 -29.5t-74 29.5t-31 72.5q0 47 31 77.5t74 30.5t74.5 -30.5t31.5 -77.5zM147 60l18 -131h-99q-56 254 5 763l99 -17l-25 -208
t2 -407zM778 710q0 21 -15.5 36.5t-34.5 15.5t-33.5 -15.5t-14.5 -36.5q0 -18 14.5 -32.5t33.5 -14.5t34.5 14.5t15.5 32.5z" />
    <glyph glyph-name="uni3072" unicode="&#x3072;" 
d="M839 449l-38 -127q-43 66 -157 202q28 -140 22.5 -232t-35.5 -171q-42 -108 -122.5 -160.5t-195.5 -27.5q-111 20 -161.5 113t-36.5 218q5 62 20.5 112.5t52.5 118.5q-60 -17 -91 -22.5t-51 -5.5v99q69 0 149.5 26t120.5 57l55 -54q-54 -43 -109.5 -141.5t-55.5 -230.5
q0 -64 32 -124t103 -76q62 -11 111 16.5t79 91.5q62 124 40 294t-85 257l83 50z" />
    <glyph glyph-name="uni3073" unicode="&#x3073;" 
d="M778 444l-37 -114q-43 64 -159 195q29 -138 24.5 -232t-35.5 -174q-42 -107 -111 -159t-183 -27q-111 20 -155.5 112t-31.5 216q5 61 20.5 111.5t53.5 118.5q-61 -18 -91.5 -23.5t-50.5 -5.5v98q68 0 147.5 24t120.5 61l53 -56q-53 -43 -108 -141t-55 -228
q0 -63 26.5 -122.5t97.5 -75.5q61 -11 100 16.5t68 90.5q62 123 40 291t-85 254l83 50zM852 705l-55 -53q-5 18 -47 68t-54 53l47 41q27 -9 63 -47.5t46 -61.5zM752 645l-55 -53q-8 19 -49 65.5t-53 55.5l50 42q27 -10 62 -48.5t45 -61.5z" />
    <glyph glyph-name="uni3074" unicode="&#x3074;" 
d="M851 693q0 -43 -31.5 -72.5t-74.5 -29.5t-74 29.5t-31 72.5q0 47 31 77.5t74 30.5t74.5 -30.5t31.5 -77.5zM795 693q0 21 -15.5 36.5t-34.5 15.5t-33.5 -15.5t-14.5 -36.5q0 -18 14.5 -32.5t33.5 -14.5t34.5 14.5t15.5 32.5zM781 444l-37 -114q-43 64 -159 195
q29 -138 24.5 -232t-35.5 -174q-42 -107 -111 -159t-183 -27q-111 20 -155.5 112t-31.5 216q5 61 20.5 111.5t53.5 118.5q-61 -18 -91.5 -23.5t-50.5 -5.5v98q68 0 147.5 24t120.5 61l53 -56q-53 -43 -108 -141t-55 -228q0 -63 26.5 -122.5t97.5 -75.5q61 -11 100 16.5
t68 90.5q62 123 40 291t-85 254l83 50z" />
    <glyph glyph-name="uni3075" unicode="&#x3075;" 
d="M521 610l-62 -66q-30 39 -91.5 84t-106.5 56l53 59q23 0 58.5 -16t67.5 -41q35 -25 57 -46t24 -30zM841 168l-87 -44q-13 57 -61 137t-87 117l81 35q21 -9 52 -45.5t55 -78.5q20 -36 33.5 -73.5t13.5 -47.5zM612 147q0 -98 -65 -157t-143 -59q-64 -1 -125 40l-6 80
l41 -16.5t87 -12.5q48 4 78 40.5t29 91.5q-1 72 -48 104t-121 48q-42 9 -81 40t-32 91q3 38 25 67.5t43 39.5l62 -38q-39 -30 -38 -60q0 -28 19 -44.5t46 -23.5q120 -30 174.5 -84.5t54.5 -146.5zM281 147q-32 -39 -107.5 -72.5t-112.5 -40.5l-29 90q61 10 139 53t110 75
v-105z" />
    <glyph glyph-name="uni3076" unicode="&#x3076;" 
d="M505 597l-60 -67q-30 38 -90.5 82t-103.5 55l51 57q21 0 55.5 -15.5t68.5 -40.5q33 -25 54.5 -45t24.5 -26zM818 161l-85 -43q-12 56 -59.5 134.5t-85.5 114.5l79 34q20 -9 50.5 -45t54.5 -77q20 -36 33 -72t13 -46zM594 140q0 -96 -63.5 -153.5t-140.5 -57.5
q-36 0 -67.5 7.5t-54.5 31.5l-6 78l40.5 -14.5t84.5 -13.5q40 2 73 38.5t32 90.5q-1 71 -45.5 105t-118.5 45q-42 6 -80.5 37.5t-31.5 89.5q3 37 24 66t42 39l54 -35q-20 -23 -25 -32.5t-5 -28.5q0 -27 19 -44.5t46 -22.5q117 -17 170 -76t53 -150zM268 140
q-31 -37 -104.5 -70t-109.5 -40l-28 88q60 9 136.5 51t105.5 74v-103zM845 631l-55 -53q-5 18 -47 68t-54 53l47 41q27 -9 63 -47.5t46 -61.5zM745 571l-55 -53q-8 19 -49 65.5t-53 55.5l50 42q27 -10 62 -48.5t45 -61.5z" />
    <glyph glyph-name="uni3077" unicode="&#x3077;" 
d="M504 597l-61 -67q-29 38 -89 82t-104 55l51 57q22 0 56.5 -15.5t68.5 -40.5q33 -25 54 -45t24 -26zM818 161l-86 -43q-12 56 -59.5 134.5t-85.5 114.5l79 34q21 -9 51.5 -45t53.5 -77q20 -36 33.5 -72t13.5 -46zM594 140q0 -96 -64 -153.5t-140 -57.5q-36 0 -67.5 7.5
t-55.5 31.5l-5 78l40 -14.5t85 -13.5q40 2 72.5 38.5t31.5 90.5q0 71 -45 105t-117 45q-44 6 -82.5 37.5t-31.5 89.5q3 37 24.5 66t41.5 39l64 -37q-30 -19 -34.5 -29t-4.5 -30q0 -27 18.5 -44.5t45.5 -22.5q118 -17 171 -76t53 -150zM268 140q-31 -37 -105 -70t-110 -40
l-28 88q60 9 136.5 51t106.5 74v-103zM840 622q0 -43 -31.5 -72.5t-74.5 -29.5t-74 29.5t-31 72.5q0 47 31 77.5t74 30.5t74.5 -30.5t31.5 -77.5zM784 622q0 21 -15.5 36.5t-34.5 15.5t-33.5 -15.5t-14.5 -36.5q0 -18 14.5 -32.5t33.5 -14.5t34.5 14.5t15.5 32.5z" />
    <glyph glyph-name="uni3078" unicode="&#x3078;" 
d="M838 137l-42 -101l-447 355l-242 -185l-67 81l311 241z" />
    <glyph glyph-name="uni3079" unicode="&#x3079;" 
d="M838 137l-41 -101l-448 355l-242 -185l-67 81l311 241zM845 566l-55 -53q-5 18 -47 68t-54 53l47 41q27 -9 63 -47.5t46 -61.5zM745 506l-55 -53q-8 19 -49 65.5t-53 55.5l50 42q27 -10 62 -48.5t45 -61.5z" />
    <glyph glyph-name="uni307A" unicode="&#x307a;" 
d="M838 137l-42 -101l-447 355l-242 -185l-67 81l311 241zM832 572q0 -43 -31.5 -72.5t-74.5 -29.5t-74 29.5t-31 72.5q0 47 31 77.5t74 30.5t74.5 -30.5t31.5 -77.5zM776 572q0 21 -15.5 36.5t-34.5 15.5t-33.5 -15.5t-14.5 -36.5q0 -18 14.5 -32.5t33.5 -14.5t34.5 14.5
t15.5 32.5z" />
    <glyph glyph-name="uni307B" unicode="&#x307b;" 
d="M822 52l-68 -68l-25 26t-65 56q-17 -71 -55 -98.5t-82 -31.5q-53 -9 -103.5 2.5t-76.5 42.5q-36 36 -36 94.5t45 96.5q22 21 71.5 36.5t132.5 3.5v173l-147 -27q-25 -7 -47 3t-39 38l-14 33l246 48q-1 27 -4.5 49t-18.5 59l-86 -17q-26 -6 -47.5 4t-38.5 36l-16 33
l402 80l15 -91l-129 -26q11 -31 15 -52t6 -57l131 25l15 -92l-144 -28v-222q57 -27 99 -65.5t64 -63.5zM561 109q-23 14 -60 23t-73 -11q-17 -8 -27.5 -24t-5.5 -33q7 -30 34.5 -37t49.5 -7q37 4 57.5 27t24.5 62zM195 61l18 -131h-99q-52 290 9 799l99 -17l-27 -226t0 -425
z" />
    <glyph glyph-name="uni307C" unicode="&#x307c;" 
d="M461 103q-21 14 -57 21t-72 -9q-18 -8 -26.5 -23t-6.5 -31q10 -53 84 -46q35 4 56 26.5t22 61.5zM647 645l15 -88l-124 -25q9 -32 12.5 -47.5t5.5 -51.5l128 25l15 -89l-141 -28v-169q56 -25 97 -63t61 -62l-62 -64q-29 31 -91 78q-17 -70 -54 -96.5t-80 -30.5
q-53 -9 -101.5 2.5t-74.5 41.5q-35 36 -35 92.5t44 94.5q22 18 70.5 34t128.5 5v119l-144 -28q-24 -4 -46 5.5t-38 36.5l-14 32l242 47q-1 28 -5.5 43.5t-17.5 53.5l-86 -16q-24 -7 -45.5 2.5t-37.5 35.5l-15 32zM853 726l-55 -53q-5 18 -47 67.5t-54 53.5l47 41
q27 -9 63 -48t46 -61zM753 666l-55 -53q-8 19 -49 65t-53 56l50 42q27 -10 62 -48.5t45 -61.5zM162 61l18 -131h-100q-59 212 1 721l100 -17l-23 -187t4 -386z" />
    <glyph glyph-name="uni307D" unicode="&#x307d;" 
d="M846 714q0 -43 -31.5 -72.5t-74.5 -29.5t-74 29.5t-31 72.5q0 47 31 77.5t74 30.5t74.5 -30.5t31.5 -77.5zM790 714q0 21 -15.5 36.5t-34.5 15.5t-33.5 -15.5t-14.5 -36.5q0 -18 14.5 -32.5t33.5 -14.5t34.5 14.5t15.5 32.5zM441 103q-21 14 -56.5 22.5t-72.5 -10.5
q-17 -8 -28 -24t-5 -31q7 -31 34.5 -38t49.5 -7q35 4 56 26.5t22 61.5zM617 675l15 -88l-114 -25q9 -32 12.5 -47.5t5.5 -51.5l118 25l15 -89l-131 -28v-199q56 -25 97 -63t62 -62l-59 -60q0 -13 -27.5 16t-67.5 57q-17 -69 -54 -95.5t-80 -30.5q-52 -9 -101 2.5t-75 41.5
q-35 36 -35 92.5t44 94.5q22 19 70.5 34.5t128.5 4.5v149l-144 -28q-24 -4 -46 5.5t-38 36.5l-14 32l242 47q-1 28 -5.5 43.5t-17.5 53.5l-85 -16q-25 -7 -46 2.5t-38 35.5l-15 32zM162 61l18 -131h-99q-60 242 1 751l99 -17l-23 -202t4 -401z" />
    <glyph glyph-name="uni307E" unicode="&#x307e;" 
d="M795 551h-277v-118h168l32 -94h-200v-153q17 -5 23 -8t13 -6q60 -24 116.5 -70t76.5 -70l-69 -71q-11 16 -59 56.5t-103 61.5q0 -84 -39 -115.5t-89 -38.5q-56 -12 -109.5 0.5t-92.5 46.5q-47 42 -37.5 106.5t65.5 99.5q36 21 82.5 33t118.5 2v126h-151q-51 0 -80 27.5
t-29 56.5l75 32q3 -9 19 -15.5t30 -6.5h136v118h-291l-31 94h322v90h103v-90h277v-94zM409 111q-18 13 -50.5 18t-68.5 -9q-21 -9 -31 -28t-10 -35q6 -29 34.5 -37.5t52.5 -8.5q43 5 63 31t10 69z" />
    <glyph glyph-name="uni307F" unicode="&#x307f;" 
d="M840 166l-51 -78l-125 81q-12 -23 -17.5 -33.5t-11.5 -21.5q-54 -86 -119.5 -130t-121.5 -48l-51 35q19 3 92.5 57t124.5 156q1 4 5 11t12 19q-46 22 -77.5 32.5t-71.5 20.5q-23 -72 -66 -116t-95 -61q-51 -19 -102 -9.5t-87 50.5q-31 35 -24 89t47 90q42 38 102 53.5
t153 6.5q21 79 43.5 153.5t26.5 97.5h-168l-31 93h260l53 -57l-88 -302q42 -9 76 -20t82 -29q22 68 34.5 126t13.5 92l88 -48q-3 -42 -12 -95.5t-33 -119.5q53 -28 88 -53t51 -42zM321 281q-34 7 -78 5.5t-77 -31.5q-10 -13 -16 -31t6 -31q15 -21 41.5 -18.5t43.5 8.5
q35 20 51 41.5t29 56.5z" />
    <glyph glyph-name="uni3080" unicode="&#x3080;" 
d="M847 404l-66 -68q-40 45 -95 83t-101 52l55 67q63 -6 118.5 -50.5t88.5 -83.5zM266 240q0 19 -15.5 35.5t-35.5 16.5q-18 0 -33.5 -16.5t-15.5 -35.5q0 -20 15.5 -33.5t33.5 -13.5q20 0 35.5 13.5t15.5 33.5zM659 216l98 -37v-85q0 -59 -40.5 -111t-123.5 -52h-357
q-51 0 -77 29t-26 74q0 19 5 38.5t24 41.5q-40 26 -61 56.5t-21 69.5q0 67 41 104t92 37h10t29 -6v80h-141l-35 95h176v185h99v-186q44 4 71 14t33 18l43 -83q-26 -19 -58.5 -31t-88.5 -12v-212q0 -57 -22.5 -85.5t-50.5 -40.5q-14 -6 -22.5 -22t-6.5 -33q3 -14 15.5 -25.5
t25.5 -11.5h251q79 0 100 49.5t18 141.5z" />
    <glyph glyph-name="uni3081" unicode="&#x3081;" 
d="M791 388q41 -83 29.5 -164t-31.5 -119q-65 -121 -170 -154.5t-140 -27.5l-49 61q69 3 145.5 41.5t116.5 111.5q19 34 25.5 76.5t0.5 88.5q-7 46 -39 83t-69 54q-11 7 -20 10t-29 10q-23 -68 -46 -123t-55 -113q-32 -55 -78 -111t-84 -89q-26 -19 -57.5 -25.5t-62.5 7.5
q-20 9 -41 31.5t-36 62.5q-11 31 -14.5 109.5t43.5 156.5q15 28 35 51t49 49q-14 64 -24 133.5t-6 118.5l98 -25q-2 -22 1.5 -66.5t16.5 -109.5q53 18 92.5 26t89.5 7q18 62 26.5 109t9.5 71l104 -35q-7 -30 -16.5 -68.5t-21.5 -87.5q91 -21 138 -62.5t69 -87.5zM460 470
q-48 -5 -73 -12.5t-64 -24.5q11 -31 19.5 -52t20.5 -42l4.5 -9t17.5 -33q29 62 42.5 92t32.5 81zM332 206q-24 35 -45 71.5t-47 96.5q-44 -56 -59 -107t-8 -113q3 -17 18.5 -29t27.5 -14q15 0 29.5 5.5t27.5 15.5q13 16 25.5 32t30.5 42z" />
    <glyph glyph-name="uni3082" unicode="&#x3082;" 
d="M740 361q77 -81 71.5 -213t-129.5 -197q-41 -19 -95.5 -27.5t-118.5 3.5q-68 12 -136 57.5t-52 180.5l8 87l-134 6q-29 2 -44.5 16.5t-21.5 24.5l32 73q24 -20 45 -24l133 -4l19 138l-157 8l-22 94l187 -10l20 160l104 -15l-18 -151l136 -6v-94l-144 7l-17 -135l164 -7
v-93l-175 7l-7 -76q-9 -86 44.5 -116.5t99.5 -32.5q64 -1 119.5 39t55.5 122q0 40 -17 75.5t-36 53.5l55 73q19 -10 31 -24z" />
    <glyph glyph-name="uni3083" unicode="&#x3083;" 
d="M739 294q0 -60 -34 -102.5t-90 -58.5q-39 -10 -67 3v68q7 0 34.5 5.5t45.5 21.5q23 18 27 50.5t-15 58.5q-21 24 -49.5 24t-61.5 -15l12 -53l-79 -19l-12 48l-96 -34l107 -352l-83 -12l-101 334l-95 -33l-23 76l95 34l-45 144l82 19l41 -135l97 34q-14 43 -28 76l-14 33
l76 24q7 -11 19 -37.5t27 -65.5q28 7 52 12t54 0q55 -6 89.5 -47t34.5 -101z" />
    <glyph glyph-name="uni3084" unicode="&#x3084;" 
d="M84 344l-25 92l139 48l-60 191l91 26l57 -183l146 51q-17 51 -33.5 88t-23.5 52l83 27q11 -17 28.5 -52t35.5 -83q32 10 69.5 18.5t83.5 1.5q72 -8 120 -64t48 -137t-46.5 -139.5t-121.5 -80.5q-27 -6 -56.5 -9.5t-39.5 1.5v95q17 0 54 8t65 31q32 28 37.5 76t-22.5 85
q-30 38 -74 39t-86 -23q8 -29 12 -74l-94 -29q-2 43 -12 73q-13 -6 -47.5 -17.5t-97.5 -33.5l146 -478l-94 -17l-143 469q-7 3 -139 -52z" />
    <glyph glyph-name="uni3085" unicode="&#x3085;" 
d="M634 259q-5 37 -30.5 63t-75.5 33v-105q0 -28 -2 -51.5t-6 -60.5q24 3 28 4t6 2q48 15 65.5 48.5t14.5 66.5zM278 57l-78 -23q-12 34 -29 125.5t-3 219.5l21 114l86 -29q-12 -28 -19.5 -76t-7.5 -151q51 93 91.5 128t98.5 51v115h90v-97q19 0 25.5 -1.5t13.5 -2.5
q64 -10 106.5 -57t44.5 -114q3 -75 -34 -125.5t-110 -67.5q-15 -4 -30 -6t-42 -2q-23 -68 -53 -94.5t-53 -36.5l-61 20q6 9 34 44.5t47 84.5q-34 18 -53 34.5t-29 26.5l53 61q23 -25 47 -43q4 48 4.5 68t0.5 44v66q-34 -22 -48.5 -33.5t-31.5 -29.5q-27 -30 -55 -92
t-26 -121z" />
    <glyph glyph-name="uni3086" unicode="&#x3086;" 
d="M731 374q-8 60 -51.5 101t-117.5 43v-160q0 -44 -3 -80.5t-10 -86.5q30 4 41 6t20 6q72 22 98.5 71.5t22.5 99.5zM219 94l-91 -31q-17 51 -38.5 173t-4.5 295q6 52 20 100t18 59l91 -43q-21 -51 -30.5 -129.5t-7.5 -224.5q58 142 117.5 201t135.5 87q5 2 10.5 4t20.5 6
l-4 144h106v-128l36 -3t24 -3q88 -12 146 -76.5t61 -157.5q4 -98 -46.5 -167t-147.5 -92q-24 -6 -48.5 -9.5t-60.5 -2.5q-29 -87 -69.5 -123t-73.5 -50l-76 31q26 16 60.5 60t58.5 106q-45 22 -74 46t-45 43l46 76q52 -53 95 -74q9 56 10.5 92.5t1.5 72.5v117
q-49 -28 -78 -51t-57 -55q-44 -50 -75 -129.5t-31 -163.5z" />
    <glyph glyph-name="uni3087" unicode="&#x3087;" 
d="M692 -5l-53 -69l-43 41.5t-88 62.5q-8 -48 -30.5 -72.5t-66.5 -33.5q-42 -8 -90.5 1.5t-76.5 37.5q-30 30 -22.5 75.5t47.5 73.5q28 19 63 27.5t86 5.5v380h89v-153l165 10l8 -92h-173v-165q15 -4 21 -7t13 -5q44 -18 92.5 -57t58.5 -61zM422 62q-18 9 -38 12t-45 -3
q-15 -7 -25.5 -20.5t-9.5 -25.5q3 -18 16 -24.5t29 -6.5q32 0 52.5 15.5t20.5 52.5z" />
    <glyph glyph-name="uni3088" unicode="&#x3088;" 
d="M772 13l-71 -85q-8 19 -62.5 73t-109.5 77q-10 -64 -44.5 -102t-92.5 -49q-56 -11 -122 1t-106 51q-41 42 -30 105t65 102q42 29 96.5 37.5t125.5 -2.5v514h102v-217l220 15l9 -106h-229v-234q19 -5 26.5 -8.5t14.5 -6.5q58 -25 124 -78t84 -87zM417 117
q-23 12 -54.5 17.5t-71.5 -6.5q-21 -8 -36.5 -28t-13.5 -37q4 -23 23.5 -34.5t41.5 -11.5q50 0 80.5 23.5t30.5 76.5z" />
    <glyph glyph-name="uni3089" unicode="&#x3089;" 
d="M457 634l-60 -64q-32 40 -80 74t-84 45l52 56q59 -12 99.5 -42t72.5 -69zM785 254q9 -69 -18 -125t-83 -99q-90 -72 -189 -87.5t-152 -9.5l-81 65q139 2 240 34t161 112q15 19 22 54t1 69q-10 37 -41 60t-67 28q-106 9 -201.5 -48.5t-165.5 -150.5l-104 32l42 415l95 -32
l-28 -283q84 81 170 124.5t204 25.5q82 -11 135 -60.5t60 -123.5z" />
    <glyph glyph-name="uni308A" unicode="&#x308a;" 
d="M664 316q0 -198 -84 -287t-193 -111l-84 43q125 42 186 141.5t61 269.5v286q0 21 -2 36t-11 46h120q2 -15 4.5 -40t2.5 -57v-327zM344 380v-182h-89q-2 11 -8 43t-6 87v262q-1 54 6 109l107 -11q-10 -42 -9 -83z" />
    <glyph glyph-name="uni308B" unicode="&#x308b;" 
d="M775 166q-3 -94 -59 -152.5t-137 -81.5q-40 -10 -89.5 -14.5t-94.5 8.5q-42 10 -75.5 43t-33.5 88q0 60 40.5 100.5t101.5 40.5q66 0 103 -46t25 -106q56 10 83.5 47.5t28.5 84.5q1 60 -43 98.5t-114 38.5q-55 0 -101 -13.5t-92 -49.5l-125 -131l-66 77l392 433h-307
l-33 94h452l43 -80l-248 -265q60 15 126 15q103 0 165 -68.5t58 -160.5zM479 68q0 22 -16 38t-38 16t-38 -16t-16 -38t16 -38t38 -16t38 16t16 38z" />
    <glyph glyph-name="uni308C" unicode="&#x308c;" 
d="M398 441q45 47 81 85q33 37 60 63.5t63 26.5q33 0 50.5 -22.5t17.5 -58.5v-423q0 -27 19 -27h18q37 0 57 47t20 63l59 -56q0 -15 -10.5 -52.5t-35.5 -66.5q-12 -14 -37.5 -26t-56.5 -12h-66q-29 0 -47.5 23.5t-18.5 58.5v426l-186 -186v-373h-95v273l-155 -184l-63 61
l242 395l-210 -80l-39 86l225 77v166l98 21v-134l51 -58z" />
    <glyph glyph-name="uni308D" unicode="&#x308d;" 
d="M825 212q-8 -125 -133.5 -202.5t-242.5 -82.5l-67 63q76 12 147.5 36.5t129.5 78.5q23 23 40.5 60.5t14.5 82.5q-5 46 -40.5 76.5t-94.5 30.5q-76 1 -162 -26t-163 -84l-106 -109l-58 89l406 416h-311v94h421l46 -79l-244 -248q84 21 120 27t71 6q111 0 172.5 -68.5
t53.5 -160.5z" />
    <glyph glyph-name="uni308E" unicode="&#x308e;" 
d="M428 292q47 20 83.5 25.5t80.5 -1.5q53 -8 92.5 -43t44.5 -89q7 -50 -13 -93.5t-56 -73.5q-34 -27 -70.5 -43.5t-64.5 -21.5l-39 63q15 0 60 21t71 54q42 45 19 103q-19 51 -98 51q-30 -1 -58.5 -15t-62.5 -36v-259h-93v197q-39 -43 -63.5 -72t-30.5 -41l-58 60l152 203
v31l-138 -8v88h138v140h93v-131l44 -49z" />
    <glyph glyph-name="uni308F" unicode="&#x308f;" 
d="M409 411q58 21 111 36q56 14 126 3q77 -9 128 -58t58 -122q9 -69 -15.5 -127t-77.5 -99q-50 -37 -98.5 -59.5t-86.5 -29.5l-46 73q29 3 86 28.5t96 76.5q61 80 28 160q-17 41 -56.5 59.5t-91.5 15.5q-45 -4 -87.5 -22t-88.5 -48v-367h-104v279q-47 -45 -82 -91t-47 -65
l-82 75l211 275v53l-192 -13v106h192v185h104v-175l65 -69z" />
    <glyph glyph-name="uni3090" unicode="&#x3090;" 
d="M794 338q37 -74 25 -174.5t-85 -166.5q-93 -86 -193 -67q-114 22 -120 133q-3 54 27.5 95.5t97.5 53.5q43 8 83 -12t61 -73q30 49 25 128t-104 125q-32 16 -71 19t-88 0l-51 -180q-24 -82 -60.5 -136.5t-81.5 -75.5q-59 -29 -104 -9.5t-63 48.5q-15 25 -20.5 71.5
t7.5 85.5q38 124 120.5 184.5t170.5 82.5l48 171h-235v94h266l75 -82l-49 -172q25 4 31.5 3.5t14.5 -0.5q126 -6 189.5 -55t83.5 -91zM345 368q-91 -51 -137 -110t-43 -128q3 -35 21.5 -35.5t38.5 9.5q31 15 51.5 58t27.5 71zM620 72q0 23 -16.5 39.5t-39.5 16.5
t-39.5 -16.5t-16.5 -39.5t16.5 -39.5t39.5 -16.5t39.5 16.5t16.5 39.5z" />
    <glyph glyph-name="uni3091" unicode="&#x3091;" 
d="M835 29q0 -77 -93 -99l-42 52q40 9 51 35q6 11 4 28.5t-17 35.5q-11 13 -27 18t-30 5q-26 -1 -46.5 -13t-40.5 -28q-36 -34 -62 -58.5t-65 -53.5q-21 -16 -57.5 -16t-64.5 28q-11 10 -23.5 24t-29.5 25q-30 20 -57 18l-127 -104l-46 80l268 215q-18 22 -24 37.5t-6 34.5
q0 41 33.5 74.5t87.5 27.5t74 -42t13 -75q48 4 80.5 28t36.5 75q5 50 -35 77.5t-109 26.5q-32 0 -69 -9.5t-77 -35.5l-163 -153l-64 48l320 315h-214l-52 85h409l39 -43l-177 -159q162 32 222.5 -23.5t57.5 -125.5q-1 -68 -43.5 -114.5t-123.5 -63.5q-23 -5 -52 -8t-59 -3
l-137 -111q29 -4 47 -24q24 -25 47 -39q21 -8 40 0.5t31 18.5q39 34 85 75.5t99 49.5q42 9 77 0.5t61 -30.5q27 -24 38 -51t12 -55zM450 299q0 18 -13 31t-31 13t-31 -13t-13 -31t13 -31t31 -13t31 13t13 31z" />
    <glyph glyph-name="uni3092" unicode="&#x3092;" 
d="M771 398l-255 -150v-143h-97v86l-133 -79q-12 -8 -24 -20.5t-12 -29.5q0 -13 13 -25t29 -16q49 -15 183 -16t214 30l14 -90q-31 -9 -94.5 -17t-114.5 -9q-40 -3 -105 2t-123 17q-52 11 -83.5 39t-31.5 80q0 74 78 121.5t100 59.5l81 46q-33 37 -63 46t-61 1
q-26 -21 -50.5 -37.5t-41.5 -28.5l-54 73q46 22 92.5 71t88.5 132h-188v94h216q8 36 11 65t3 45h101q0 -17 -2.5 -44t-7.5 -66h153v-94h-178q-13 -38 -26 -62.5t-43 -67.5q57 -8 80.5 -25t48.5 -49l232 143z" />
    <glyph glyph-name="uni3093" unicode="&#x3093;" 
d="M842 147q-14 -86 -64.5 -151t-162.5 -65q-40 0 -81 25t-57 71q-16 43 -34.5 83.5t-47.5 64.5q-42 38 -83.5 26t-63.5 -47l-122 -214l-68 60l402 727l81 -49l-228 -402q57 12 85.5 6t50.5 -21q46 -32 67 -83t29 -77q18 -57 61 -67t75 7q37 18 63.5 69.5t30.5 108.5z" />
    <glyph glyph-name="uni30A1" unicode="&#x30a1;" 
d="M475 355v-147q0 -118 -42 -183.5t-104 -88.5l-63 44q49 26 84 80.5t35 140.5v170zM503 285q49 31 62 55q34 49 44 98h-438v91h503l60 -87l-20 -44q-22 -53 -62.5 -98.5t-71.5 -55.5z" />
    <glyph glyph-name="uni30A2" unicode="&#x30a2;" 
d="M837 608l-38 -64q-45 -75 -90 -126.5t-109 -79.5l-75 52q49 28 101.5 94t74.5 138h-625v103h678zM478 267q0 -132 -59 -216.5t-140 -115.5l-70 53q73 38 119.5 110t46.5 188v231l103 -24v-226z" />
    <glyph glyph-name="uni30A3" unicode="&#x30a3;" 
d="M678 485l-110 -143v-401h-94v280q-53 -56 -98.5 -90.5t-91.5 -46.5l-49 62q32 13 95 66.5t95 100.5l179 232z" />
    <glyph glyph-name="uni30A4" unicode="&#x30a4;" 
d="M733 683l-142 -184v-558h-109v416q-112 -147 -281 -207l-55 64q140 86 259 223l242 313z" />
    <glyph glyph-name="uni30A5" unicode="&#x30a5;" 
d="M713 445q0 -76 -18 -158t-56 -147q-42 -71 -112 -127t-156 -77l-69 59q18 6 99 44.5t136 124.5q28 42 43.5 87.5t15.5 99.5h-317l11 -140l-87 -10l-24 244h213v90h93v-90h228z" />
    <glyph glyph-name="uni30A6" unicode="&#x30a6;" 
d="M817 615q0 -88 -30 -206t-82 -205q-58 -96 -156.5 -171t-219.5 -103l-69 67q51 14 159 73.5t181 173.5q36 58 60 129.5t28 136.5h-479l19 -214l-99 -12l-33 331h297v120h108v-120h316z" />
    <glyph glyph-name="uni30A7" unicode="&#x30a7;" 
d="M736 31h-573v95h241v269h-174v90h441v-90h-174v-269h239v-95z" />
    <glyph glyph-name="uni30A8" unicode="&#x30a8;" 
d="M836 31h-773v109h333v401h-244v104h597v-104h-245v-401h332v-109z" />
    <glyph glyph-name="uni30A9" unicode="&#x30a9;" 
d="M726 330h-144l8 -258q4 -74 -26 -107t-82 -33l-35 30q55 36 55 113l-8 178q-34 -55 -51.5 -76t-37.5 -39q-37 -40 -87.5 -71.5t-82.5 -38.5l-47 63q56 15 130 80.5t133 158.5h-250v92h288l-4 101h89l4 -101h148v-92z" />
    <glyph glyph-name="uni30AA" unicode="&#x30aa;" 
d="M804 486h-207l13 -369q5 -96 -36.5 -142.5t-113.5 -46.5l-52 65q27 0 64 29t36 101l-10 268q-44 -79 -71 -115.5t-61 -69.5q-50 -52 -113 -90.5t-111 -45.5l-57 65q116 42 208 140t148 211h-347v104h398l-5 135h101l5 -135h211v-104z" />
    <glyph glyph-name="uni30AB" unicode="&#x30ab;" 
d="M792 590l-17 -218q-4 -61 -13 -134.5t-25 -132.5q-15 -65 -48 -114t-108 -59l-67 71q35 6 65 32.5t45 66.5q29 72 39 215.5t12 168.5h-202q-14 -100 -31.5 -175.5t-41.5 -123.5q-56 -112 -129 -174.5t-139 -80.5l-59 70q33 6 111 71t122 169q27 58 40.5 114.5t18.5 129.5
h-230v104h239q1 46 1.5 80t0.5 54l110 -25q0 -18 -1 -44t-3 -65h310z" />
    <glyph glyph-name="uni30AC" unicode="&#x30ac;" 
d="M442 574h304l-16 -214q-4 -59 -13.5 -131t-23.5 -130q-16 -63 -48.5 -111.5t-105.5 -57.5l-64 71q32 2 61.5 29t46.5 66q27 70 36.5 210.5t11.5 165.5h-197q-13 -98 -31 -172t-41 -121q-54 -110 -126 -171t-136 -78l-57 67q31 6 107.5 70.5t120.5 165.5q25 57 38.5 112
t20.5 127h-227v102h234q1 45 1.5 78.5t0.5 50.5l107 -22q0 -17 -1 -43t-3 -64zM831 701l-55 -53q-5 18 -47 68t-54 53l47 41q27 -9 63 -47.5t46 -61.5zM731 641l-55 -53q-8 19 -49 65.5t-53 55.5l50 42q27 -10 62 -48.5t45 -61.5z" />
    <glyph glyph-name="uni30AD" unicode="&#x30ad;" 
d="M817 282l-322 -39l51 -281l-107 -27l-47 295l-327 -40l-12 105l323 39l-23 130l-236 -29l-12 105l232 29l-23 143l96 16l27 -148l228 29l14 -104l-227 -28l26 -131l326 39z" />
    <glyph glyph-name="uni30AE" unicode="&#x30ae;" 
d="M762 274l-315 -38l50 -275l-103 -27l-48 289l-299 -39l-12 103l295 38l-22 128l-211 -29l-11 103l206 28l-22 140l95 16l26 -145l224 28l12 -101l-221 -28l24 -129l321 39zM841 681l-55 -53q-5 18 -47 68t-54 53l47 41q27 -9 63 -47.5t46 -61.5zM741 621l-55 -53
q-8 19 -49 65.5t-53 55.5l50 42q27 -10 62 -48.5t45 -61.5z" />
    <glyph glyph-name="uni30AF" unicode="&#x30af;" 
d="M778 644q0 -152 -119.5 -378t-363.5 -325l-83 60q156 56 277 208t158 331h-289q-29 -53 -76 -106.5t-97 -81.5l-89 44q62 39 132 136.5t87 192.5h109q-6 -41 -28 -81h382z" />
    <glyph glyph-name="uni30B0" unicode="&#x30b0;" 
d="M713 617q-9 -169 -124 -373q-117 -209 -347 -303l-81 59q152 55 270.5 200.5t156.5 321.5h-285q-28 -52 -74.5 -104.5t-94.5 -79.5l-87 43q61 38 129.5 133.5t84.5 188.5h107l-28 -79h342q-13 17 -35 43q-41 46 -53 55l50 42q27 -10 62 -48.5t45 -61.5zM851 714l-55 -53
q-5 18 -47 68t-54 53l47 41q27 -9 63 -47.5t46 -61.5z" />
    <glyph glyph-name="uni30B1" unicode="&#x30b1;" 
d="M804 441h-200q0 -180 -62 -314t-184 -195l-82 51q75 42 147 146.5t72 311.5h-204q-16 -52 -62.5 -109t-89.5 -75l-81 49q80 53 136 184.5t62 231.5l103 -19q2 -20 -5.5 -67.5t-26.5 -90.5h477v-104z" />
    <glyph glyph-name="uni30B2" unicode="&#x30b2;" 
d="M737 430h-196q0 -176 -60 -307t-181 -191l-79 49q73 41 143.5 143.5t70.5 305.5h-180q-16 -52 -61.5 -107.5t-88.5 -72.5l-79 48q79 52 134 180.5t60 226.5l101 -18q-6 -79 -31 -155h447v-102zM847 679l-55 -53q-5 18 -47 68t-54 53l47 41q27 -9 63 -47.5t46 -61.5z
M747 619l-55 -53q-8 19 -49 65.5t-53 55.5l50 42q27 -10 62 -48.5t45 -61.5z" />
    <glyph glyph-name="uni30B3" unicode="&#x30b3;" 
d="M746 -19h-109v50h-489v104h489v406h-484v104h593v-664z" />
    <glyph glyph-name="uni30B4" unicode="&#x30b4;" 
d="M657 627v-650h-106v49h-480v101h480v399h-474v101h580zM851 715l-55 -53q-5 18 -47 68t-54 53l47 41q27 -9 63 -47.5t46 -61.5zM751 655l-55 -53q-8 19 -49 65.5t-53 55.5l50 42q27 -10 62 -48.5t45 -61.5z" />
    <glyph glyph-name="uni30B5" unicode="&#x30b5;" 
d="M824 391h-185v-151q0 -217 -181 -325l-73 66q146 78 146 261v149h-182v-280h-108v280h-185v104h185v230h108v-230h182v230h108v-230h185v-104z" />
    <glyph glyph-name="uni30B6" unicode="&#x30b6;" 
d="M574 708v-225h181v-102h-181v-148q0 -214 -176 -318l-72 64q142 83 142 249v153h-167v-274h-107v274h-141v102h141v225h107v-225h167v225h106zM854 655l-55 -53q-5 18 -47 68t-54 53l47 41q27 -9 63 -47.5t46 -61.5zM754 595l-55 -53q-8 19 -49 65.5t-53 55.5l50 42
q27 -10 62 -48.5t45 -61.5z" />
    <glyph glyph-name="uni30B7" unicode="&#x30b7;" 
d="M447 572l-71 -64q-19 27 -106.5 81t-124.5 71l52 64q47 -11 139.5 -68t110.5 -84zM356 325l-69 -66q-17 26 -111 83.5t-122 70.5l52 71q52 -16 141.5 -73.5t108.5 -85.5zM788 471q-57 -173 -232 -330.5t-348 -207.5l-58 96q192 50 372 220t220 297z" />
    <glyph glyph-name="uni30B8" unicode="&#x30b8;" 
d="M764 465q-56 -169 -227.5 -323.5t-340.5 -203.5l-57 94q188 48 364.5 215t214.5 290zM840 699l-55 -53q-5 18 -47 68t-54 53l47 41q27 -9 63 -47.5t46 -61.5zM740 639l-55 -53q-8 19 -49 65.5t-53 55.5l50 42q27 -10 62 -48.5t45 -61.5zM437 572l-71 -64
q-19 27 -106.5 81t-124.5 71l52 64q47 -11 139.5 -68t110.5 -84zM346 325l-69 -66q-17 26 -111 83.5t-122 70.5l52 71q52 -16 141.5 -73.5t108.5 -85.5z" />
    </font>
</defs>
</svg>
